<?xml version="1.0" standalone="no"?>
<!DOCTYPE svg PUBLIC "-//W3C//DTD SVG 1.1//EN" "http://www.w3.org/Graphics/SVG/1.1/DTD/svg11.dtd" >
<svg>
<metadata>
Created by FontForge 20120731 at Tue Mar 26 23:39:16 2019
 By www-data
Copyright (c) 2004 Linotype Library GmbH, www.linotype.com. All rights reserved. This software may not be reproduced, used, displayed, modified, disclosed or transferred without the express written approval of Linotype Library GmbH. Avenir is a trademark of Heidelberger Druckmaschinen AG, exclusively licensed through Linotype Library GmbH, and may be registered in certain jurisdictions. This typeface is original artwork of Adrian Frutiger. The design may be protected in certain jurisdictions.
</metadata>
<defs>
<font id="AvenirNextLTPro-MediumCnIt" horiz-adv-x="229" >
  <font-face 
    font-family="Avenir Next LT Pro"
    font-weight="500"
    font-style="italic"
    font-stretch="normal"
    units-per-em="1000"
    panose-1="2 11 6 6 2 2 2 2 2 4"
    ascent="756"
    descent="-244"
    x-height="501"
    cap-height="708"
    bbox="-162 -250 868 954"
    underline-thickness="50"
    underline-position="-50"
    slope="-12"
    stemh="76"
    stemv="84"
    unicode-range="U+000D-FB02"
  />
<missing-glyph horiz-adv-x="512" 
d="M222 117h56v67h-56v-67zM225 234h46c0 35 2 59 6 72s18 30 43 52c51 47 63 77 63 120c0 79 -53 131 -124 131c-72 0 -126 -42 -135 -137l50 -8c8 68 41 95 82 95s76 -37 76 -85c0 -25 -7 -42 -50 -83c-22 -22 -37 -42 -46 -59s-13 -44 -13 -81zM462 50h-412v617h412v-617
zM512 718h-512v-718h512v718z" />
    <glyph glyph-name="fi" unicode="fi" horiz-adv-x="476" 
d="M346 768l-12 -67c-7 2 -17 4 -28 4c-53 0 -74 -55 -84 -110l-16 -94h82l-11 -66h-82l-75 -435h-80l75 435h-65l11 66h65l17 94c18 104 67 179 163 179c15 0 28 -2 40 -6zM450 501l-87 -501h-81l87 501h81zM486 658c0 -35 -25 -63 -58 -63c-29 0 -46 23 -46 48
c0 32 24 63 57 63c29 0 47 -20 47 -48z" />
    <glyph glyph-name="fl" unicode="fl" horiz-adv-x="474" 
d="M346 768l-12 -67c-7 2 -17 4 -28 4c-53 0 -74 -55 -84 -110l-16 -94h82l-11 -66h-82l-75 -435h-80l75 435h-65l11 66h65l17 94c18 104 67 179 163 179c15 0 28 -2 40 -6zM495 756l-131 -756h-82l131 756h82z" />
    <glyph glyph-name="napostrophe" unicode="&#x22;n" horiz-adv-x="502" 
d="M187 288l-50 -288h-81l65 374c3 21 16 108 19 127h80c-2 -19 -8 -57 -13 -89h2c26 59 77 106 139 106c77 0 105 -60 105 -122c0 -18 -3 -49 -8 -76l-55 -320h-82l55 320c3 18 6 37 6 56c0 38 -12 69 -56 69c-59 0 -111 -67 -126 -157zM198 708l-95 -185h-65l86 185h74z
" />
    <glyph glyph-name="ij" unicode="ij" horiz-adv-x="445" 
d="M201 501l-87 -501h-81l87 501h81zM236 658c0 -35 -25 -63 -58 -63c-29 0 -46 23 -46 48c0 32 24 63 57 63c29 0 47 -20 47 -48zM324 -62c-19 -105 -59 -178 -163 -178c-10 0 -26 2 -39 5l12 78c9 -3 21 -4 29 -4c53 0 69 49 79 105l98 557h83zM455 658
c0 -35 -25 -63 -58 -63c-29 0 -46 23 -46 48c0 32 24 63 57 63c29 0 47 -20 47 -48z" />
    <glyph glyph-name="IJ" unicode="IJ" horiz-adv-x="626" 
d="M247 708l-123 -708h-86l123 708h86zM640 708l-90 -513c-24 -135 -71 -212 -184 -212c-86 0 -133 51 -149 113l73 31c9 -31 31 -65 77 -65c66 0 84 55 99 142l88 504h86z" />
    <glyph glyph-name=".notdef" horiz-adv-x="512" 
d="M222 117h56v67h-56v-67zM225 234h46c0 35 2 59 6 72s18 30 43 52c51 47 63 77 63 120c0 79 -53 131 -124 131c-72 0 -126 -42 -135 -137l50 -8c8 68 41 95 82 95s76 -37 76 -85c0 -25 -7 -42 -50 -83c-22 -22 -37 -42 -46 -59s-13 -44 -13 -81zM462 50h-412v617h412v-617
zM512 718h-512v-718h512v718z" />
    <glyph glyph-name="exclam" unicode="!" horiz-adv-x="296" 
d="M271 708l-85 -491h-82l85 491h82zM174 59c0 -37 -26 -66 -61 -66c-30 0 -48 24 -48 50c0 33 25 66 60 66c30 0 49 -21 49 -50z" />
    <glyph glyph-name="quotedbl" unicode="&#x22;" horiz-adv-x="349" 
d="M315 457h-67l44 251h67zM183 457h-67l44 251h67z" />
    <glyph glyph-name="numbersign" unicode="#" horiz-adv-x="382" 
d="M394 425h-69l-38 -141h57l-12 -67h-63l-57 -217h-58l57 217h-67l-58 -217h-58l56 217h-62l12 67h69l39 141h-64l12 67h69l57 216h59l-57 -216h67l58 216h58l-58 -216h63zM267 425h-68l-37 -141h67z" />
    <glyph glyph-name="dollar" unicode="$" horiz-adv-x="476" 
d="M477 650l-50 -60c-19 24 -56 45 -98 45l-43 -243c78 -40 131 -91 131 -180c0 -126 -94 -211 -202 -211l-14 -81h-42l14 81c-57 2 -118 30 -149 70l55 62c26 -36 68 -58 108 -59l44 253c-78 39 -123 80 -123 173c0 122 100 205 191 206l14 80h42l-14 -79
c54 -1 105 -21 136 -57zM336 200c0 57 -26 88 -64 110l-41 -236c51 -2 105 53 105 126zM284 633c-50 0 -99 -53 -99 -121c0 -48 19 -79 60 -102z" />
    <glyph glyph-name="percent" unicode="%" horiz-adv-x="654" 
d="M621 225c0 -116 -69 -235 -167 -235c-67 0 -104 52 -104 130c0 116 68 237 167 237c68 0 104 -54 104 -132zM552 221c0 45 -14 74 -45 74c-54 0 -88 -99 -88 -169c0 -44 15 -75 45 -75c55 0 88 102 88 170zM349 590c0 -115 -69 -235 -167 -235c-67 0 -104 53 -104 130
c0 117 69 237 168 237c68 0 103 -53 103 -132zM280 586c0 45 -14 75 -45 75c-54 0 -88 -100 -88 -169c0 -45 15 -75 45 -75c55 0 88 101 88 169zM580 720l-410 -743l-49 17l409 743z" />
    <glyph glyph-name="ampersand" unicode="&#x26;" horiz-adv-x="529" 
d="M539 384l-134 -219l87 -165h-94l-44 89c-40 -59 -92 -106 -163 -106c-96 0 -153 63 -153 160c0 115 67 202 161 253c-25 51 -37 93 -37 133c0 116 68 198 165 198c89 0 131 -58 131 -132c0 -105 -76 -163 -166 -216l75 -156l92 161h80zM319 148l-93 191
c-57 -28 -108 -102 -108 -183c0 -62 25 -99 83 -99c52 0 93 44 118 91zM382 587c0 43 -25 72 -60 72c-53 0 -84 -60 -84 -124c0 -34 11 -68 30 -107c63 39 114 80 114 159z" />
    <glyph glyph-name="quoteright" unicode="&#x2019;" horiz-adv-x="192" 
d="M79 466l87 242h74l-97 -242h-64z" />
    <glyph glyph-name="parenleft" unicode="(" horiz-adv-x="250" 
d="M285 711c-119 -160 -197 -379 -197 -578c0 -99 17 -195 50 -271l-62 -27c-35 78 -58 189 -58 295c0 218 79 442 211 612z" />
    <glyph glyph-name="parenright" unicode=")" horiz-adv-x="250" 
d="M-14 -133c119 160 197 379 197 578c0 99 -17 195 -50 271l62 27c35 -78 58 -189 58 -295c0 -218 -79 -442 -211 -612z" />
    <glyph glyph-name="asterisk" unicode="*" horiz-adv-x="429" 
d="M451 545l-127 -42l80 -121l-55 -40l-79 123l-78 -120l-56 39l81 119l-128 45l22 61l125 -46v145h69v-145l125 44z" />
    <glyph glyph-name="plus" unicode="+" horiz-adv-x="666" 
d="M374 566v-222h222v-82h-222v-222h-82v222h-222v82h222v222h82z" />
    <glyph glyph-name="comma" unicode="," horiz-adv-x="222" 
d="M152 126l-117 -255h-66l103 255h80z" />
    <glyph glyph-name="hyphen" unicode="-" horiz-adv-x="224" 
d="M192 231h-158l12 69h158z" />
    <glyph glyph-name="period" unicode="." horiz-adv-x="222" 
d="M133 59c0 -37 -26 -66 -61 -66c-30 0 -48 24 -48 50c0 33 25 66 60 66c30 0 49 -21 49 -50z" />
    <glyph glyph-name="slash" unicode="/" horiz-adv-x="244" 
d="M332 747l-317 -781l-56 12l318 781z" />
    <glyph glyph-name="zero" unicode="0" horiz-adv-x="476" 
d="M475 492c0 -168 -63 -504 -269 -504c-120 0 -157 104 -157 220c0 181 61 512 269 512c121 0 157 -110 157 -228zM387 501c0 76 -18 144 -78 144c-136 0 -173 -334 -173 -440c0 -75 18 -142 77 -142c137 0 174 331 174 438z" />
    <glyph glyph-name="one" unicode="1" horiz-adv-x="476" 
d="M407 708l-123 -708h-85l106 610l-144 -97l-28 66l194 129h80z" />
    <glyph glyph-name="two" unicode="2" horiz-adv-x="476" 
d="M313 292l-193 -216h267l-13 -76h-362l15 82l240 269c91 102 108 149 108 200c0 46 -23 92 -82 92c-55 0 -94 -46 -110 -102l-81 17c32 99 100 163 202 163c108 0 159 -80 159 -162c0 -76 -28 -131 -150 -267z" />
    <glyph glyph-name="three" unicode="3" horiz-adv-x="476" 
d="M197 -13c-98 0 -159 55 -180 134l77 27c14 -48 46 -87 104 -87c74 0 135 58 135 163c0 66 -43 109 -108 109h-25l12 72h27c72 0 136 58 136 151c0 44 -28 92 -84 92c-47 0 -78 -28 -102 -69l-67 26c37 76 99 116 180 116c104 0 156 -72 156 -159
c0 -73 -40 -166 -137 -189l-1 -2c62 -15 97 -74 97 -145c0 -118 -76 -239 -220 -239z" />
    <glyph glyph-name="four" unicode="4" horiz-adv-x="476" 
d="M449 237l-13 -73h-85l-28 -164h-78l28 164h-254l13 80l301 464h113l-82 -471h85zM356 625h-2l-244 -388h179z" />
    <glyph glyph-name="five" unicode="5" horiz-adv-x="476" 
d="M471 708l-13 -75h-216l-43 -203c23 10 55 17 77 17c99 0 147 -75 147 -172c0 -167 -99 -289 -238 -289c-91 0 -139 57 -160 122l75 33c14 -46 45 -79 96 -79c87 0 142 93 142 197c0 71 -35 121 -101 121c-39 0 -93 -14 -128 -33l72 361h290z" />
    <glyph glyph-name="six" unicode="6" horiz-adv-x="476" 
d="M441 271c0 -156 -89 -283 -232 -283c-109 0 -173 80 -173 188c0 84 36 163 90 243l195 289h93l-202 -292l1 -1c25 21 50 31 79 31c92 0 149 -71 149 -175zM353 268c0 65 -28 112 -92 112c-87 0 -139 -107 -139 -201c0 -69 34 -119 93 -119c86 0 138 103 138 208z" />
    <glyph glyph-name="seven" unicode="7" horiz-adv-x="476" 
d="M495 708l-12 -70l-335 -638h-93l338 632h-270l13 76h359z" />
    <glyph glyph-name="eight" unicode="8" horiz-adv-x="476" 
d="M472 569c0 -87 -46 -163 -124 -191l-1 -2c54 -21 85 -72 85 -142c0 -139 -84 -247 -224 -247c-115 0 -172 72 -172 169c0 101 61 199 148 220l1 2c-47 25 -71 70 -71 124c0 114 66 220 199 220c117 0 159 -71 159 -153zM345 236c0 63 -31 105 -89 105
c-75 0 -134 -82 -134 -174c0 -61 28 -111 93 -111c87 0 130 90 130 180zM389 564c0 54 -28 93 -81 93c-69 0 -112 -74 -112 -153c0 -52 26 -96 77 -96c70 0 116 82 116 156z" />
    <glyph glyph-name="nine" unicode="9" horiz-adv-x="476" 
d="M85 444c0 145 83 276 226 276c117 0 174 -75 174 -183c0 -92 -36 -168 -90 -248l-195 -289h-93l207 299l-1 1c-24 -22 -52 -31 -81 -31c-79 0 -147 52 -147 175zM173 447c0 -65 26 -112 85 -112c87 0 141 95 141 195c0 69 -32 118 -91 118c-86 0 -135 -102 -135 -201z
" />
    <glyph glyph-name="colon" unicode=":" horiz-adv-x="262" 
d="M225 453c0 -37 -26 -66 -61 -66c-30 0 -48 24 -48 50c0 33 25 66 60 66c30 0 49 -21 49 -50zM156 65c0 -37 -26 -66 -61 -66c-30 0 -48 24 -48 50c0 33 25 66 60 66c30 0 49 -21 49 -50z" />
    <glyph glyph-name="semicolon" unicode=";" horiz-adv-x="262" 
d="M168 126l-117 -255h-66l103 255h80zM225 453c0 -37 -26 -66 -61 -66c-30 0 -48 24 -48 50c0 33 25 66 60 66c30 0 49 -21 49 -50z" />
    <glyph glyph-name="less" unicode="&#x3c;" horiz-adv-x="666" 
d="M589 564v-85l-385 -176l383 -176v-85l-508 231v60z" />
    <glyph glyph-name="equal" unicode="=" horiz-adv-x="666" 
d="M70 426h526v-81h-526v81zM70 261h526v-81h-526v81z" />
    <glyph glyph-name="greater" unicode="&#x3e;" horiz-adv-x="666" 
d="M79 479v85l508 -231v-60l-508 -231v85l383 176z" />
    <glyph glyph-name="question" unicode="?" horiz-adv-x="375" 
d="M417 578c0 -90 -57 -148 -117 -200c-52 -45 -68 -74 -76 -124l-6 -37h-71l8 48c9 56 33 108 85 154l27 24c40 35 69 67 69 127c0 48 -28 82 -73 82c-60 0 -94 -54 -109 -101l-70 19c27 85 89 155 195 155c105 0 138 -84 138 -147zM221 59c0 -37 -26 -66 -61 -66
c-30 0 -48 24 -48 50c0 33 25 66 60 66c30 0 49 -21 49 -50z" />
    <glyph glyph-name="at" unicode="@" horiz-adv-x="634" 
d="M642 483c0 -148 -76 -323 -201 -323c-42 0 -65 24 -64 73h-1c-20 -32 -55 -73 -106 -73c-57 0 -83 50 -83 112c0 123 85 286 192 286c46 0 66 -31 64 -69h3l18 45h63l-62 -164c-13 -35 -29 -80 -29 -115c0 -18 6 -29 24 -29c74 0 120 159 120 253c0 117 -58 189 -177 189
c-170 0 -291 -206 -291 -394c0 -134 65 -232 203 -232c76 0 137 33 180 74l29 -51c-59 -50 -124 -84 -221 -84c-178 0 -257 126 -257 288c0 224 149 458 362 458c157 0 234 -96 234 -244zM417 438c0 31 -11 54 -41 54c-61 0 -118 -124 -118 -206c0 -33 12 -60 42 -60
c63 0 117 151 117 212z" />
    <glyph glyph-name="A" unicode="A" horiz-adv-x="481" 
d="M431 0h-87l-7 168h-210l-74 -168h-88l318 708h113zM338 236l-12 392h-4l-169 -392h185z" />
    <glyph glyph-name="B" unicode="B" horiz-adv-x="494" 
d="M485 555c0 -104 -60 -164 -127 -183v-2c45 -7 97 -54 97 -139c0 -155 -110 -231 -228 -231h-189l123 708h163c80 0 161 -46 161 -153zM370 232c0 75 -56 103 -107 103h-86l-46 -262h90c88 0 149 58 149 159zM401 544c0 62 -44 91 -99 91h-73l-40 -232h79
c65 0 133 46 133 141z" />
    <glyph glyph-name="C" unicode="C" horiz-adv-x="479" 
d="M539 641l-64 -58c-23 41 -57 62 -104 62c-140 0 -222 -226 -222 -393c0 -110 38 -190 123 -190c59 0 100 37 125 67l46 -56c-48 -55 -106 -90 -187 -90c-128 0 -198 111 -198 265c0 234 132 476 323 476c71 0 128 -28 158 -83z" />
    <glyph glyph-name="D" unicode="D" horiz-adv-x="545" 
d="M533 438c0 -241 -120 -438 -335 -438h-160l123 708h160c147 0 212 -112 212 -270zM446 433c0 125 -48 200 -139 200h-75l-96 -558h75c139 0 235 163 235 358z" />
    <glyph glyph-name="E" unicode="E" horiz-adv-x="416" 
d="M449 708l-13 -76h-206l-40 -229h196l-13 -71h-195l-44 -255h222l-13 -77h-305l123 708h288z" />
    <glyph glyph-name="F" unicode="F" horiz-adv-x="399" 
d="M455 708l-14 -78h-209l-41 -233h195l-13 -75h-194l-56 -322h-85l123 708h294z" />
    <glyph glyph-name="G" unicode="G" horiz-adv-x="534" 
d="M539 639l-65 -58c-21 43 -57 65 -103 65c-141 0 -222 -233 -222 -397c0 -111 40 -186 125 -186c39 0 74 12 95 28l39 222h-95l14 75h177l-59 -344c-47 -34 -107 -59 -185 -59c-132 0 -202 105 -202 262c0 225 131 477 323 477c74 0 129 -28 158 -85z" />
    <glyph glyph-name="H" unicode="H" horiz-adv-x="577" 
d="M584 708l-123 -708h-85l58 329h-253l-57 -329h-86l123 708h86l-53 -303h252l52 303h86z" />
    <glyph glyph-name="I" unicode="I" horiz-adv-x="240" 
d="M247 708l-123 -708h-86l123 708h86z" />
    <glyph glyph-name="J" unicode="J" horiz-adv-x="389" 
d="M403 708l-90 -513c-24 -135 -71 -212 -184 -212c-86 0 -133 51 -149 113l73 31c9 -31 31 -65 77 -65c66 0 84 55 99 142l88 504h86z" />
    <glyph glyph-name="K" unicode="K" horiz-adv-x="492" 
d="M554 708l-288 -335l180 -373h-96l-164 357h-2l-62 -357h-84l123 708h84l-55 -316h2l262 316h100z" />
    <glyph glyph-name="L" unicode="L" horiz-adv-x="370" 
d="M338 80l-14 -80h-286l123 708h86l-109 -628h200z" />
    <glyph glyph-name="M" unicode="M" horiz-adv-x="721" 
d="M603 0h-85l103 586h-3l-261 -586h-81l-53 586h-3l-103 -586h-79l125 708h126l51 -562h4l249 562h135z" />
    <glyph glyph-name="N" unicode="N" horiz-adv-x="567" 
d="M574 708l-123 -708h-101l-134 557h-3l-96 -557h-79l123 708h103l130 -558h3l98 558h79z" />
    <glyph glyph-name="O" unicode="O" horiz-adv-x="573" 
d="M561 461c0 -228 -120 -478 -305 -478c-127 0 -198 105 -198 259c0 227 114 482 305 482c131 0 198 -108 198 -263zM468 448c0 97 -16 199 -110 199c-134 0 -209 -245 -209 -410c0 -96 30 -175 113 -175c127 0 206 217 206 386z" />
    <glyph glyph-name="P" unicode="P" horiz-adv-x="470" 
d="M487 544c0 -151 -86 -238 -213 -238h-98l-53 -306h-85l123 708h163c93 0 163 -52 163 -164zM402 533c0 61 -29 101 -92 101h-77l-44 -257h83c81 0 130 59 130 156z" />
    <glyph glyph-name="Q" unicode="Q" horiz-adv-x="577" 
d="M58 242c0 227 114 482 305 482c131 0 197 -108 197 -261c0 -140 -67 -337 -169 -386v-2h137l-12 -75h-262c-129 0 -196 87 -196 242zM148 237c0 -97 41 -156 115 -156c128 0 207 211 207 367c0 97 -16 199 -110 199c-134 0 -212 -245 -212 -410z" />
    <glyph glyph-name="R" unicode="R" horiz-adv-x="487" 
d="M497 547c0 -115 -65 -196 -156 -218l94 -329h-90l-84 318h-84l-55 -318h-84l123 708h163c110 0 173 -53 173 -161zM414 536c0 70 -43 99 -101 99h-81l-43 -250h85c80 0 140 59 140 151z" />
    <glyph glyph-name="S" unicode="S" horiz-adv-x="434" 
d="M463 661l-58 -61c-25 32 -57 47 -99 47c-56 0 -123 -44 -123 -136c0 -57 32 -89 81 -119c63 -39 124 -90 124 -184c0 -143 -94 -225 -215 -225c-72 0 -139 33 -173 79l58 62c27 -38 68 -62 115 -62c67 0 128 45 128 129c0 58 -29 96 -90 133c-59 36 -114 84 -114 180
c0 136 97 221 213 221c66 0 121 -23 153 -64z" />
    <glyph glyph-name="T" unicode="T" horiz-adv-x="349" 
d="M434 708l-13 -74h-135l-111 -634h-85l111 634h-136l13 74h356z" />
    <glyph glyph-name="U" unicode="U" horiz-adv-x="551" 
d="M569 708l-81 -464c-25 -144 -88 -261 -244 -261c-126 0 -181 81 -181 185c0 22 2 47 7 76l81 464h86l-80 -455c-4 -24 -7 -49 -7 -72c0 -64 22 -119 99 -119c102 0 137 94 154 191l80 455h86z" />
    <glyph glyph-name="V" unicode="V" horiz-adv-x="471" 
d="M550 708l-301 -708h-111l-51 708h93l31 -609h2l245 609h92z" />
    <glyph glyph-name="W" unicode="W" horiz-adv-x="738" 
d="M810 708l-260 -708h-111l-7 580h-2l-209 -580h-110l-14 708h88l3 -596h3l214 596h101l10 -596h2l208 596h84z" />
    <glyph glyph-name="X" unicode="X" horiz-adv-x="465" 
d="M524 708l-220 -335l115 -373h-92l-81 301l-188 -301h-92l244 374l-103 334h89l72 -267l165 267h91z" />
    <glyph glyph-name="Y" unicode="Y" horiz-adv-x="425" 
d="M509 708l-252 -423l-49 -285h-85l49 285l-102 423h91l66 -335h2l185 335h95z" />
    <glyph glyph-name="Z" unicode="Z" horiz-adv-x="405" 
d="M454 708l-12 -73l-346 -557h252l-13 -78h-349l12 73l348 559h-236l13 76h331z" />
    <glyph glyph-name="bracketleft" unicode="[" horiz-adv-x="248" 
d="M134 -156h-166l157 888h166l-11 -63h-90l-134 -762h90z" />
    <glyph glyph-name="backslash" unicode="\" horiz-adv-x="244" 
d="M96 747l59 12l42 -781l-60 -12z" />
    <glyph glyph-name="bracketright" unicode="]" horiz-adv-x="248" 
d="M-19 -156l12 63h90l134 762h-90l11 63h165l-157 -888h-165z" />
    <glyph glyph-name="asciicircum" unicode="^" horiz-adv-x="666" 
d="M74 309l226 399h66l226 -399h-91l-169 300l-167 -300h-91z" />
    <glyph glyph-name="underscore" unicode="_" horiz-adv-x="500" 
d="M0 -138v63h500v-63h-500z" />
    <glyph glyph-name="quoteleft" unicode="&#x2018;" horiz-adv-x="192" 
d="M240 708l-87 -242h-74l97 242h64z" />
    <glyph glyph-name="a" unicode="a" horiz-adv-x="409" 
d="M370 385c0 -24 -3 -47 -8 -76l-35 -204c-4 -24 -13 -86 -14 -105h-69c1 19 8 63 12 85h-2c-25 -62 -68 -98 -131 -98c-57 0 -102 38 -102 118c0 159 130 205 233 205h34c6 37 8 49 8 60c0 54 -26 78 -68 78c-37 0 -74 -21 -102 -51l-36 50c38 43 100 71 152 71
c88 0 128 -50 128 -133zM280 248h-38c-69 0 -145 -31 -145 -131c0 -44 24 -64 54 -64c71 0 111 94 123 165z" />
    <glyph glyph-name="b" unicode="b" horiz-adv-x="478" 
d="M445 344c0 -163 -82 -361 -211 -361c-68 0 -98 43 -105 98h-2l-14 -81h-79l132 756h81l-58 -330h2c25 54 69 92 127 92c83 0 127 -69 127 -174zM360 334c0 67 -21 113 -70 113c-87 0 -140 -164 -140 -274c0 -70 21 -118 71 -118c90 0 139 170 139 279z" />
    <glyph glyph-name="c" unicode="c" horiz-adv-x="338" 
d="M372 479l-46 -61c-13 15 -31 27 -64 27c-87 0 -139 -162 -139 -274c0 -69 18 -112 82 -112c26 0 47 10 70 28l29 -65c-31 -25 -71 -39 -109 -39c-108 0 -156 79 -156 183c0 166 81 352 227 352c59 0 88 -21 106 -39z" />
    <glyph glyph-name="d" unicode="d" horiz-adv-x="472" 
d="M493 756l-132 -756h-79l14 81h-1c-26 -55 -66 -98 -135 -98c-81 0 -121 72 -121 178c0 163 82 357 214 357c59 0 94 -38 100 -92h2l57 330h81zM333 327c0 71 -22 120 -71 120c-90 0 -139 -169 -139 -279c0 -67 21 -113 70 -113c87 0 140 163 140 272z" />
    <glyph glyph-name="e" unicode="e" horiz-adv-x="431" 
d="M401 355c0 -26 -1 -55 -13 -126h-261c-3 -20 -5 -40 -5 -58c0 -66 23 -112 76 -112c45 0 76 33 98 71l58 -37c-37 -64 -88 -110 -165 -110c-93 0 -150 67 -150 183c0 172 89 352 226 352c97 0 136 -67 136 -163zM324 353c0 56 -20 92 -65 92c-68 0 -109 -93 -119 -149
h178c4 22 6 40 6 57z" />
    <glyph glyph-name="f" unicode="f" horiz-adv-x="248" 
d="M346 768l-12 -67c-7 2 -17 4 -28 4c-53 0 -74 -55 -84 -110l-16 -94h82l-11 -66h-82l-75 -435h-80l75 435h-65l11 66h65l17 94c18 104 67 179 163 179c15 0 28 -2 40 -6z" />
    <glyph glyph-name="g" unicode="g" horiz-adv-x="472" 
d="M443 501l-87 -500c-24 -136 -81 -241 -222 -241c-66 0 -127 31 -159 75l55 57c25 -32 63 -58 112 -58c84 0 118 73 134 167l15 80h-2c-26 -55 -59 -98 -128 -98c-81 0 -128 72 -128 179c0 163 78 356 211 356c58 0 98 -38 104 -92h3l13 75h79zM327 327
c0 71 -22 120 -71 120c-90 0 -139 -169 -139 -279c0 -67 21 -113 70 -113c87 0 140 162 140 272z" />
    <glyph glyph-name="h" unicode="h" horiz-adv-x="481" 
d="M432 396c0 -18 -3 -49 -8 -76l-55 -320h-82l55 320c3 18 6 37 6 56c0 38 -12 69 -56 69c-59 0 -111 -67 -126 -157l-50 -288h-82l131 756h82l-60 -342h2c25 57 76 104 138 104c77 0 105 -60 105 -122z" />
    <glyph glyph-name="i" unicode="i" horiz-adv-x="226" 
d="M201 501l-87 -501h-81l87 501h81zM236 658c0 -35 -25 -63 -58 -63c-29 0 -46 23 -46 48c0 32 24 63 57 63c29 0 47 -20 47 -48z" />
    <glyph glyph-name="j" unicode="j" horiz-adv-x="227" 
d="M106 -62c-19 -105 -59 -178 -163 -178c-10 0 -26 2 -39 5l12 78c9 -3 21 -4 29 -4c53 0 69 49 79 105l98 557h83zM237 658c0 -35 -25 -63 -58 -63c-29 0 -46 23 -46 48c0 32 24 63 57 63c29 0 47 -20 47 -48z" />
    <glyph glyph-name="k" unicode="k" horiz-adv-x="419" 
d="M449 501l-215 -237l138 -264h-91l-123 248h-2l-41 -248h-81l131 756h81l-84 -473h2l186 218h99z" />
    <glyph glyph-name="l" unicode="l" horiz-adv-x="226" 
d="M247 756l-131 -756h-82l131 756h82z" />
    <glyph glyph-name="m" unicode="m" horiz-adv-x="727" 
d="M423 404h2c24 59 74 114 148 114c77 0 105 -60 105 -122c0 -18 -3 -49 -8 -76l-55 -320h-82l55 320c3 18 6 37 6 56c0 38 -12 69 -56 69c-49 0 -98 -56 -118 -125l-55 -320h-82l55 320c3 18 6 37 6 56c0 38 -12 69 -56 69c-59 0 -111 -67 -126 -157l-50 -288h-81l65 374
c3 21 16 108 19 127h80c-2 -19 -8 -57 -13 -89h2c26 59 77 106 139 106c77 0 99 -52 100 -114z" />
    <glyph glyph-name="n" unicode="n" horiz-adv-x="477" 
d="M162 288l-50 -288h-81l65 374c3 21 16 108 19 127h80c-2 -19 -8 -57 -13 -89h2c26 59 77 106 139 106c77 0 105 -60 105 -122c0 -18 -3 -49 -8 -76l-55 -320h-82l55 320c3 18 6 37 6 56c0 38 -12 69 -56 69c-59 0 -111 -67 -126 -157z" />
    <glyph glyph-name="o" unicode="o" horiz-adv-x="449" 
d="M416 333c0 -171 -90 -350 -229 -350c-92 0 -148 73 -148 186c0 173 90 349 229 349c92 0 148 -72 148 -185zM332 330c0 70 -22 117 -71 117c-87 0 -138 -168 -138 -278c0 -68 21 -114 70 -114c89 0 139 164 139 275z" />
    <glyph glyph-name="p" unicode="p" horiz-adv-x="478" 
d="M445 339c0 -163 -77 -356 -209 -356c-59 0 -99 39 -105 92h-2l-54 -315h-81l129 741h79l-14 -80h1c26 55 61 97 130 97c81 0 126 -72 126 -179zM361 334c0 67 -21 113 -70 113c-87 0 -140 -163 -140 -272c0 -72 22 -120 71 -120c90 0 139 169 139 279z" />
    <glyph glyph-name="q" unicode="q" horiz-adv-x="479" 
d="M450 501l-128 -741h-82l55 315h-2c-25 -53 -69 -92 -127 -92c-82 0 -127 69 -127 173c0 163 81 362 211 362c68 0 98 -42 105 -97h2l14 80h79zM334 329c0 70 -21 118 -71 118c-90 0 -139 -170 -139 -279c0 -67 21 -113 70 -113c87 0 140 163 140 274z" />
    <glyph glyph-name="r" unicode="r" horiz-adv-x="276" 
d="M322 513l-18 -84c-5 1 -10 2 -17 2c-64 0 -115 -89 -130 -177l-44 -254h-82l65 374c3 21 17 108 19 127h79c-2 -19 -13 -85 -17 -106h3c31 81 81 119 131 119c4 0 8 0 11 -1z" />
    <glyph glyph-name="s" unicode="s" horiz-adv-x="347" 
d="M349 474l-46 -56c-17 23 -43 35 -80 35c-43 0 -82 -32 -82 -84c0 -44 22 -59 64 -82c54 -30 95 -67 95 -135c0 -115 -82 -169 -175 -169c-58 0 -110 27 -137 63l54 53c19 -24 46 -48 91 -48c48 0 87 32 87 88c0 47 -34 74 -74 94c-47 24 -83 62 -83 126
c0 99 76 159 170 159c55 0 93 -19 116 -44z" />
    <glyph glyph-name="t" unicode="t" horiz-adv-x="258" 
d="M285 501l-12 -66h-84l-50 -294c-2 -13 -4 -28 -4 -38c0 -33 14 -43 40 -43c12 0 28 4 38 8l-8 -65c-17 -6 -38 -11 -57 -11c-65 0 -95 36 -95 92c0 11 1 24 4 41l54 310h-69l11 66h67l23 134h79l-22 -134h85z" />
    <glyph glyph-name="u" unicode="u" horiz-adv-x="477" 
d="M317 213l50 288h81l-65 -374c-3 -21 -16 -108 -19 -127h-80c2 19 8 57 13 89h-2c-26 -59 -77 -106 -139 -106c-77 0 -105 60 -105 122c0 18 3 49 8 76l55 320h82l-55 -320c-3 -18 -6 -37 -6 -56c0 -38 12 -69 56 -69c59 0 111 67 126 157z" />
    <glyph glyph-name="v" unicode="v" horiz-adv-x="390" 
d="M423 501l-223 -501h-96l-43 501h83l21 -415h2l169 415h87z" />
    <glyph glyph-name="w" unicode="w" horiz-adv-x="594" 
d="M621 501l-193 -501h-94l-12 385l-147 -385h-91l-16 501h82v-407h2l154 407h76l13 -407h1l143 407h82z" />
    <glyph glyph-name="x" unicode="x" horiz-adv-x="381" 
d="M402 501l-162 -237l88 -264h-88l-56 198l-125 -198h-89l178 263l-81 238h88l49 -177l109 177h89z" />
    <glyph glyph-name="y" unicode="y" horiz-adv-x="390" 
d="M423 501l-258 -595c-39 -90 -79 -146 -159 -146c-18 0 -34 3 -47 8l16 73c8 -4 18 -6 31 -6c39 0 60 25 78 69l34 81l-58 516h85l30 -406h2l162 406h84z" />
    <glyph glyph-name="z" unicode="z" horiz-adv-x="341" 
d="M357 501l-12 -68l-265 -363h204l-13 -70h-291l13 70l263 361h-184l12 70h273z" />
    <glyph glyph-name="braceleft" unicode="{" horiz-adv-x="248" 
d="M289 732l-11 -63h-34c-40 0 -58 -35 -67 -86l-31 -177c-14 -81 -54 -111 -84 -117v-2c23 -5 47 -26 47 -78c0 -11 -1 -24 -4 -39l-31 -177c-2 -13 -4 -26 -4 -37c0 -31 11 -49 41 -49h34l-11 -63h-54c-58 0 -83 34 -83 95c0 15 2 32 5 50l29 169c3 17 4 32 4 44
c0 41 -16 52 -40 52l10 68c32 0 58 18 71 96l29 169c16 92 58 145 130 145h54z" />
    <glyph glyph-name="bar" unicode="|" horiz-adv-x="222" 
d="M70 750h82v-1000h-82v1000z" />
    <glyph glyph-name="braceright" unicode="}" horiz-adv-x="248" 
d="M-26 -156l11 63h34c40 0 58 35 67 86l31 177c14 81 54 111 84 117v2c-23 5 -47 26 -47 78c0 11 1 24 4 39l31 177c2 13 4 26 4 37c0 31 -11 49 -41 49h-34l11 63h54c58 0 83 -34 83 -95c0 -15 -2 -32 -5 -50l-29 -169c-3 -17 -4 -32 -4 -44c0 -41 16 -52 40 -52l-10 -68
c-32 0 -58 -18 -71 -96l-29 -169c-16 -92 -58 -145 -130 -145h-54z" />
    <glyph glyph-name="asciitilde" unicode="~" horiz-adv-x="666" 
d="M340 346c52 -33 70 -39 99 -39c33 0 63 24 87 68l59 -55c-47 -78 -99 -97 -144 -97c-39 0 -69 9 -116 38c-51 32 -69 38 -98 38c-33 0 -63 -24 -87 -68l-59 55c47 78 99 98 144 98c40 0 70 -9 115 -38z" />
    <glyph glyph-name="exclamdown" unicode="&#xa1;" horiz-adv-x="296" 
d="M30 -193l85 491h82l-85 -491h-82zM127 456c0 37 26 66 61 66c30 0 48 -24 48 -50c0 -33 -25 -66 -60 -66c-30 0 -49 21 -49 50z" />
    <glyph glyph-name="cent" unicode="&#xa2;" horiz-adv-x="476" 
d="M431 463l-44 -58c-12 17 -36 33 -70 35l-67 -384c36 1 64 20 87 46l24 -54c-30 -34 -74 -57 -122 -59l-11 -61h-43l11 61c-89 6 -130 77 -130 180c0 151 83 339 220 341l12 66h43l-12 -66c50 -2 84 -22 102 -47zM275 440c-92 -4 -139 -161 -139 -261
c0 -65 21 -114 73 -119z" />
    <glyph glyph-name="sterling" unicode="&#xa3;" horiz-adv-x="476" 
d="M490 688l-46 -65c-13 16 -36 28 -70 28c-75 0 -103 -78 -117 -156l-17 -95h132l-11 -66h-131l-44 -257h198l-14 -77h-373l14 77h92l44 257h-86l12 66h84l18 104c19 112 73 223 205 223c50 0 90 -17 110 -39z" />
    <glyph glyph-name="fraction" unicode="&#x2044;" horiz-adv-x="100" 
d="M298 722l-408 -745l-52 15l409 745z" />
    <glyph glyph-name="yen" unicode="&#xa5;" horiz-adv-x="476" 
d="M336 393h108l-10 -60h-142l-18 -103h142l-11 -60h-141l-30 -170h-85l30 170h-142l11 60h141l18 103h-141l10 61h111l-87 314h88l73 -311l183 311h90z" />
    <glyph glyph-name="florin" unicode="&#x192;" horiz-adv-x="476" 
d="M525 700l-32 -69c-12 10 -29 16 -46 16c-50 0 -75 -41 -93 -94l-45 -130h105l-12 -64h-115l-121 -355c-29 -86 -73 -146 -155 -146c-22 0 -46 3 -61 11l24 72c8 -5 18 -8 29 -8c51 0 69 44 90 107l108 319h-95l12 64h103l41 122c32 96 74 178 181 178c36 0 66 -10 82 -23
z" />
    <glyph glyph-name="section" unicode="&#xa7;" horiz-adv-x="482" 
d="M483 671l-52 -53c-20 25 -55 43 -100 43c-50 0 -114 -33 -114 -101c0 -55 31 -76 112 -118c66 -34 105 -81 105 -143c0 -84 -59 -136 -123 -148c34 -21 58 -63 58 -108c0 -130 -106 -184 -201 -184c-69 0 -136 27 -167 76l54 55c25 -40 68 -63 119 -63
c62 0 116 32 116 105c0 52 -34 77 -118 116c-65 31 -100 66 -100 133c0 84 61 142 125 158c-36 23 -58 63 -58 102c0 112 85 187 198 187c72 0 116 -20 146 -57zM361 292c0 43 -36 72 -77 93l-39 20c-50 -5 -100 -45 -100 -110c0 -54 33 -73 72 -91l44 -20
c48 4 100 42 100 108z" />
    <glyph glyph-name="currency" unicode="&#xa4;" horiz-adv-x="890" 
d="M661 465c31 -41 48 -94 48 -156c0 -63 -18 -118 -51 -161l93 -93c-18 -19 -37 -38 -56 -56c-32 30 -64 62 -96 94c-41 -30 -94 -47 -153 -47c-57 0 -108 16 -154 49c-33 -33 -66 -65 -98 -96c-19 18 -37 37 -56 56c32 32 63 64 95 96c-31 41 -49 95 -49 158
c0 60 17 112 46 154c-31 30 -61 61 -92 92c19 18 38 38 57 56c31 -30 62 -61 93 -92c43 32 97 50 158 50c60 0 114 -17 157 -49c30 31 61 61 91 91c19 -18 39 -38 57 -56zM446 478c-99 0 -163 -77 -163 -169c0 -94 64 -171 163 -171s164 77 164 171c0 92 -65 169 -164 169z
" />
    <glyph glyph-name="quotesingle" unicode="'" horiz-adv-x="217" 
d="M183 457h-67l44 251h67z" />
    <glyph glyph-name="quotedblleft" unicode="&#x201c;" horiz-adv-x="329" 
d="M377 708l-87 -242h-74l96 242h65zM240 708l-87 -242h-74l97 242h64z" />
    <glyph glyph-name="guillemotleft" unicode="&#xab;" horiz-adv-x="356" 
d="M171 253l139 212l47 -31l-121 -189l54 -185l-55 -23zM33 253l138 212l47 -31l-121 -189l54 -185l-55 -23z" />
    <glyph glyph-name="guilsinglleft" unicode="&#x2039;" horiz-adv-x="217" 
d="M33 253l138 212l47 -31l-121 -189l54 -185l-55 -23z" />
    <glyph glyph-name="guilsinglright" unicode="&#x203a;" horiz-adv-x="217" 
d="M187 249l-138 -212l-47 31l121 189l-54 185l55 23z" />
    <glyph glyph-name="endash" unicode="&#x2013;" horiz-adv-x="354" 
d="M333 229h-312l13 71h312z" />
    <glyph glyph-name="dagger" unicode="&#x2020;" horiz-adv-x="373" 
d="M403 432h-142l-99 -560h-75l99 560h-142l13 72h142l36 204h75l-36 -204h142z" />
    <glyph glyph-name="daggerdbl" unicode="&#x2021;" horiz-adv-x="373" 
d="M338 65h-142l-34 -193h-75l34 193h-142l13 71h142l54 308h-142l13 70h142l34 194h75l-34 -194h142l-13 -70h-142l-54 -308h142z" />
    <glyph glyph-name="periodcentered" unicode="&#xb7;" horiz-adv-x="222" 
d="M173 269c0 -37 -26 -66 -61 -66c-30 0 -48 24 -48 50c0 33 25 66 60 66c30 0 49 -21 49 -50z" />
    <glyph glyph-name="paragraph" unicode="&#xb6;" horiz-adv-x="600" 
d="M523 708v-834h-78v771h-115v-771h-79v453c-126 0 -212 80 -212 184c0 132 91 197 231 197h253z" />
    <glyph glyph-name="bullet" unicode="&#x2022;" horiz-adv-x="500" 
d="M73 354c0 98 79 177 177 177s177 -79 177 -177s-79 -177 -177 -177s-177 79 -177 177z" />
    <glyph glyph-name="quotesinglbase" unicode="&#x201a;" horiz-adv-x="192" 
d="M140 115l-95 -242h-65l86 242h74z" />
    <glyph glyph-name="quotedblbase" unicode="&#x201e;" horiz-adv-x="327" 
d="M270 115l-95 -242h-65l86 242h74zM135 115l-95 -242h-65l86 242h74z" />
    <glyph glyph-name="quotedblright" unicode="&#x201d;" horiz-adv-x="327" 
d="M375 708l-96 -242h-65l87 242h74zM240 708l-96 -242h-65l87 242h74z" />
    <glyph glyph-name="guillemotright" unicode="&#xbb;" horiz-adv-x="356" 
d="M188 249l-139 -212l-47 31l121 189l-54 185l55 23zM326 249l-138 -212l-47 31l121 189l-54 185l55 23z" />
    <glyph glyph-name="ellipsis" unicode="&#x2026;" horiz-adv-x="900" 
d="M174 59c0 -37 -26 -66 -61 -66c-30 0 -48 24 -48 50c0 33 25 66 60 66c30 0 49 -21 49 -50zM774 59c0 -37 -26 -66 -61 -66c-30 0 -48 24 -48 50c0 33 25 66 60 66c30 0 49 -21 49 -50zM474 59c0 -37 -26 -66 -61 -66c-30 0 -48 24 -48 50c0 33 25 66 60 66
c30 0 49 -21 49 -50z" />
    <glyph glyph-name="perthousand" unicode="&#x2030;" horiz-adv-x="891" 
d="M345 595c0 -111 -66 -227 -161 -227c-64 0 -100 51 -100 126c0 112 67 228 162 228c65 0 99 -51 99 -127zM279 591c0 43 -14 72 -44 72c-52 0 -84 -96 -84 -163c0 -43 14 -72 43 -72c53 0 85 97 85 163zM577 215c0 -111 -66 -227 -161 -227c-64 0 -100 51 -100 126
c0 112 67 228 162 228c65 0 99 -51 99 -127zM511 211c0 43 -14 72 -44 72c-52 0 -84 -96 -84 -163c0 -43 14 -72 43 -72c53 0 85 97 85 163zM868 215c0 -111 -66 -227 -161 -227c-64 0 -100 51 -100 126c0 112 67 228 162 228c65 0 99 -51 99 -127zM802 211
c0 43 -14 72 -44 72c-52 0 -84 -96 -84 -163c0 -43 14 -72 43 -72c53 0 85 97 85 163zM558 720l-410 -743l-48 17l411 743z" />
    <glyph glyph-name="questiondown" unicode="&#xbf;" horiz-adv-x="375" 
d="M-33 -63c0 90 57 148 117 200c52 45 68 74 76 124l6 37h71l-8 -48c-9 -56 -33 -108 -85 -154l-27 -24c-40 -35 -69 -67 -69 -127c0 -48 28 -82 73 -82c60 0 94 54 109 101l70 -19c-27 -85 -89 -155 -195 -155c-105 0 -138 84 -138 147zM163 456c0 37 26 66 61 66
c30 0 48 -24 48 -50c0 -33 -25 -66 -60 -66c-30 0 -49 21 -49 50z" />
    <glyph glyph-name="grave" unicode="`" 
d="M47 715h84l103 -144h-67z" />
    <glyph glyph-name="acute" unicode="&#xb4;" 
d="M318 715l-132 -144h-67l115 144h84z" />
    <glyph glyph-name="circumflex" unicode="&#x2c6;" 
d="M320 571h-70l-54 101l-88 -101h-77l130 144h80z" />
    <glyph glyph-name="tilde" unicode="&#x2dc;" 
d="M331 689c-15 -67 -51 -106 -95 -106c-22 0 -37 6 -61 24c-26 20 -35 22 -51 22c-20 0 -33 -16 -42 -46h-45c15 65 51 106 95 106c24 0 39 -7 62 -24c27 -19 36 -23 52 -23c21 0 32 14 41 47h44z" />
    <glyph glyph-name="macron" unicode="&#xaf;" 
d="M311 614h-258l10 57h258z" />
    <glyph glyph-name="breve" unicode="&#x2d8;" 
d="M334 708c-28 -95 -84 -133 -153 -133c-66 0 -116 38 -116 133h56c0 -52 28 -74 64 -74c44 0 74 20 93 74h56z" />
    <glyph glyph-name="dotaccent" unicode="&#x2d9;" 
d="M237 658c0 -35 -25 -63 -58 -63c-29 0 -46 23 -46 48c0 32 24 63 57 63c29 0 47 -20 47 -48z" />
    <glyph glyph-name="dieresis" unicode="&#xa8;" 
d="M161 657c0 -32 -23 -58 -53 -58c-27 0 -43 22 -43 45c0 29 22 57 53 57c26 0 43 -18 43 -44zM315 657c0 -32 -23 -58 -53 -58c-27 0 -43 22 -43 45c0 29 22 57 53 57c26 0 43 -18 43 -44z" />
    <glyph glyph-name="ring" unicode="&#x2da;" 
d="M286 674c0 -63 -46 -118 -106 -118c-54 0 -82 35 -82 84c0 66 43 121 102 121c57 0 86 -39 86 -87zM247 671c0 28 -15 54 -48 54c-40 0 -63 -41 -63 -82c0 -28 15 -51 47 -51c38 0 64 40 64 79z" />
    <glyph glyph-name="cedilla" unicode="&#xb8;" 
d="M111 0l-56 -72c9 3 18 3 31 3c36 0 74 -20 65 -72c-12 -69 -80 -89 -130 -89c-27 0 -62 6 -87 19l24 41c18 -10 43 -14 66 -14c20 0 57 10 63 41c4 25 -14 37 -41 37c-13 0 -29 -3 -42 -8l-16 17l75 97h48z" />
    <glyph glyph-name="hungarumlaut" unicode="&#x2dd;" 
d="M241 715l-133 -144h-65l115 144h83zM378 715l-132 -144h-65l115 144h82z" />
    <glyph glyph-name="ogonek" unicode="&#x2db;" 
d="M119 -144l12 -42c-26 -22 -59 -36 -91 -36c-49 0 -85 28 -76 83c11 57 65 105 111 139h54c-59 -51 -91 -84 -97 -121c-5 -26 11 -44 35 -44c18 0 36 7 52 21z" />
    <glyph glyph-name="caron" unicode="&#x2c7;" 
d="M345 714l-129 -144h-80l-80 144h69l53 -101l89 101h78z" />
    <glyph glyph-name="emdash" unicode="&#x2014;" horiz-adv-x="454" 
d="M433 229h-412l13 71h412z" />
    <glyph glyph-name="AE" unicode="&#xc6;" horiz-adv-x="638" 
d="M671 708l-13 -76h-196l-40 -229h184l-12 -71h-184l-44 -255h211l-14 -77h-291l29 166h-169l-88 -166h-90l379 708h338zM382 633h-8l-208 -397h147z" />
    <glyph glyph-name="ordfeminine" unicode="&#xaa;" horiz-adv-x="298" 
d="M277 408h-50c1 9 4 35 6 46h-1c-13 -29 -37 -55 -77 -55c-30 0 -65 24 -65 72c0 97 75 125 143 125h20c9 56 -7 73 -36 73c-21 0 -43 -12 -60 -29l-28 38c27 27 65 43 97 43c57 0 85 -35 85 -82c0 -14 -2 -30 -5 -48l-21 -121c-2 -13 -7 -53 -8 -62zM243 535l3 17h-21
c-38 0 -78 -17 -78 -70c0 -24 13 -36 29 -36c38 0 60 51 67 89z" />
    <glyph glyph-name="Lslash" unicode="&#x141;" horiz-adv-x="363" 
d="M189 376l150 127l-15 -81l-149 -127l-37 -215h200l-14 -80h-286l40 228l-49 -43l14 81l48 42l70 400h86z" />
    <glyph glyph-name="Oslash" unicode="&#xd8;" horiz-adv-x="573" 
d="M561 461c0 -228 -120 -478 -305 -478c-58 0 -105 22 -138 60l-55 -82l-47 25l73 102c-21 42 -31 94 -31 154c0 227 114 482 305 482c54 0 97 -19 129 -51l50 73l45 -25l-64 -90c25 -45 38 -103 38 -170zM468 448c0 33 -2 67 -8 97l-288 -427c17 -34 46 -56 90 -56
c127 0 206 217 206 386zM149 237c0 -22 1 -43 5 -62l285 427c-16 27 -42 45 -81 45c-134 0 -209 -245 -209 -410z" />
    <glyph glyph-name="OE" unicode="&#x152;" horiz-adv-x="673" 
d="M706 708l-13 -76h-195l-40 -229h185l-13 -71h-185l-43 -255h210l-13 -77h-329c-136 0 -212 94 -212 253c0 226 125 455 335 455h313zM416 633h-35c-130 0 -236 -183 -236 -380c0 -125 57 -178 140 -178h35z" />
    <glyph glyph-name="ordmasculine" unicode="&#xba;" horiz-adv-x="298" 
d="M185 398c-62 0 -94 48 -94 117c0 105 56 207 141 207c62 0 95 -48 95 -117c0 -99 -46 -207 -142 -207zM190 451c48 0 76 91 76 152c0 39 -12 65 -39 65c-49 0 -75 -95 -75 -155c0 -37 11 -62 38 -62z" />
    <glyph glyph-name="ae" unicode="&#xe6;" horiz-adv-x="662" 
d="M132 -15c-61 0 -112 40 -112 120c0 156 128 191 231 191h34c8 51 10 63 10 74c0 54 -26 78 -68 78c-37 0 -74 -21 -102 -51l-36 50c38 43 100 71 152 71c77 0 111 -38 113 -100c31 61 82 100 143 100c97 0 135 -67 135 -163c0 -26 -1 -55 -13 -121h-263
c-3 -25 -5 -45 -5 -63c0 -66 23 -112 76 -112c45 0 76 33 98 71l58 -37c-37 -64 -88 -110 -165 -110c-76 0 -120 48 -129 118c-28 -75 -80 -116 -157 -116zM277 234h-38c-69 0 -143 -26 -143 -117c0 -44 24 -64 54 -64c71 0 111 94 121 150zM553 353c0 56 -20 92 -65 92
c-68 0 -109 -93 -119 -149h178c4 22 6 40 6 57z" />
    <glyph glyph-name="dotlessi" unicode="&#x131;" horiz-adv-x="226" 
d="M201 501l-87 -501h-81l87 501h81z" />
    <glyph glyph-name="lslash" unicode="&#x142;" horiz-adv-x="230" 
d="M196 460l56 50l-13 -76l-56 -49l-67 -385h-82l55 319l-47 -41l14 77l46 39l63 362h82z" />
    <glyph glyph-name="oslash" unicode="&#xf8;" horiz-adv-x="449" 
d="M416 333c0 -171 -90 -350 -229 -350c-40 0 -73 14 -98 38l-40 -63l-39 19l54 79c-16 30 -25 68 -25 113c0 173 90 349 229 349c39 0 71 -13 96 -36l38 57l38 -19l-50 -72c17 -30 26 -70 26 -115zM332 330c0 13 -1 26 -3 38l-191 -279c11 -22 29 -34 55 -34
c89 0 139 164 139 275zM123 169c0 -12 1 -22 2 -32l189 278c-11 20 -29 32 -53 32c-87 0 -138 -168 -138 -278z" />
    <glyph glyph-name="oe" unicode="&#x153;" horiz-adv-x="709" 
d="M395 425c34 58 89 94 149 94c97 0 135 -68 135 -164c0 -26 -1 -55 -13 -126h-263c-3 -20 -5 -40 -5 -58c0 -66 23 -112 76 -112c45 0 76 33 98 71l58 -37c-37 -64 -88 -110 -165 -110c-69 0 -112 34 -130 92c-32 -55 -83 -92 -148 -92c-92 0 -148 73 -148 186
c0 173 90 349 229 349c67 0 112 -31 127 -93zM332 330c0 70 -22 117 -71 117c-87 0 -138 -168 -138 -278c0 -68 21 -114 70 -114c89 0 139 164 139 275zM600 353c0 56 -20 92 -65 92c-68 0 -109 -93 -119 -149h178c4 22 6 40 6 57z" />
    <glyph glyph-name="germandbls" unicode="&#xdf;" horiz-adv-x="461" 
d="M463 615c0 -96 -48 -176 -139 -194c57 -14 103 -74 103 -162c0 -138 -75 -267 -222 -267c-17 0 -36 3 -49 6l12 69c13 -3 25 -4 34 -4c98 0 146 97 146 193c0 71 -34 127 -101 127h-15l12 69h15c70 0 128 68 128 154c0 44 -16 91 -71 91c-73 0 -103 -85 -118 -173
l-90 -524h-79l90 523c24 139 77 245 205 245c102 0 139 -75 139 -153z" />
    <glyph glyph-name="ydieresis.sc" horiz-adv-x="365" 
d="M427 556l-200 -339l-37 -217h-85l38 217l-80 339h90l45 -255h2l135 255h92zM237 702c0 -32 -23 -58 -53 -58c-27 0 -43 22 -43 45c0 29 22 57 53 57c26 0 43 -18 43 -44zM391 702c0 -32 -23 -58 -53 -58c-27 0 -43 22 -43 45c0 29 22 57 53 57c26 0 43 -18 43 -44z" />
    <glyph glyph-name="n.sc" horiz-adv-x="476" 
d="M469 556l-97 -556h-96l-93 408h-2l-70 -408h-77l96 556h97l92 -409h3l70 409h77z" />
    <glyph glyph-name="multiply" unicode="&#xd7;" horiz-adv-x="666" 
d="M162 531l171 -171l170 171l57 -56l-170 -171l172 -173l-59 -58l-171 170l-170 -170l-58 58l172 170l-171 174z" />
    <glyph glyph-name="greaterequal" unicode="&#x2265;" horiz-adv-x="666" 
d="M589 309l-512 -179v88l397 134l-397 137v89l512 -183v-86zM589 8h-512v84h512v-84z" />
    <glyph glyph-name="uhungarumlaut" unicode="&#x171;" horiz-adv-x="477" 
d="M317 213l50 288h81l-65 -374c-3 -21 -16 -108 -19 -127h-80c2 19 8 57 13 89h-2c-26 -59 -77 -106 -139 -106c-77 0 -105 60 -105 122c0 18 3 49 8 76l55 320h82l-55 -320c-3 -18 -6 -37 -6 -56c0 -38 12 -69 56 -69c59 0 111 67 126 157zM387 715l-133 -144h-65l115 144
h83zM524 715l-132 -144h-65l115 144h82z" />
    <glyph glyph-name="ograve" unicode="&#xf2;" horiz-adv-x="449" 
d="M416 333c0 -171 -90 -350 -229 -350c-92 0 -148 73 -148 186c0 173 90 349 229 349c92 0 148 -72 148 -185zM332 330c0 70 -22 117 -71 117c-87 0 -138 -168 -138 -278c0 -68 21 -114 70 -114c89 0 139 164 139 275zM133 715h84l103 -144h-67z" />
    <glyph glyph-name="umacron.sc" horiz-adv-x="470" 
d="M466 556l-63 -358c-21 -117 -70 -210 -198 -210c-104 0 -151 64 -151 149c0 18 1 38 5 61l63 358h85l-61 -350c-3 -19 -5 -39 -5 -56c0 -46 15 -85 68 -85c73 0 97 68 110 141l62 350h85zM438 659h-258l10 57h258z" />
    <glyph glyph-name="radical" unicode="&#x221a;" horiz-adv-x="515" 
d="M526 786l-211 -1000h-86l-158 328l-48 -23l-33 70l124 58l144 -302l178 869h90z" />
    <glyph glyph-name="notequal" unicode="&#x2260;" horiz-adv-x="666" 
d="M552 108h-286l-77 -149l-73 38l58 111h-134v84h177l63 123h-240v84h284l77 149l74 -37l-59 -112h136v-84h-179l-64 -123h243v-84z" />
    <glyph glyph-name="omacron" unicode="&#x14d;" horiz-adv-x="449" 
d="M416 333c0 -171 -90 -350 -229 -350c-92 0 -148 73 -148 186c0 173 90 349 229 349c92 0 148 -72 148 -185zM332 330c0 70 -22 117 -71 117c-87 0 -138 -168 -138 -278c0 -68 21 -114 70 -114c89 0 139 164 139 275zM420 614h-258l10 57h258z" />
    <glyph glyph-name="ohungarumlaut.sc" horiz-adv-x="481" 
d="M295 568c105 0 163 -81 163 -208c0 -179 -95 -372 -246 -372c-104 0 -162 82 -162 205c0 178 91 375 245 375zM288 493c-96 0 -151 -181 -151 -300c0 -71 22 -129 83 -129c96 0 151 181 151 300c0 71 -22 129 -83 129zM399 760l-133 -144h-65l115 144h83zM536 760
l-132 -144h-65l115 144h82z" />
    <glyph glyph-name="iogonek.sc" horiz-adv-x="223" 
d="M108 -144l12 -42c-26 -22 -59 -36 -91 -36c-45 0 -77 23 -77 69c0 61 65 116 112 153h-30l96 556h86l-98 -556c-60 -56 -98 -87 -98 -129c0 -25 15 -36 36 -36c18 0 36 7 52 21z" />
    <glyph glyph-name="ohungarumlaut" unicode="&#x151;" horiz-adv-x="449" 
d="M416 333c0 -171 -90 -350 -229 -350c-92 0 -148 73 -148 186c0 173 90 349 229 349c92 0 148 -72 148 -185zM332 330c0 70 -22 117 -71 117c-87 0 -138 -168 -138 -278c0 -68 21 -114 70 -114c89 0 139 164 139 275zM367 715l-133 -144h-65l115 144h83zM504 715
l-132 -144h-65l115 144h82z" />
    <glyph glyph-name="uniF8FF" unicode="&#xf8ff;" horiz-adv-x="512" 
d="M222 117h56v67h-56v-67zM225 234h46c0 35 2 59 6 72s18 30 43 52c51 47 63 77 63 120c0 79 -53 131 -124 131c-72 0 -126 -42 -135 -137l50 -8c8 68 41 95 82 95s76 -37 76 -85c0 -25 -7 -42 -50 -83c-22 -22 -37 -42 -46 -59s-13 -44 -13 -81zM462 50h-412v617h412v-617
zM512 718h-512v-718h512v718z" />
    <glyph glyph-name="p.sc" horiz-adv-x="398" 
d="M402 422c0 -125 -71 -192 -175 -192h-70l-40 -230h-83l96 556h138c73 0 134 -41 134 -134zM321 411c0 45 -21 74 -66 74h-54l-32 -187h58c58 0 94 43 94 113z" />
    <glyph glyph-name="macron.sc" 
d="M311 659h-258l10 57h258z" />
    <glyph glyph-name="otilde" unicode="&#xf5;" horiz-adv-x="449" 
d="M416 333c0 -171 -90 -350 -229 -350c-92 0 -148 73 -148 186c0 173 90 349 229 349c92 0 148 -72 148 -185zM332 330c0 70 -22 117 -71 117c-87 0 -138 -168 -138 -278c0 -68 21 -114 70 -114c89 0 139 164 139 275zM439 689c-15 -67 -51 -106 -95 -106
c-22 0 -37 6 -61 24c-26 20 -35 22 -51 22c-20 0 -33 -16 -42 -46h-45c15 65 51 106 95 106c24 0 39 -7 62 -24c27 -19 36 -23 52 -23c21 0 32 14 41 47h44z" />
    <glyph glyph-name="ugrave.sc" horiz-adv-x="470" 
d="M466 556l-63 -358c-21 -117 -70 -210 -198 -210c-104 0 -151 64 -151 149c0 18 1 38 5 61l63 358h85l-61 -350c-3 -19 -5 -39 -5 -56c0 -46 15 -85 68 -85c73 0 97 68 110 141l62 350h85zM151 760h84l103 -144h-67z" />
    <glyph glyph-name="ntilde" unicode="&#xf1;" horiz-adv-x="477" 
d="M162 288l-50 -288h-81l65 374c3 21 16 108 19 127h80c-2 -19 -8 -57 -13 -89h2c26 59 77 106 139 106c77 0 105 -60 105 -122c0 -18 -3 -49 -8 -76l-55 -320h-82l55 320c3 18 6 37 6 56c0 38 -12 69 -56 69c-59 0 -111 -67 -126 -157zM452 689c-15 -67 -51 -106 -95 -106
c-22 0 -37 6 -61 24c-26 20 -35 22 -51 22c-20 0 -33 -16 -42 -46h-45c15 65 51 106 95 106c24 0 39 -7 62 -24c27 -19 36 -23 52 -23c21 0 32 14 41 47h44z" />
    <glyph glyph-name="odieresis" unicode="&#xf6;" horiz-adv-x="449" 
d="M416 333c0 -171 -90 -350 -229 -350c-92 0 -148 73 -148 186c0 173 90 349 229 349c92 0 148 -72 148 -185zM332 330c0 70 -22 117 -71 117c-87 0 -138 -168 -138 -278c0 -68 21 -114 70 -114c89 0 139 164 139 275zM268 657c0 -32 -23 -58 -53 -58c-27 0 -43 22 -43 45
c0 29 22 57 53 57c26 0 43 -18 43 -44zM422 657c0 -32 -23 -58 -53 -58c-27 0 -43 22 -43 45c0 29 22 57 53 57c26 0 43 -18 43 -44z" />
    <glyph glyph-name="jcircumflex" unicode="&#x135;" horiz-adv-x="227" 
d="M106 -62c-19 -105 -59 -178 -163 -178c-10 0 -26 2 -39 5l12 78c9 -3 21 -4 29 -4c53 0 69 49 79 105l98 557h83zM317 571h-70l-54 101l-88 -101h-77l130 144h80z" />
    <glyph glyph-name="oe.sc" horiz-adv-x="561" 
d="M572 556l-14 -74h-148l-28 -161h140l-12 -68h-140l-31 -178h161l-13 -75h-265c-114 0 -174 77 -174 201c0 177 98 355 270 355h254zM330 483h-24c-95 0 -172 -136 -172 -278c0 -92 41 -131 102 -131h24z" />
    <glyph glyph-name="ncaron" unicode="&#x148;" horiz-adv-x="477" 
d="M162 288l-50 -288h-81l65 374c3 21 16 108 19 127h80c-2 -19 -8 -57 -13 -89h2c26 59 77 106 139 106c77 0 105 -60 105 -122c0 -18 -3 -49 -8 -76l-55 -320h-82l55 320c3 18 6 37 6 56c0 38 -12 69 -56 69c-59 0 -111 -67 -126 -157zM458 714l-129 -144h-80l-80 144h69
l53 -101l89 101h78z" />
    <glyph glyph-name="idieresis" unicode="&#xef;" horiz-adv-x="226" 
d="M201 501l-87 -501h-81l87 501h81zM147 657c0 -32 -23 -58 -53 -58c-27 0 -43 22 -43 45c0 29 22 57 53 57c26 0 43 -18 43 -44zM301 657c0 -32 -23 -58 -53 -58c-27 0 -43 22 -43 45c0 29 22 57 53 57c26 0 43 -18 43 -44z" />
    <glyph glyph-name="udieresis.sc" horiz-adv-x="470" 
d="M466 556l-63 -358c-21 -117 -70 -210 -198 -210c-104 0 -151 64 -151 149c0 18 1 38 5 61l63 358h85l-61 -350c-3 -19 -5 -39 -5 -56c0 -46 15 -85 68 -85c73 0 97 68 110 141l62 350h85zM286 702c0 -32 -23 -58 -53 -58c-27 0 -43 22 -43 45c0 29 22 57 53 57
c26 0 43 -18 43 -44zM440 702c0 -32 -23 -58 -53 -58c-27 0 -43 22 -43 45c0 29 22 57 53 57c26 0 43 -18 43 -44z" />
    <glyph glyph-name="ocircumflex" unicode="&#xf4;" horiz-adv-x="449" 
d="M416 333c0 -171 -90 -350 -229 -350c-92 0 -148 73 -148 186c0 173 90 349 229 349c92 0 148 -72 148 -185zM332 330c0 70 -22 117 -71 117c-87 0 -138 -168 -138 -278c0 -68 21 -114 70 -114c89 0 139 164 139 275zM428 571h-70l-54 101l-88 -101h-77l130 144h80z" />
    <glyph glyph-name="onehalf" unicode="&#xbd;" horiz-adv-x="734" 
d="M708 341c0 -53 -23 -87 -91 -160l-110 -116h154l-11 -65h-240l11 68l154 160c48 52 59 77 59 106c0 24 -12 48 -43 48c-30 0 -51 -25 -60 -58l-69 11c20 71 69 112 138 112s108 -46 108 -106zM618 722l-408 -745l-48 19l409 745zM306 708l-77 -438h-73l63 355l-83 -54
l-24 56l129 81h65z" />
    <glyph glyph-name="grave.sc" 
d="M47 760h84l103 -144h-67z" />
    <glyph glyph-name="hungarumlaut.cap" 
d="M241 908l-133 -144h-65l115 144h83zM378 908l-132 -144h-65l115 144h82z" />
    <glyph glyph-name="utilde" unicode="&#x169;" horiz-adv-x="477" 
d="M317 213l50 288h81l-65 -374c-3 -21 -16 -108 -19 -127h-80c2 19 8 57 13 89h-2c-26 -59 -77 -106 -139 -106c-77 0 -105 60 -105 122c0 18 3 49 8 76l55 320h82l-55 -320c-3 -18 -6 -37 -6 -56c0 -38 12 -69 56 -69c59 0 111 67 126 157zM451 689
c-15 -67 -51 -106 -95 -106c-22 0 -37 6 -61 24c-26 20 -35 22 -51 22c-20 0 -33 -16 -42 -46h-45c15 65 51 106 95 106c24 0 39 -7 62 -24c27 -19 36 -23 52 -23c21 0 32 14 41 47h44z" />
    <glyph glyph-name="otilde.sc" horiz-adv-x="481" 
d="M295 568c105 0 163 -81 163 -208c0 -179 -95 -372 -246 -372c-104 0 -162 82 -162 205c0 178 91 375 245 375zM288 493c-96 0 -151 -181 -151 -300c0 -71 22 -129 83 -129c96 0 151 181 151 300c0 71 -22 129 -83 129zM469 734c-15 -67 -51 -106 -95 -106
c-22 0 -37 6 -61 24c-26 20 -35 22 -51 22c-20 0 -33 -16 -42 -46h-45c15 65 51 106 95 106c24 0 39 -7 62 -24c27 -19 36 -23 52 -23c21 0 32 14 41 47h44z" />
    <glyph glyph-name="product" unicode="&#x220f;" horiz-adv-x="726" 
d="M660 -214h-90v917h-413v-917h-91v1000h594v-1000z" />
    <glyph glyph-name="twosuperior" unicode="&#xb2;" horiz-adv-x="314" 
d="M349 613c0 -53 -23 -87 -91 -160l-110 -116h154l-11 -65h-240l11 68l154 160c48 52 59 77 59 106c0 24 -12 48 -43 48c-30 0 -51 -25 -60 -58l-69 11c20 71 69 112 138 112s108 -46 108 -106z" />
    <glyph glyph-name="imacron.sc" horiz-adv-x="223" 
d="M216 556l-98 -556h-84l96 556h86zM313 659h-258l10 57h258z" />
    <glyph glyph-name="lacute" unicode="&#x13a;" horiz-adv-x="226" 
d="M247 756l-131 -756h-82l131 756h82zM368 943l-132 -144h-67l115 144h84z" />
    <glyph glyph-name="ocircumflex.sc" horiz-adv-x="481" 
d="M295 568c105 0 163 -81 163 -208c0 -179 -95 -372 -246 -372c-104 0 -162 82 -162 205c0 178 91 375 245 375zM288 493c-96 0 -151 -181 -151 -300c0 -71 22 -129 83 -129c96 0 151 181 151 300c0 71 -22 129 -83 129zM462 616h-70l-54 101l-88 -101h-77l130 144h80z" />
    <glyph glyph-name="perthousand.sc" horiz-adv-x="811" 
d="M519 173c0 -92 -54 -185 -134 -185c-56 0 -87 43 -87 105c0 92 54 185 134 185c57 0 87 -44 87 -105zM457 170c0 33 -10 53 -33 53c-40 0 -64 -74 -64 -125c0 -32 11 -54 34 -54c39 0 63 75 63 126zM279 463c0 -92 -54 -185 -134 -185c-56 0 -87 43 -87 105
c0 92 54 185 134 185c57 0 87 -44 87 -105zM217 460c0 33 -10 53 -33 53c-40 0 -64 -74 -64 -125c0 -32 11 -54 34 -54c39 0 63 75 63 126zM772 173c0 -92 -54 -185 -134 -185c-56 0 -87 43 -87 105c0 92 54 185 134 185c57 0 87 -44 87 -105zM710 170c0 33 -10 53 -33 53
c-40 0 -64 -74 -64 -125c0 -32 11 -54 34 -54c39 0 63 75 63 126zM146 -22l-48 21l330 582l50 -21z" />
    <glyph glyph-name="napostrophe.sc" horiz-adv-x="553" 
d="M177 556l-95 -185h-65l86 185h74zM546 556l-97 -556h-96l-93 408h-2l-70 -408h-77l96 556h97l92 -409h3l70 409h77z" />
    <glyph glyph-name="ij.sc" horiz-adv-x="562" 
d="M216 556l-98 -556h-84l96 556h86zM558 556l-69 -395c-19 -107 -56 -173 -154 -173c-73 0 -113 43 -128 97l73 31c6 -24 22 -49 56 -49c47 0 60 39 71 103l66 386h85z" />
    <glyph glyph-name="uni03BC" unicode="&#x3bc;" horiz-adv-x="578" 
d="M502 0h-89c-2 24 -4 58 -4 78h-2c-24 -50 -86 -91 -155 -91c-33 0 -66 12 -83 30v-257h-94v714h94v-262c0 -78 21 -146 108 -146c75 0 127 62 127 156v252h94v-372c0 -25 1 -71 4 -102z" />
    <glyph glyph-name="percent.sc" horiz-adv-x="555" 
d="M519 173c0 -92 -54 -185 -134 -185c-56 0 -87 43 -87 105c0 92 54 185 134 185c57 0 87 -44 87 -105zM457 170c0 33 -10 53 -33 53c-40 0 -64 -74 -64 -125c0 -32 11 -54 34 -54c39 0 63 75 63 126zM279 463c0 -92 -54 -185 -134 -185c-56 0 -87 43 -87 105
c0 92 54 185 134 185c57 0 87 -44 87 -105zM217 460c0 33 -10 53 -33 53c-40 0 -64 -74 -64 -125c0 -32 11 -54 34 -54c39 0 63 75 63 126zM146 -22l-48 21l330 582l50 -21z" />
    <glyph glyph-name="obreve.sc" horiz-adv-x="481" 
d="M295 568c105 0 163 -81 163 -208c0 -179 -95 -372 -246 -372c-104 0 -162 82 -162 205c0 178 91 375 245 375zM288 493c-96 0 -151 -181 -151 -300c0 -71 22 -129 83 -129c96 0 151 181 151 300c0 71 -22 129 -83 129zM461 753c-28 -95 -84 -133 -153 -133
c-66 0 -116 38 -116 133h56c0 -52 28 -74 64 -74c44 0 74 20 93 74h56z" />
    <glyph glyph-name="summation" unicode="&#x2211;" horiz-adv-x="626" 
d="M601 -214h-576v72l316 433l-303 422v73h551v-83h-432l292 -412l-311 -423h463v-82z" />
    <glyph glyph-name="racute" unicode="&#x155;" horiz-adv-x="276" 
d="M322 513l-18 -84c-5 1 -10 2 -17 2c-64 0 -115 -89 -130 -177l-44 -254h-82l65 374c3 21 17 108 19 127h79c-2 -19 -13 -85 -17 -106h3c31 81 81 119 131 119c4 0 8 0 11 -1zM344 715l-132 -144h-67l115 144h84z" />
    <glyph glyph-name="two.onum" horiz-adv-x="450" 
d="M17 0l12 75c236 184 305 243 305 336c0 49 -28 85 -81 85c-47 0 -86 -27 -118 -79l-60 36c41 68 103 115 186 115c102 0 157 -58 157 -150c0 -132 -114 -210 -279 -337v-3h229l-13 -78h-338z" />
    <glyph glyph-name="trademark" unicode="&#x2122;" horiz-adv-x="760" 
d="M734 296h-60v321h-1l-94 -321h-49l-91 321h-2v-321h-58v412h91l86 -308l88 308h90v-412zM325 648h-84v-352h-67v352h-84v60h235v-60z" />
    <glyph glyph-name="Uacute" unicode="&#xda;" horiz-adv-x="551" 
d="M569 708l-81 -464c-25 -144 -88 -261 -244 -261c-126 0 -181 81 -181 185c0 22 2 47 7 76l81 464h86l-80 -455c-4 -24 -7 -49 -7 -72c0 -64 22 -119 99 -119c102 0 137 94 154 191l80 455h86zM518 908l-132 -144h-67l115 144h84z" />
    <glyph glyph-name="lcommaaccent" unicode="&#x13c;" horiz-adv-x="226" 
d="M247 756l-131 -756h-82l131 756h82zM111 -45l-95 -185h-65l86 185h74z" />
    <glyph glyph-name="imacron" unicode="&#x12b;" horiz-adv-x="226" 
d="M201 501l-87 -501h-81l87 501h81zM300 614h-258l10 57h258z" />
    <glyph glyph-name="nine.sc" horiz-adv-x="425" 
d="M402 418c0 -71 -29 -132 -74 -196l-149 -222h-94l161 227l-1 1c-17 -13 -34 -17 -55 -17c-64 0 -118 43 -118 135c0 105 61 222 185 222c96 0 145 -61 145 -150zM318 412c0 50 -23 85 -65 85c-62 0 -97 -78 -97 -146c0 -46 19 -81 61 -81c61 0 101 67 101 142z" />
    <glyph glyph-name="uni021B" unicode="&#x21b;" horiz-adv-x="258" 
d="M285 501l-12 -66h-84l-50 -294c-2 -13 -4 -28 -4 -38c0 -33 14 -43 40 -43c12 0 28 4 38 8l-8 -65c-17 -6 -38 -11 -57 -11c-65 0 -95 36 -95 92c0 11 1 24 4 41l54 310h-69l11 66h67l23 134h79l-22 -134h85zM148 -45l-95 -185h-65l86 185h74z" />
    <glyph glyph-name="oacute.sc" horiz-adv-x="481" 
d="M295 568c105 0 163 -81 163 -208c0 -179 -95 -372 -246 -372c-104 0 -162 82 -162 205c0 178 91 375 245 375zM288 493c-96 0 -151 -181 -151 -300c0 -71 22 -129 83 -129c96 0 151 181 151 300c0 71 -22 129 -83 129zM469 760l-132 -144h-67l115 144h84z" />
    <glyph glyph-name="idotaccent.sc" horiz-adv-x="223" 
d="M216 556l-98 -556h-84l96 556h86zM250 703c0 -35 -25 -63 -58 -63c-29 0 -46 23 -46 48c0 32 24 63 57 63c29 0 47 -20 47 -48z" />
    <glyph glyph-name="Aring" unicode="&#xc5;" horiz-adv-x="481" 
d="M431 0h-87l-7 168h-210l-74 -168h-88l318 708h113zM338 236l-12 392h-4l-169 -392h185zM452 867c0 -63 -46 -118 -106 -118c-54 0 -82 35 -82 84c0 66 43 121 102 121c57 0 86 -39 86 -87zM413 864c0 28 -15 54 -48 54c-40 0 -63 -41 -63 -82c0 -28 15 -51 47 -51
c38 0 64 40 64 79z" />
    <glyph glyph-name="oacute" unicode="&#xf3;" horiz-adv-x="449" 
d="M416 333c0 -171 -90 -350 -229 -350c-92 0 -148 73 -148 186c0 173 90 349 229 349c92 0 148 -72 148 -185zM332 330c0 70 -22 117 -71 117c-87 0 -138 -168 -138 -278c0 -68 21 -114 70 -114c89 0 139 164 139 275zM443 715l-132 -144h-67l115 144h84z" />
    <glyph glyph-name="ncommaaccent" unicode="&#x146;" horiz-adv-x="477" 
d="M162 288l-50 -288h-81l65 374c3 21 16 108 19 127h80c-2 -19 -8 -57 -13 -89h2c26 59 77 106 139 106c77 0 105 -60 105 -122c0 -18 -3 -49 -8 -76l-55 -320h-82l55 320c3 18 6 37 6 56c0 38 -12 69 -56 69c-59 0 -111 -67 -126 -157zM225 -45l-95 -185h-65l86 185h74z
" />
    <glyph glyph-name="nacute" unicode="&#x144;" horiz-adv-x="477" 
d="M162 288l-50 -288h-81l65 374c3 21 16 108 19 127h80c-2 -19 -8 -57 -13 -89h2c26 59 77 106 139 106c77 0 105 -60 105 -122c0 -18 -3 -49 -8 -76l-55 -320h-82l55 320c3 18 6 37 6 56c0 38 -12 69 -56 69c-59 0 -111 -67 -126 -157zM427 715l-132 -144h-67l115 144h84z
" />
    <glyph glyph-name="ucircumflex.sc" horiz-adv-x="470" 
d="M466 556l-63 -358c-21 -117 -70 -210 -198 -210c-104 0 -151 64 -151 149c0 18 1 38 5 61l63 358h85l-61 -350c-3 -19 -5 -39 -5 -56c0 -46 15 -85 68 -85c73 0 97 68 110 141l62 350h85zM447 616h-70l-54 101l-88 -101h-77l130 144h80z" />
    <glyph glyph-name="macron.cap" 
d="M311 807h-258l10 57h258z" />
    <glyph glyph-name="oslash.sc" horiz-adv-x="481" 
d="M295 568c105 0 163 -81 163 -208c0 -179 -95 -372 -246 -372c-104 0 -162 82 -162 205c0 178 91 375 245 375zM288 493c-96 0 -151 -181 -151 -300c0 -71 22 -129 83 -129c96 0 151 181 151 300c0 71 -22 129 -83 129zM479 568l-77 -111l-20 -21l-235 -339l-16 -19
l-79 -122l-42 21l89 130l18 17l238 348l16 17l67 100z" />
    <glyph glyph-name="iogonek" unicode="&#x12f;" horiz-adv-x="226" 
d="M105 -144l12 -42c-26 -22 -59 -36 -91 -36c-49 0 -85 28 -76 83c11 57 65 105 111 139h-28l87 501h81l-87 -501h1c-59 -51 -91 -84 -97 -121c-5 -26 11 -44 35 -44c18 0 36 7 52 21zM236 658c0 -35 -25 -63 -58 -63c-29 0 -46 23 -46 48c0 32 24 63 57 63
c29 0 47 -20 47 -48z" />
    <glyph glyph-name="yacute.sc" horiz-adv-x="365" 
d="M427 556l-200 -339l-37 -217h-85l38 217l-80 339h90l45 -255h2l135 255h92zM411 760l-132 -144h-67l115 144h84z" />
    <glyph glyph-name="hbar" unicode="&#x127;" horiz-adv-x="481" 
d="M336 582h-120l-29 -168h2c25 57 76 104 138 104c77 0 105 -60 105 -122c0 -18 -3 -49 -8 -76l-55 -320h-82l55 320c3 18 6 37 6 56c0 38 -12 69 -56 69c-59 0 -111 -67 -126 -157l-50 -288h-82l101 582h-57l9 52h57l21 122h82l-22 -122h120z" />
    <glyph glyph-name="uhungarumlaut.sc" horiz-adv-x="470" 
d="M466 556l-63 -358c-21 -117 -70 -210 -198 -210c-104 0 -151 64 -151 149c0 18 1 38 5 61l63 358h85l-61 -350c-3 -19 -5 -39 -5 -56c0 -46 15 -85 68 -85c73 0 97 68 110 141l62 350h85zM393 760l-133 -144h-65l115 144h83zM530 760l-132 -144h-65l115 144h82z" />
    <glyph glyph-name="omacron.sc" horiz-adv-x="481" 
d="M295 568c105 0 163 -81 163 -208c0 -179 -95 -372 -246 -372c-104 0 -162 82 -162 205c0 178 91 375 245 375zM288 493c-96 0 -151 -181 -151 -300c0 -71 22 -129 83 -129c96 0 151 181 151 300c0 71 -22 129 -83 129zM446 659h-258l10 57h258z" />
    <glyph glyph-name="z.sc" horiz-adv-x="354" 
d="M376 556l-13 -69l-258 -411h189l-13 -76h-286l12 70l262 412h-178l14 74h271z" />
    <glyph glyph-name="questiondown.sc" horiz-adv-x="334" 
d="M272 518c0 -31 -23 -61 -55 -61c-29 0 -46 20 -46 46c0 34 24 60 56 60c29 0 45 -22 45 -45zM299 110c-22 -66 -71 -123 -161 -123c-85 0 -121 61 -121 118c0 73 46 116 96 157c38 32 49 54 56 90l5 26h71l-6 -36c-8 -46 -29 -86 -70 -121l-20 -16
c-31 -26 -51 -49 -51 -91c0 -34 20 -60 52 -60c44 0 69 40 80 74z" />
    <glyph glyph-name="idieresis.sc" horiz-adv-x="223" 
d="M216 556l-98 -556h-84l96 556h86zM162 702c0 -32 -23 -58 -53 -58c-27 0 -43 22 -43 45c0 29 22 57 53 57c26 0 43 -18 43 -44zM316 702c0 -32 -23 -58 -53 -58c-27 0 -43 22 -43 45c0 29 22 57 53 57c26 0 43 -18 43 -44z" />
    <glyph glyph-name="one.sc" horiz-adv-x="425" 
d="M341 556l-95 -556h-84l80 460l-108 -65l-28 64l159 97h76z" />
    <glyph glyph-name="question.sc" horiz-adv-x="334" 
d="M352 451c0 -73 -46 -116 -96 -157c-37 -32 -49 -53 -55 -89l-5 -26h-71l6 36c7 45 28 85 70 120l20 16c29 26 50 49 50 92c0 33 -20 59 -52 59c-44 0 -69 -40 -79 -74l-69 18c21 67 70 123 161 123c83 0 120 -61 120 -118zM199 54c0 -34 -24 -60 -57 -60
c-28 0 -44 22 -44 46c0 30 22 60 55 60c28 0 46 -20 46 -46z" />
    <glyph glyph-name="wcircumflex" unicode="&#x175;" horiz-adv-x="594" 
d="M621 501l-193 -501h-94l-12 385l-147 -385h-91l-16 501h82v-407h2l154 407h76l13 -407h1l143 407h82zM504 571h-70l-54 101l-88 -101h-77l130 144h80z" />
    <glyph glyph-name="iacute.sc" horiz-adv-x="223" 
d="M216 556l-98 -556h-84l96 556h86zM336 760l-132 -144h-67l115 144h84z" />
    <glyph glyph-name="three.sc" horiz-adv-x="425" 
d="M381 441c0 -60 -33 -131 -106 -149v-2c47 -12 73 -57 73 -111c0 -101 -68 -191 -178 -191c-84 0 -133 48 -150 113l75 25c10 -36 34 -66 77 -66c55 0 95 43 95 117c0 47 -31 78 -79 78h-22l12 67h24c52 0 97 43 97 110c0 31 -16 65 -59 65c-35 0 -60 -21 -76 -52l-66 24
c30 63 84 99 149 99c86 0 134 -53 134 -127z" />
    <glyph glyph-name="Ubreve" unicode="&#x16c;" horiz-adv-x="551" 
d="M569 708l-81 -464c-25 -144 -88 -261 -244 -261c-126 0 -181 81 -181 185c0 22 2 47 7 76l81 464h86l-80 -455c-4 -24 -7 -49 -7 -72c0 -64 22 -119 99 -119c102 0 137 94 154 191l80 455h86zM519 901c-28 -95 -84 -133 -153 -133c-66 0 -116 38 -116 133h56
c0 -52 28 -74 64 -74c44 0 74 20 93 74h56z" />
    <glyph glyph-name="ordfeminine.sc" horiz-adv-x="303" 
d="M285 401h-58v64h-84l-29 -64h-61l151 319h76zM229 513v151h-2l-66 -151h68z" />
    <glyph glyph-name="Ccircumflex" unicode="&#x108;" horiz-adv-x="479" 
d="M539 641l-64 -58c-23 41 -57 62 -104 62c-140 0 -222 -226 -222 -393c0 -110 38 -190 123 -190c59 0 100 37 125 67l46 -56c-48 -55 -106 -90 -187 -90c-128 0 -198 111 -198 265c0 234 132 476 323 476c71 0 128 -28 158 -83zM539 764h-70l-54 101l-88 -101h-77l130 144
h80z" />
    <glyph glyph-name="l.sc" horiz-adv-x="325" 
d="M287 77l-14 -77h-239l96 556h85l-83 -479h155z" />
    <glyph glyph-name="igrave" unicode="&#xec;" horiz-adv-x="226" 
d="M201 501l-87 -501h-81l87 501h81zM20 715h84l103 -144h-67z" />
    <glyph glyph-name="Cdotaccent" unicode="&#x10a;" horiz-adv-x="479" 
d="M539 641l-64 -58c-23 41 -57 62 -104 62c-140 0 -222 -226 -222 -393c0 -110 38 -190 123 -190c59 0 100 37 125 67l46 -56c-48 -55 -106 -90 -187 -90c-128 0 -198 111 -198 265c0 234 132 476 323 476c71 0 128 -28 158 -83zM455 851c0 -35 -25 -63 -58 -63
c-29 0 -46 23 -46 48c0 32 24 63 57 63c29 0 47 -20 47 -48z" />
    <glyph glyph-name="pi" unicode="&#x3c0;" horiz-adv-x="578" 
d="M545 12c-25 -12 -47 -19 -74 -19c-84 0 -93 56 -93 125v275h-191v-393h-86v393h-70v81h511v-81h-78v-270c0 -29 2 -56 38 -56c15 0 30 4 43 10v-65z" />
    <glyph glyph-name="umacron" unicode="&#x16b;" horiz-adv-x="477" 
d="M317 213l50 288h81l-65 -374c-3 -21 -16 -108 -19 -127h-80c2 19 8 57 13 89h-2c-26 -59 -77 -106 -139 -106c-77 0 -105 60 -105 122c0 18 3 49 8 76l55 320h82l-55 -320c-3 -18 -6 -37 -6 -56c0 -38 12 -69 56 -69c59 0 111 67 126 157zM428 614h-258l10 57h258z" />
    <glyph glyph-name="Utilde" unicode="&#x168;" horiz-adv-x="551" 
d="M569 708l-81 -464c-25 -144 -88 -261 -244 -261c-126 0 -181 81 -181 185c0 22 2 47 7 76l81 464h86l-80 -455c-4 -24 -7 -49 -7 -72c0 -64 22 -119 99 -119c102 0 137 94 154 191l80 455h86zM524 882c-15 -67 -51 -106 -95 -106c-22 0 -37 6 -61 24
c-26 20 -35 22 -51 22c-20 0 -33 -16 -42 -46h-45c15 65 51 106 95 106c24 0 39 -7 62 -24c27 -19 36 -23 52 -23c21 0 32 14 41 47h44z" />
    <glyph glyph-name="scommaaccent.sc" horiz-adv-x="369" 
d="M177 -45l-95 -185h-65l86 185h74zM380 519l-54 -61c-19 24 -45 36 -76 36c-39 0 -87 -30 -87 -96c0 -40 23 -62 60 -85c47 -29 97 -69 97 -145c0 -117 -79 -180 -175 -180c-60 0 -115 24 -143 59l54 62c21 -27 53 -46 88 -46c48 0 92 32 92 91c0 41 -22 68 -67 95
c-47 29 -90 67 -90 144c0 102 76 175 173 175c55 0 102 -18 128 -49z" />
    <glyph glyph-name="lessequal" unicode="&#x2264;" horiz-adv-x="666" 
d="M589 130l-512 179v86l512 183v-89l-397 -137l397 -134v-88zM589 8h-512v84h512v-84z" />
    <glyph glyph-name="uni00A0" unicode="&#xa0;" horiz-adv-x="187" 
 />
    <glyph glyph-name="uring.sc" horiz-adv-x="470" 
d="M466 556l-63 -358c-21 -117 -70 -210 -198 -210c-104 0 -151 64 -151 149c0 18 1 38 5 61l63 358h85l-61 -350c-3 -19 -5 -39 -5 -56c0 -46 15 -85 68 -85c73 0 97 68 110 141l62 350h85zM406 719c0 -63 -46 -118 -106 -118c-54 0 -82 35 -82 84c0 66 43 121 102 121
c57 0 86 -39 86 -87zM367 716c0 28 -15 54 -48 54c-40 0 -63 -41 -63 -82c0 -28 15 -51 47 -51c38 0 64 40 64 79z" />
    <glyph glyph-name="Wcircumflex" unicode="&#x174;" horiz-adv-x="738" 
d="M810 708l-260 -708h-111l-7 580h-2l-209 -580h-110l-14 708h88l3 -596h3l214 596h101l10 -596h2l208 596h84zM616 764h-70l-54 101l-88 -101h-77l130 144h80z" />
    <glyph glyph-name="i.sc" horiz-adv-x="223" 
d="M216 556l-98 -556h-84l96 556h86z" />
    <glyph glyph-name="onesuperior" unicode="&#xb9;" horiz-adv-x="314" 
d="M306 708l-77 -438h-73l63 355l-83 -54l-24 56l129 81h65z" />
    <glyph glyph-name="threequarters" unicode="&#xbe;" horiz-adv-x="734" 
d="M616 96l-16 -96h-67l17 96h-159l11 65l180 277h95l-50 -281h50l-11 -61h-50zM598 366h-1l-129 -209h95zM345 621c0 -48 -28 -102 -82 -115l-1 -2c37 -10 57 -46 57 -88c0 -83 -57 -150 -144 -150c-69 0 -109 39 -122 93l66 20c7 -27 25 -50 57 -50c40 0 71 31 71 85
c0 36 -24 59 -60 59h-18l10 59h20c41 0 74 30 74 80c0 23 -15 48 -45 48c-27 0 -45 -17 -57 -40l-59 19c26 58 72 84 126 84c64 0 107 -40 107 -102zM618 722l-408 -745l-48 19l409 745z" />
    <glyph glyph-name="uni03A9" unicode="&#x3a9;" horiz-adv-x="752" 
d="M693 0h-264v185c112 21 171 112 171 221c0 131 -97 232 -229 232c-133 0 -231 -101 -231 -233c0 -111 58 -197 169 -220v-185h-263v77h190v62c-123 36 -190 146 -190 271c0 181 147 311 324 311c178 0 323 -127 323 -309c0 -127 -64 -237 -190 -273v-62h190v-77z" />
    <glyph glyph-name="Ucircumflex" unicode="&#xdb;" horiz-adv-x="551" 
d="M569 708l-81 -464c-25 -144 -88 -261 -244 -261c-126 0 -181 81 -181 185c0 22 2 47 7 76l81 464h86l-80 -455c-4 -24 -7 -49 -7 -72c0 -64 22 -119 99 -119c102 0 137 94 154 191l80 455h86zM514 764h-70l-54 101l-88 -101h-77l130 144h80z" />
    <glyph glyph-name="hcircumflex.sc" horiz-adv-x="483" 
d="M476 556l-97 -556h-84l45 251h-178l-45 -251h-83l96 556h84l-40 -230h178l39 230h85zM454 616h-70l-54 101l-88 -101h-77l130 144h80z" />
    <glyph glyph-name="zcaron" unicode="&#x17e;" horiz-adv-x="341" 
d="M357 501l-12 -68l-265 -363h204l-13 -70h-291l13 70l263 361h-184l12 70h273zM398 714l-129 -144h-80l-80 144h69l53 -101l89 101h78z" />
    <glyph glyph-name="ograve.sc" horiz-adv-x="481" 
d="M295 568c105 0 163 -81 163 -208c0 -179 -95 -372 -246 -372c-104 0 -162 82 -162 205c0 178 91 375 245 375zM288 493c-96 0 -151 -181 -151 -300c0 -71 22 -129 83 -129c96 0 151 181 151 300c0 71 -22 129 -83 129zM164 760h84l103 -144h-67z" />
    <glyph glyph-name="Yacute" unicode="&#xdd;" horiz-adv-x="425" 
d="M509 708l-252 -423l-49 -285h-85l49 285l-102 423h91l66 -335h2l185 335h95zM450 908l-132 -144h-67l115 144h84z" />
    <glyph glyph-name="ycircumflex.sc" horiz-adv-x="365" 
d="M427 556l-200 -339l-37 -217h-85l38 217l-80 339h90l45 -255h2l135 255h92zM401 616h-70l-54 101l-88 -101h-77l130 144h80z" />
    <glyph glyph-name="o.sc" horiz-adv-x="481" 
d="M295 568c105 0 163 -81 163 -208c0 -179 -95 -372 -246 -372c-104 0 -162 82 -162 205c0 178 91 375 245 375zM288 493c-96 0 -151 -181 -151 -300c0 -71 22 -129 83 -129c96 0 151 181 151 300c0 71 -22 129 -83 129z" />
    <glyph glyph-name="tbar" unicode="&#x167;" horiz-adv-x="258" 
d="M224 273h-63l-22 -132c-2 -13 -4 -28 -4 -38c0 -33 14 -43 40 -43c12 0 28 4 38 8l-8 -65c-17 -6 -38 -11 -57 -11c-65 0 -95 36 -95 92c0 11 1 24 4 41l26 148h-44l10 54h43l19 108h-69l11 66h67l23 134h79l-22 -134h85l-12 -66h-84l-19 -108h64z" />
    <glyph glyph-name="icircumflex" unicode="&#xee;" horiz-adv-x="226" 
d="M201 501l-87 -501h-81l87 501h81zM310 571h-70l-54 101l-88 -101h-77l130 144h80z" />
    <glyph glyph-name="itilde" unicode="&#x129;" horiz-adv-x="226" 
d="M201 501l-87 -501h-81l87 501h81zM320 689c-15 -67 -51 -106 -95 -106c-22 0 -37 6 -61 24c-26 20 -35 22 -51 22c-20 0 -33 -16 -42 -46h-45c15 65 51 106 95 106c24 0 39 -7 62 -24c27 -19 36 -23 52 -23c21 0 32 14 41 47h44z" />
    <glyph glyph-name="scircumflex.sc" horiz-adv-x="369" 
d="M380 519l-54 -61c-19 24 -45 36 -76 36c-39 0 -87 -30 -87 -96c0 -40 23 -62 60 -85c47 -29 97 -69 97 -145c0 -117 -79 -180 -175 -180c-60 0 -115 24 -143 59l54 62c21 -27 53 -46 88 -46c48 0 92 32 92 91c0 41 -22 68 -67 95c-47 29 -90 67 -90 144
c0 102 76 175 173 175c55 0 102 -18 128 -49zM409 616h-70l-54 101l-88 -101h-77l130 144h80z" />
    <glyph glyph-name="j.sc" horiz-adv-x="341" 
d="M337 556l-69 -395c-19 -107 -56 -173 -154 -173c-73 0 -113 43 -128 97l73 31c6 -24 22 -49 56 -49c47 0 60 39 71 103l66 386h85z" />
    <glyph glyph-name="scommaaccent" unicode="&#x219;" horiz-adv-x="347" 
d="M349 474l-46 -56c-17 23 -43 35 -80 35c-43 0 -82 -32 -82 -84c0 -44 22 -59 64 -82c54 -30 95 -67 95 -135c0 -115 -82 -169 -175 -169c-58 0 -110 27 -137 63l54 53c19 -24 46 -48 91 -48c48 0 87 32 87 88c0 47 -34 74 -74 94c-47 24 -83 62 -83 126
c0 99 76 159 170 159c55 0 93 -19 116 -44zM147 -45l-95 -185h-65l86 185h74z" />
    <glyph glyph-name="Atilde" unicode="&#xc3;" horiz-adv-x="481" 
d="M431 0h-87l-7 168h-210l-74 -168h-88l318 708h113zM338 236l-12 392h-4l-169 -392h185zM495 882c-15 -67 -51 -106 -95 -106c-22 0 -37 6 -61 24c-26 20 -35 22 -51 22c-20 0 -33 -16 -42 -46h-45c15 65 51 106 95 106c24 0 39 -7 62 -24c27 -19 36 -23 52 -23
c21 0 32 14 41 47h44z" />
    <glyph glyph-name="igrave.sc" horiz-adv-x="223" 
d="M216 556l-98 -556h-84l96 556h86zM28 760h84l103 -144h-67z" />
    <glyph glyph-name="aring.sc" horiz-adv-x="413" 
d="M360 0h-84l-5 124h-156l-53 -124h-86l248 556h109zM272 189l-8 290h-3l-122 -290h133zM394 719c0 -63 -46 -118 -106 -118c-54 0 -82 35 -82 84c0 66 43 121 102 121c57 0 86 -39 86 -87zM355 716c0 28 -15 54 -48 54c-40 0 -63 -41 -63 -82c0 -28 15 -51 47 -51
c38 0 64 40 64 79z" />
    <glyph glyph-name="gdotaccent" unicode="&#x121;" horiz-adv-x="472" 
d="M443 501l-87 -500c-24 -136 -81 -241 -222 -241c-66 0 -127 31 -159 75l55 57c25 -32 63 -58 112 -58c84 0 118 73 134 167l15 80h-2c-26 -55 -59 -98 -128 -98c-81 0 -128 72 -128 179c0 163 78 356 211 356c58 0 98 -38 104 -92h3l13 75h79zM327 327
c0 71 -22 120 -71 120c-90 0 -139 -169 -139 -279c0 -67 21 -113 70 -113c87 0 140 162 140 272zM358 658c0 -35 -25 -63 -58 -63c-29 0 -46 23 -46 48c0 32 24 63 57 63c29 0 47 -20 47 -48z" />
    <glyph glyph-name="ucircumflex" unicode="&#xfb;" horiz-adv-x="477" 
d="M317 213l50 288h81l-65 -374c-3 -21 -16 -108 -19 -127h-80c2 19 8 57 13 89h-2c-26 -59 -77 -106 -139 -106c-77 0 -105 60 -105 122c0 18 3 49 8 76l55 320h82l-55 -320c-3 -18 -6 -37 -6 -56c0 -38 12 -69 56 -69c59 0 111 67 126 157zM440 571h-70l-54 101l-88 -101
h-77l130 144h80z" />
    <glyph glyph-name="ring.sc" 
d="M286 719c0 -63 -46 -118 -106 -118c-54 0 -82 35 -82 84c0 66 43 121 102 121c57 0 86 -39 86 -87zM247 716c0 28 -15 54 -48 54c-40 0 -63 -41 -63 -82c0 -28 15 -51 47 -51c38 0 64 40 64 79z" />
    <glyph glyph-name="ugrave" unicode="&#xf9;" horiz-adv-x="477" 
d="M317 213l50 288h81l-65 -374c-3 -21 -16 -108 -19 -127h-80c2 19 8 57 13 89h-2c-26 -59 -77 -106 -139 -106c-77 0 -105 60 -105 122c0 18 3 49 8 76l55 320h82l-55 -320c-3 -18 -6 -37 -6 -56c0 -38 12 -69 56 -69c59 0 111 67 126 157zM144 715h84l103 -144h-67z" />
    <glyph glyph-name="Tcommaaccent" unicode="&#x162;" horiz-adv-x="349" 
d="M434 708l-13 -74h-135l-111 -634h-85l111 634h-136l13 74h356zM167 -45l-95 -185h-65l86 185h74z" />
    <glyph glyph-name="Zcaron" unicode="&#x17d;" horiz-adv-x="405" 
d="M454 708l-12 -73l-346 -557h252l-13 -78h-349l12 73l348 559h-236l13 76h331zM465 907l-129 -144h-80l-80 144h69l53 -101l89 101h78z" />
    <glyph glyph-name="aacute" unicode="&#xe1;" horiz-adv-x="409" 
d="M370 385c0 -24 -3 -47 -8 -76l-35 -204c-4 -24 -13 -86 -14 -105h-69c1 19 8 63 12 85h-2c-25 -62 -68 -98 -131 -98c-57 0 -102 38 -102 118c0 159 130 205 233 205h34c6 37 8 49 8 60c0 54 -26 78 -68 78c-37 0 -74 -21 -102 -51l-36 50c38 43 100 71 152 71
c88 0 128 -50 128 -133zM280 248h-38c-69 0 -145 -31 -145 -131c0 -44 24 -64 54 -64c71 0 111 94 123 165zM412 715l-132 -144h-67l115 144h84z" />
    <glyph glyph-name="hungarumlaut.sc" 
d="M241 760l-133 -144h-65l115 144h83zM378 760l-132 -144h-65l115 144h82z" />
    <glyph glyph-name="Ocircumflex" unicode="&#xd4;" horiz-adv-x="573" 
d="M561 461c0 -228 -120 -478 -305 -478c-127 0 -198 105 -198 259c0 227 114 482 305 482c131 0 198 -108 198 -263zM468 448c0 97 -16 199 -110 199c-134 0 -209 -245 -209 -410c0 -96 30 -175 113 -175c127 0 206 217 206 386zM526 764h-70l-54 101l-88 -101h-77l130 144
h80z" />
    <glyph glyph-name="Oacute" unicode="&#xd3;" horiz-adv-x="573" 
d="M561 461c0 -228 -120 -478 -305 -478c-127 0 -198 105 -198 259c0 227 114 482 305 482c131 0 198 -108 198 -263zM468 448c0 97 -16 199 -110 199c-134 0 -209 -245 -209 -410c0 -96 30 -175 113 -175c127 0 206 217 206 386zM526 908l-132 -144h-67l115 144h84z" />
    <glyph glyph-name="sterling.sc" horiz-adv-x="425" 
d="M408 538l-42 -64c-10 12 -28 20 -52 20c-56 0 -76 -53 -86 -109l-11 -66h99l-11 -64h-98l-30 -180h149l-14 -75h-299l14 75h70l31 180h-67l12 64h64l13 74c15 87 58 175 166 175c41 0 75 -13 92 -30z" />
    <glyph glyph-name="nacute.sc" horiz-adv-x="476" 
d="M469 556l-97 -556h-96l-93 408h-2l-70 -408h-77l96 556h97l92 -409h3l70 409h77zM470 760l-132 -144h-67l115 144h84z" />
    <glyph glyph-name="uring" unicode="&#x16f;" horiz-adv-x="477" 
d="M317 213l50 288h81l-65 -374c-3 -21 -16 -108 -19 -127h-80c2 19 8 57 13 89h-2c-26 -59 -77 -106 -139 -106c-77 0 -105 60 -105 122c0 18 3 49 8 76l55 320h82l-55 -320c-3 -18 -6 -37 -6 -56c0 -38 12 -69 56 -69c59 0 111 67 126 157zM401 674
c0 -63 -46 -118 -106 -118c-54 0 -82 35 -82 84c0 66 43 121 102 121c57 0 86 -39 86 -87zM362 671c0 28 -15 54 -48 54c-40 0 -63 -41 -63 -82c0 -28 15 -51 47 -51c38 0 64 40 64 79z" />
    <glyph glyph-name="uacute" unicode="&#xfa;" horiz-adv-x="477" 
d="M317 213l50 288h81l-65 -374c-3 -21 -16 -108 -19 -127h-80c2 19 8 57 13 89h-2c-26 -59 -77 -106 -139 -106c-77 0 -105 60 -105 122c0 18 3 49 8 76l55 320h82l-55 -320c-3 -18 -6 -37 -6 -56c0 -38 12 -69 56 -69c59 0 111 67 126 157zM442 715l-132 -144h-67l115 144
h84z" />
    <glyph glyph-name="ubreve.sc" horiz-adv-x="470" 
d="M466 556l-63 -358c-21 -117 -70 -210 -198 -210c-104 0 -151 64 -151 149c0 18 1 38 5 61l63 358h85l-61 -350c-3 -19 -5 -39 -5 -56c0 -46 15 -85 68 -85c73 0 97 68 110 141l62 350h85zM452 753c-28 -95 -84 -133 -153 -133c-66 0 -116 38 -116 133h56
c0 -52 28 -74 64 -74c44 0 74 20 93 74h56z" />
    <glyph glyph-name="seven.sc" horiz-adv-x="425" 
d="M409 556l-12 -66l-257 -490h-91l258 482h-208l13 74h297z" />
    <glyph glyph-name="odieresis.sc" horiz-adv-x="481" 
d="M295 568c105 0 163 -81 163 -208c0 -179 -95 -372 -246 -372c-104 0 -162 82 -162 205c0 178 91 375 245 375zM288 493c-96 0 -151 -181 -151 -300c0 -71 22 -129 83 -129c96 0 151 181 151 300c0 71 -22 129 -83 129zM296 702c0 -32 -23 -58 -53 -58
c-27 0 -43 22 -43 45c0 29 22 57 53 57c26 0 43 -18 43 -44zM450 702c0 -32 -23 -58 -53 -58c-27 0 -43 22 -43 45c0 29 22 57 53 57c26 0 43 -18 43 -44z" />
    <glyph glyph-name="zcaron.sc" horiz-adv-x="354" 
d="M376 556l-13 -69l-258 -411h189l-13 -76h-286l12 70l262 412h-178l14 74h271zM419 759l-129 -144h-80l-80 144h69l53 -101l89 101h78z" />
    <glyph glyph-name="obreve" unicode="&#x14f;" horiz-adv-x="449" 
d="M416 333c0 -171 -90 -350 -229 -350c-92 0 -148 73 -148 186c0 173 90 349 229 349c92 0 148 -72 148 -185zM332 330c0 70 -22 117 -71 117c-87 0 -138 -168 -138 -278c0 -68 21 -114 70 -114c89 0 139 164 139 275zM427 708c-28 -95 -84 -133 -153 -133
c-66 0 -116 38 -116 133h56c0 -52 28 -74 64 -74c44 0 74 20 93 74h56z" />
    <glyph glyph-name="nine.onum" horiz-adv-x="490" 
d="M308 145l-2 1c-25 -22 -59 -30 -95 -30c-92 0 -149 71 -149 175c0 151 85 277 228 277c109 0 173 -80 173 -188c0 -204 -163 -404 -331 -540l-58 53c78 58 180 157 234 252zM150 294c0 -65 28 -112 92 -112c87 0 135 101 135 195c0 69 -34 119 -93 119
c-86 0 -134 -102 -134 -202z" />
    <glyph glyph-name="uni02C9" unicode="&#x2c9;" 
d="M311 807h-258l10 57h258z" />
    <glyph glyph-name="germandbls.sc" horiz-adv-x="738" 
d="M380 519l-54 -61c-19 24 -45 36 -76 36c-39 0 -87 -30 -87 -96c0 -40 23 -62 60 -85c47 -29 97 -69 97 -145c0 -117 -79 -180 -175 -180c-60 0 -115 24 -143 59l54 62c21 -27 53 -46 88 -46c48 0 92 32 92 91c0 41 -22 68 -67 95c-47 29 -90 67 -90 144
c0 102 76 175 173 175c55 0 102 -18 128 -49zM749 519l-54 -61c-19 24 -45 36 -76 36c-39 0 -87 -30 -87 -96c0 -40 23 -62 60 -85c47 -29 97 -69 97 -145c0 -117 -79 -180 -175 -180c-60 0 -115 24 -143 59l54 62c21 -27 53 -46 88 -46c48 0 92 32 92 91
c0 41 -22 68 -67 95c-47 29 -90 67 -90 144c0 102 76 175 173 175c55 0 102 -18 128 -49z" />
    <glyph glyph-name="mu" unicode="&#xb5;" horiz-adv-x="578" 
d="M502 0h-89c-2 24 -4 58 -4 78h-2c-24 -50 -86 -91 -155 -91c-33 0 -66 12 -83 30v-257h-94v714h94v-262c0 -78 21 -146 108 -146c75 0 127 62 127 156v252h94v-372c0 -25 1 -71 4 -102z" />
    <glyph glyph-name="Racute" unicode="&#x154;" horiz-adv-x="487" 
d="M497 547c0 -115 -65 -196 -156 -218l94 -329h-90l-84 318h-84l-55 -318h-84l123 708h163c110 0 173 -53 173 -161zM414 536c0 70 -43 99 -101 99h-81l-43 -250h85c80 0 140 59 140 151zM466 908l-132 -144h-67l115 144h84z" />
    <glyph glyph-name="aacute.sc" horiz-adv-x="413" 
d="M360 0h-84l-5 124h-156l-53 -124h-86l248 556h109zM272 189l-8 290h-3l-122 -290h133zM441 760l-132 -144h-67l115 144h84z" />
    <glyph glyph-name="Dcaron" unicode="&#x10e;" horiz-adv-x="545" 
d="M533 438c0 -241 -120 -438 -335 -438h-160l123 708h160c147 0 212 -112 212 -270zM446 433c0 125 -48 200 -139 200h-75l-96 -558h75c139 0 235 163 235 358zM498 907l-129 -144h-80l-80 144h69l53 -101l89 101h78z" />
    <glyph glyph-name="plusminus" unicode="&#xb1;" horiz-adv-x="666" 
d="M70 338v81h223v150h81v-150h222v-81h-222v-147h-81v147h-223zM70 40v81h526v-81h-526z" />
    <glyph glyph-name="abreve" unicode="&#x103;" horiz-adv-x="409" 
d="M370 385c0 -24 -3 -47 -8 -76l-35 -204c-4 -24 -13 -86 -14 -105h-69c1 19 8 63 12 85h-2c-25 -62 -68 -98 -131 -98c-57 0 -102 38 -102 118c0 159 130 205 233 205h34c6 37 8 49 8 60c0 54 -26 78 -68 78c-37 0 -74 -21 -102 -51l-36 50c38 43 100 71 152 71
c88 0 128 -50 128 -133zM280 248h-38c-69 0 -145 -31 -145 -131c0 -44 24 -64 54 -64c71 0 111 94 123 165zM405 708c-28 -95 -84 -133 -153 -133c-66 0 -116 38 -116 133h56c0 -52 28 -74 64 -74c44 0 74 20 93 74h56z" />
    <glyph glyph-name="q.sc" horiz-adv-x="481" 
d="M458 361c0 -102 -45 -242 -118 -284v-2h101l-12 -75h-216c-106 0 -163 69 -163 193c0 179 91 375 246 375c109 0 162 -85 162 -207zM288 495c-96 0 -151 -179 -151 -298c0 -71 22 -127 83 -127c96 0 151 177 151 296c0 71 -22 129 -83 129z" />
    <glyph glyph-name="Aogonek" unicode="&#x104;" horiz-adv-x="481" 
d="M420 -144l12 -42c-26 -22 -59 -36 -91 -36c-49 0 -85 28 -76 83c11 57 65 105 111 139h-32l-7 168h-210l-74 -168h-88l318 708h113l35 -708h-1c-59 -51 -91 -84 -97 -121c-5 -26 11 -44 35 -44c18 0 36 7 52 21zM338 236l-12 392h-4l-169 -392h185z" />
    <glyph glyph-name="lozenge" unicode="&#x25ca;" horiz-adv-x="593" 
d="M511 356l-174 -391h-82l-173 391l173 391h82zM424 356l-128 305l-127 -305l127 -305z" />
    <glyph glyph-name="exclamdown.sc" horiz-adv-x="260" 
d="M224 517c0 -30 -22 -60 -54 -60c-28 0 -45 20 -45 46c0 34 23 59 55 59c29 0 44 -21 44 -45zM195 378l-66 -378h-82l66 378h82z" />
    <glyph glyph-name="zdotaccent" unicode="&#x17c;" horiz-adv-x="341" 
d="M357 501l-12 -68l-265 -363h204l-13 -70h-291l13 70l263 361h-184l12 70h273zM289 658c0 -35 -25 -63 -58 -63c-29 0 -46 23 -46 48c0 32 24 63 57 63c29 0 47 -20 47 -48z" />
    <glyph glyph-name="jcircumflex.sc" horiz-adv-x="341" 
d="M337 556l-69 -395c-19 -107 -56 -173 -154 -173c-73 0 -113 43 -128 97l73 31c6 -24 22 -49 56 -49c47 0 60 39 71 103l66 386h85zM443 616h-70l-54 101l-88 -101h-77l130 144h80z" />
    <glyph glyph-name="Eacute" unicode="&#xc9;" horiz-adv-x="416" 
d="M449 708l-13 -76h-206l-40 -229h196l-13 -71h-195l-44 -255h222l-13 -77h-305l123 708h288zM459 908l-132 -144h-67l115 144h84z" />
    <glyph glyph-name="Ydieresis" unicode="&#x178;" horiz-adv-x="425" 
d="M509 708l-252 -423l-49 -285h-85l49 285l-102 423h91l66 -335h2l185 335h95zM278 850c0 -32 -23 -58 -53 -58c-27 0 -43 22 -43 45c0 29 22 57 53 57c26 0 43 -18 43 -44zM432 850c0 -32 -23 -58 -53 -58c-27 0 -43 22 -43 45c0 29 22 57 53 57c26 0 43 -18 43 -44z" />
    <glyph glyph-name="zacute" unicode="&#x17a;" horiz-adv-x="341" 
d="M357 501l-12 -68l-265 -363h204l-13 -70h-291l13 70l263 361h-184l12 70h273zM370 715l-132 -144h-67l115 144h84z" />
    <glyph glyph-name="Zacute" unicode="&#x179;" horiz-adv-x="405" 
d="M454 708l-12 -73l-346 -557h252l-13 -78h-349l12 73l348 559h-236l13 76h331zM425 908l-132 -144h-67l115 144h84z" />
    <glyph glyph-name="minus" unicode="&#x2212;" horiz-adv-x="666" 
d="M596 344v-82h-526v82h526z" />
    <glyph glyph-name="uogonek" unicode="&#x173;" horiz-adv-x="477" 
d="M355 -144l12 -42c-26 -22 -59 -36 -91 -36c-49 0 -85 28 -76 83c11 57 65 105 111 139h-27c2 19 8 57 13 89h-2c-26 -59 -77 -106 -139 -106c-77 0 -105 60 -105 122c0 18 3 49 8 76l55 320h82l-55 -320c-3 -18 -6 -37 -6 -56c0 -38 12 -69 56 -69c59 0 111 67 126 157
l50 288h81l-65 -374c-3 -21 -16 -108 -19 -127h1c-59 -51 -91 -84 -97 -121c-5 -26 11 -44 35 -44c18 0 36 7 52 21z" />
    <glyph glyph-name="Dcroat" unicode="&#x110;" horiz-adv-x="545" 
d="M96 334h-59l11 61h59l54 313h160c147 0 212 -112 212 -270c0 -241 -120 -438 -335 -438h-160zM181 334l-45 -259h75c139 0 235 163 235 358c0 125 -48 200 -139 200h-75l-41 -238h132l-11 -61h-131z" />
    <glyph glyph-name="lacute.sc" horiz-adv-x="325" 
d="M287 77l-14 -77h-239l96 556h85l-83 -479h155zM342 760l-132 -144h-67l115 144h84z" />
    <glyph glyph-name="uni2215" unicode="&#x2215;" horiz-adv-x="100" 
d="M298 722l-408 -745l-52 15l409 745z" />
    <glyph glyph-name="Uogonek" unicode="&#x172;" horiz-adv-x="551" 
d="M279 -144l12 -42c-26 -22 -59 -36 -91 -36c-49 0 -85 28 -76 83c9 49 50 91 91 124c-106 11 -152 87 -152 183c0 22 2 47 7 76l81 464h86l-80 -455c-4 -24 -7 -49 -7 -72c0 -64 22 -119 99 -119c102 0 137 94 154 191l80 455h86l-81 -464c-24 -136 -81 -246 -217 -259
c-48 -43 -74 -73 -79 -106c-5 -26 11 -44 35 -44c18 0 36 7 52 21z" />
    <glyph glyph-name="ecaron" unicode="&#x11b;" horiz-adv-x="431" 
d="M401 355c0 -26 -1 -55 -13 -126h-261c-3 -20 -5 -40 -5 -58c0 -66 23 -112 76 -112c45 0 76 33 98 71l58 -37c-37 -64 -88 -110 -165 -110c-93 0 -150 67 -150 183c0 172 89 352 226 352c97 0 136 -67 136 -163zM324 353c0 56 -20 92 -65 92c-68 0 -109 -93 -119 -149
h178c4 22 6 40 6 57zM453 714l-129 -144h-80l-80 144h69l53 -101l89 101h78z" />
    <glyph glyph-name="Amacron" unicode="&#x100;" horiz-adv-x="481" 
d="M431 0h-87l-7 168h-210l-74 -168h-88l318 708h113zM338 236l-12 392h-4l-169 -392h185zM480 807h-258l10 57h258z" />
    <glyph glyph-name="zacute.sc" horiz-adv-x="354" 
d="M376 556l-13 -69l-258 -411h189l-13 -76h-286l12 70l262 412h-178l14 74h271zM397 760l-132 -144h-67l115 144h84z" />
    <glyph glyph-name="Odieresis" unicode="&#xd6;" horiz-adv-x="573" 
d="M561 461c0 -228 -120 -478 -305 -478c-127 0 -198 105 -198 259c0 227 114 482 305 482c131 0 198 -108 198 -263zM468 448c0 97 -16 199 -110 199c-134 0 -209 -245 -209 -410c0 -96 30 -175 113 -175c127 0 206 217 206 386zM365 850c0 -32 -23 -58 -53 -58
c-27 0 -43 22 -43 45c0 29 22 57 53 57c26 0 43 -18 43 -44zM519 850c0 -32 -23 -58 -53 -58c-27 0 -43 22 -43 45c0 29 22 57 53 57c26 0 43 -18 43 -44z" />
    <glyph glyph-name="six.onum" horiz-adv-x="490" 
d="M205 417l2 -1c25 22 59 30 95 30c92 0 149 -71 149 -175c0 -156 -89 -284 -232 -284c-109 0 -173 80 -173 188c0 204 163 404 331 540l58 -53c-78 -58 -180 -157 -230 -245zM363 268c0 65 -28 112 -92 112c-87 0 -139 -108 -139 -202c0 -69 34 -119 93 -119
c86 0 138 104 138 209z" />
    <glyph glyph-name="approxequal" unicode="&#x2248;" horiz-adv-x="666" 
d="M599 440c-8 -79 -46 -155 -137 -155c-41 0 -92 18 -140 36c-48 17 -93 35 -125 35c-41 0 -65 -38 -71 -74h-59c9 77 47 156 136 156c43 0 90 -17 136 -35c47 -17 93 -35 132 -35c42 0 63 34 70 72h58zM599 240c-8 -79 -46 -155 -137 -155c-41 0 -92 18 -140 36
c-48 17 -93 35 -125 35c-41 0 -65 -38 -71 -74h-59c9 77 47 156 136 156c43 0 90 -17 136 -35c47 -17 93 -35 132 -35c42 0 63 34 70 72h58z" />
    <glyph glyph-name="Uring" unicode="&#x16e;" horiz-adv-x="551" 
d="M569 708l-81 -464c-25 -144 -88 -261 -244 -261c-126 0 -181 81 -181 185c0 22 2 47 7 76l81 464h86l-80 -455c-4 -24 -7 -49 -7 -72c0 -64 22 -119 99 -119c102 0 137 94 154 191l80 455h86zM475 867c0 -63 -46 -118 -106 -118c-54 0 -82 35 -82 84c0 66 43 121 102 121
c57 0 86 -39 86 -87zM436 864c0 28 -15 54 -48 54c-40 0 -63 -41 -63 -82c0 -28 15 -51 47 -51c38 0 64 40 64 79z" />
    <glyph glyph-name="k.sc" horiz-adv-x="415" 
d="M460 556l-216 -265l130 -291h-94l-114 273h-2l-47 -273h-83l96 556h83l-42 -244h2l191 244h96z" />
    <glyph glyph-name="tcommaaccent.sc" horiz-adv-x="307" 
d="M143 -45l-95 -185h-65l86 185h74zM357 556l-12 -72h-104l-85 -484h-84l85 484h-105l13 72h292z" />
    <glyph glyph-name="udieresis" unicode="&#xfc;" horiz-adv-x="477" 
d="M317 213l50 288h81l-65 -374c-3 -21 -16 -108 -19 -127h-80c2 19 8 57 13 89h-2c-26 -59 -77 -106 -139 -106c-77 0 -105 60 -105 122c0 18 3 49 8 76l55 320h82l-55 -320c-3 -18 -6 -37 -6 -56c0 -38 12 -69 56 -69c59 0 111 67 126 157zM276 657c0 -32 -23 -58 -53 -58
c-27 0 -43 22 -43 45c0 29 22 57 53 57c26 0 43 -18 43 -44zM430 657c0 -32 -23 -58 -53 -58c-27 0 -43 22 -43 45c0 29 22 57 53 57c26 0 43 -18 43 -44z" />
    <glyph glyph-name="scircumflex" unicode="&#x15d;" horiz-adv-x="347" 
d="M349 474l-46 -56c-17 23 -43 35 -80 35c-43 0 -82 -32 -82 -84c0 -44 22 -59 64 -82c54 -30 95 -67 95 -135c0 -115 -82 -169 -175 -169c-58 0 -110 27 -137 63l54 53c19 -24 46 -48 91 -48c48 0 87 32 87 88c0 47 -34 74 -74 94c-47 24 -83 62 -83 126
c0 99 76 159 170 159c55 0 93 -19 116 -44zM393 571h-70l-54 101l-88 -101h-77l130 144h80z" />
    <glyph glyph-name="r.sc" horiz-adv-x="420" 
d="M410 424c0 -88 -48 -151 -118 -170l72 -254h-88l-60 242h-58l-43 -242h-81l96 556h138c90 0 142 -44 142 -132zM329 413c0 52 -32 72 -73 72h-57l-30 -181h59c57 0 101 42 101 109z" />
    <glyph glyph-name="integral" unicode="&#x222b;" horiz-adv-x="574" 
d="M442 723c0 -25 -19 -42 -44 -42c-48 0 -40 55 -63 55c-25 0 -26 -50 -26 -86c0 -34 2 -67 2 -86v-568c-1 -94 -17 -209 -132 -209c-34 0 -83 14 -83 60c0 23 19 41 42 41c47 0 39 -54 61 -54c25 0 25 65 25 89c0 26 -2 51 -2 65c0 4 1 8 1 12v499c0 22 -1 48 -1 75
c0 98 13 212 132 212c31 0 88 -18 88 -63z" />
    <glyph glyph-name="yacute" unicode="&#xfd;" horiz-adv-x="390" 
d="M423 501l-258 -595c-39 -90 -79 -146 -159 -146c-18 0 -34 3 -47 8l16 73c8 -4 18 -6 31 -6c39 0 60 25 78 69l34 81l-58 516h85l30 -406h2l162 406h84zM407 715l-132 -144h-67l115 144h84z" />
    <glyph glyph-name="lslash.sc" horiz-adv-x="325" 
d="M287 77l-14 -77h-239l40 236l-50 -45l13 75l50 41l43 249h85l-32 -183l124 105l-14 -75l-122 -99l-39 -227h155z" />
    <glyph glyph-name="Umacron" unicode="&#x16a;" horiz-adv-x="551" 
d="M569 708l-81 -464c-25 -144 -88 -261 -244 -261c-126 0 -181 81 -181 185c0 22 2 47 7 76l81 464h86l-80 -455c-4 -24 -7 -49 -7 -72c0 -64 22 -119 99 -119c102 0 137 94 154 191l80 455h86zM505 807h-258l10 57h258z" />
    <glyph glyph-name="scaron.sc" horiz-adv-x="369" 
d="M380 519l-54 -61c-19 24 -45 36 -76 36c-39 0 -87 -30 -87 -96c0 -40 23 -62 60 -85c47 -29 97 -69 97 -145c0 -117 -79 -180 -175 -180c-60 0 -115 24 -143 59l54 62c21 -27 53 -46 88 -46c48 0 92 32 92 91c0 41 -22 68 -67 95c-47 29 -90 67 -90 144
c0 102 76 175 173 175c55 0 102 -18 128 -49zM432 759l-129 -144h-80l-80 144h69l53 -101l89 101h78z" />
    <glyph glyph-name="iacute" unicode="&#xed;" horiz-adv-x="226" 
d="M201 501l-87 -501h-81l87 501h81zM326 715l-132 -144h-67l115 144h84z" />
    <glyph glyph-name="icircumflex.sc" horiz-adv-x="223" 
d="M216 556l-98 -556h-84l96 556h86zM324 616h-70l-54 101l-88 -101h-77l130 144h80z" />
    <glyph glyph-name="itilde.sc" horiz-adv-x="223" 
d="M216 556l-98 -556h-84l96 556h86zM336 734c-15 -67 -51 -106 -95 -106c-22 0 -37 6 -61 24c-26 20 -35 22 -51 22c-20 0 -33 -16 -42 -46h-45c15 65 51 106 95 106c24 0 39 -7 62 -24c27 -19 36 -23 52 -23c21 0 32 14 41 47h44z" />
    <glyph glyph-name="Edieresis" unicode="&#xcb;" horiz-adv-x="416" 
d="M449 708l-13 -76h-206l-40 -229h196l-13 -71h-195l-44 -255h222l-13 -77h-305l123 708h288zM292 850c0 -32 -23 -58 -53 -58c-27 0 -43 22 -43 45c0 29 22 57 53 57c26 0 43 -18 43 -44zM446 850c0 -32 -23 -58 -53 -58c-27 0 -43 22 -43 45c0 29 22 57 53 57
c26 0 43 -18 43 -44z" />
    <glyph glyph-name="Ograve" unicode="&#xd2;" horiz-adv-x="573" 
d="M561 461c0 -228 -120 -478 -305 -478c-127 0 -198 105 -198 259c0 227 114 482 305 482c131 0 198 -108 198 -263zM468 448c0 97 -16 199 -110 199c-134 0 -209 -245 -209 -410c0 -96 30 -175 113 -175c127 0 206 217 206 386zM249 908h84l103 -144h-67z" />
    <glyph glyph-name="Scaron" unicode="&#x160;" horiz-adv-x="434" 
d="M463 661l-58 -61c-25 32 -57 47 -99 47c-56 0 -123 -44 -123 -136c0 -57 32 -89 81 -119c63 -39 124 -90 124 -184c0 -143 -94 -225 -215 -225c-72 0 -139 33 -173 79l58 62c27 -38 68 -62 115 -62c67 0 128 45 128 129c0 58 -29 96 -90 133c-59 36 -114 84 -114 180
c0 136 97 221 213 221c66 0 121 -23 153 -64zM487 907l-129 -144h-80l-80 144h69l53 -101l89 101h78z" />
    <glyph glyph-name="s.sc" horiz-adv-x="369" 
d="M380 519l-54 -61c-19 24 -45 36 -76 36c-39 0 -87 -30 -87 -96c0 -40 23 -62 60 -85c47 -29 97 -69 97 -145c0 -117 -79 -180 -175 -180c-60 0 -115 24 -143 59l54 62c21 -27 53 -46 88 -46c48 0 92 32 92 91c0 41 -22 68 -67 95c-47 29 -90 67 -90 144
c0 102 76 175 173 175c55 0 102 -18 128 -49z" />
    <glyph glyph-name="ldot" unicode="&#x140;" horiz-adv-x="306" 
d="M247 756l-131 -756h-82l131 756h82zM344 468c0 -35 -25 -63 -58 -63c-29 0 -46 23 -46 48c0 32 24 63 57 63c29 0 47 -20 47 -48z" />
    <glyph glyph-name="hbar.sc" horiz-adv-x="483" 
d="M476 556l-97 -556h-84l45 251h-178l-45 -251h-83l96 556h84l-18 -100h178l17 100h85zM174 326h178l12 74h-177z" />
    <glyph glyph-name="y.sc" horiz-adv-x="365" 
d="M427 556l-200 -339l-37 -217h-85l38 217l-80 339h90l45 -255h2l135 255h92z" />
    <glyph glyph-name="kcommaaccent.sc" horiz-adv-x="415" 
d="M236 -45l-95 -185h-65l86 185h74zM460 556l-216 -265l130 -291h-94l-114 273h-2l-47 -273h-83l96 556h83l-42 -244h2l191 244h96z" />
    <glyph glyph-name="Ugrave" unicode="&#xd9;" horiz-adv-x="551" 
d="M569 708l-81 -464c-25 -144 -88 -261 -244 -261c-126 0 -181 81 -181 185c0 22 2 47 7 76l81 464h86l-80 -455c-4 -24 -7 -49 -7 -72c0 -64 22 -119 99 -119c102 0 137 94 154 191l80 455h86zM221 908h84l103 -144h-67z" />
    <glyph glyph-name="afii61289" unicode="&#x2113;" horiz-adv-x="500" 
d="M469 615c0 -118 -109 -240 -246 -343c-32 -135 -33 -155 -33 -169c0 -41 26 -54 51 -54c28 0 55 11 99 41h2l22 -49c-51 -37 -95 -55 -146 -55c-69 0 -113 37 -113 102c0 15 2 33 23 128l-67 -57h-2l-25 49l110 83l54 256c25 116 90 174 169 174c60 0 102 -45 102 -106z
M398 610c0 30 -17 53 -40 53c-30 0 -57 -24 -73 -97l-46 -216c69 62 159 170 159 260z" />
    <glyph glyph-name="Egrave" unicode="&#xc8;" horiz-adv-x="416" 
d="M449 708l-13 -76h-206l-40 -229h196l-13 -71h-195l-44 -255h222l-13 -77h-305l123 708h288zM176 908h84l103 -144h-67z" />
    <glyph glyph-name="lcaron" unicode="&#x13e;" horiz-adv-x="287" 
d="M247 756l-131 -756h-82l131 756h82zM398 708l-95 -185h-65l86 185h74z" />
    <glyph glyph-name="zdotaccent.sc" horiz-adv-x="354" 
d="M376 556l-13 -69l-258 -411h189l-13 -76h-286l12 70l262 412h-178l14 74h271zM308 703c0 -35 -25 -63 -58 -63c-29 0 -46 23 -46 48c0 32 24 63 57 63c29 0 47 -20 47 -48z" />
    <glyph glyph-name="Acircumflex" unicode="&#xc2;" horiz-adv-x="481" 
d="M431 0h-87l-7 168h-210l-74 -168h-88l318 708h113zM338 236l-12 392h-4l-169 -392h185zM490 764h-70l-54 101l-88 -101h-77l130 144h80z" />
    <glyph glyph-name="uni00AD" unicode="&#xad;" horiz-adv-x="224" 
d="M192 231h-158l12 69h158z" />
    <glyph glyph-name="tcaron" unicode="&#x165;" horiz-adv-x="278" 
d="M285 501l-12 -66h-84l-50 -294c-2 -13 -4 -28 -4 -38c0 -33 14 -43 40 -43c12 0 28 4 38 8l-8 -65c-17 -6 -38 -11 -57 -11c-65 0 -95 36 -95 92c0 11 1 24 4 41l54 310h-69l11 66h67l23 134h79l-22 -134h85zM415 731l-95 -185h-65l86 185h74z" />
    <glyph glyph-name="Tbar" unicode="&#x166;" horiz-adv-x="349" 
d="M322 468h-65l-82 -468h-85l82 468h-73l10 57h73l19 109h-136l13 74h356l-13 -74h-135l-19 -109h65z" />
    <glyph glyph-name="exclam.sc" horiz-adv-x="260" 
d="M232 556l-66 -377h-82l66 377h82zM155 54c0 -34 -24 -59 -56 -59c-29 0 -44 21 -44 45c0 30 22 60 54 60c29 0 46 -20 46 -46z" />
    <glyph glyph-name="a.sc" horiz-adv-x="413" 
d="M360 0h-84l-5 124h-156l-53 -124h-86l248 556h109zM272 189l-8 290h-3l-122 -290h133z" />
    <glyph glyph-name="Omacron" unicode="&#x14c;" horiz-adv-x="573" 
d="M561 461c0 -228 -120 -478 -305 -478c-127 0 -198 105 -198 259c0 227 114 482 305 482c131 0 198 -108 198 -263zM468 448c0 97 -16 199 -110 199c-134 0 -209 -245 -209 -410c0 -96 30 -175 113 -175c127 0 206 217 206 386zM519 807h-258l10 57h258z" />
    <glyph glyph-name="Obreve" unicode="&#x14e;" horiz-adv-x="573" 
d="M561 461c0 -228 -120 -478 -305 -478c-127 0 -198 105 -198 259c0 227 114 482 305 482c131 0 198 -108 198 -263zM468 448c0 97 -16 199 -110 199c-134 0 -209 -245 -209 -410c0 -96 30 -175 113 -175c127 0 206 217 206 386zM533 901c-28 -95 -84 -133 -153 -133
c-66 0 -116 38 -116 133h56c0 -52 28 -74 64 -74c44 0 74 20 93 74h56z" />
    <glyph glyph-name="h.sc" horiz-adv-x="483" 
d="M476 556l-97 -556h-84l45 251h-178l-45 -251h-83l96 556h84l-40 -230h178l39 230h85z" />
    <glyph glyph-name="m.sc" horiz-adv-x="602" 
d="M595 556l-98 -556h-84l78 436h-3l-191 -436h-73l-35 436h-2l-77 -436h-76l98 556h117l34 -423h3l184 423h125z" />
    <glyph glyph-name="kcommaaccent" unicode="&#x137;" horiz-adv-x="419" 
d="M449 501l-215 -237l138 -264h-91l-123 248h-2l-41 -248h-81l131 756h81l-84 -473h2l186 218h99zM227 -45l-95 -185h-65l86 185h74z" />
    <glyph glyph-name="tilde.sc" 
d="M331 734c-15 -67 -51 -106 -95 -106c-22 0 -37 6 -61 24c-26 20 -35 22 -51 22c-20 0 -33 -16 -42 -46h-45c15 65 51 106 95 106c24 0 39 -7 62 -24c27 -19 36 -23 52 -23c21 0 32 14 41 47h44z" />
    <glyph glyph-name="hcircumflex" unicode="&#x125;" horiz-adv-x="481" 
d="M432 396c0 -18 -3 -49 -8 -76l-55 -320h-82l55 320c3 18 6 37 6 56c0 38 -12 69 -56 69c-59 0 -111 -67 -126 -157l-50 -288h-82l131 756h82l-60 -342h2c25 57 76 104 138 104c77 0 105 -60 105 -122zM475 803h-70l-54 101l-88 -101h-77l130 144h80z" />
    <glyph glyph-name="ubreve" unicode="&#x16d;" horiz-adv-x="477" 
d="M317 213l50 288h81l-65 -374c-3 -21 -16 -108 -19 -127h-80c2 19 8 57 13 89h-2c-26 -59 -77 -106 -139 -106c-77 0 -105 60 -105 122c0 18 3 49 8 76l55 320h82l-55 -320c-3 -18 -6 -37 -6 -56c0 -38 12 -69 56 -69c59 0 111 67 126 157zM442 708
c-28 -95 -84 -133 -153 -133c-66 0 -116 38 -116 133h56c0 -52 28 -74 64 -74c44 0 74 20 93 74h56z" />
    <glyph glyph-name="Rcaron" unicode="&#x158;" horiz-adv-x="487" 
d="M497 547c0 -115 -65 -196 -156 -218l94 -329h-90l-84 318h-84l-55 -318h-84l123 708h163c110 0 173 -53 173 -161zM414 536c0 70 -43 99 -101 99h-81l-43 -250h85c80 0 140 59 140 151zM498 907l-129 -144h-80l-80 144h69l53 -101l89 101h78z" />
    <glyph glyph-name="Thorn" unicode="&#xde;" horiz-adv-x="470" 
d="M466 422c0 -151 -86 -238 -213 -238h-98l-32 -184h-85l123 708h85l-22 -122h79c93 0 163 -52 163 -164zM381 411c0 61 -29 101 -92 101h-77l-44 -257h83c81 0 130 59 130 156z" />
    <glyph glyph-name="grave.cap" 
d="M47 908h84l103 -144h-67z" />
    <glyph glyph-name="Scedilla" unicode="&#x15e;" horiz-adv-x="434" 
d="M463 661l-58 -61c-25 32 -57 47 -99 47c-56 0 -123 -44 -123 -136c0 -57 32 -89 81 -119c63 -39 124 -90 124 -184c0 -135 -83 -215 -194 -224l-43 -56c9 3 18 3 31 3c36 0 74 -20 65 -72c-12 -69 -80 -89 -130 -89c-27 0 -62 6 -87 19l24 41c18 -10 43 -14 66 -14
c20 0 57 10 63 41c4 25 -14 37 -41 37c-13 0 -29 -3 -42 -8l-16 17l63 82c-62 7 -117 36 -147 77l58 62c27 -38 68 -62 115 -62c67 0 128 45 128 129c0 58 -29 96 -90 133c-59 36 -114 84 -114 180c0 136 97 221 213 221c66 0 121 -23 153 -64z" />
    <glyph glyph-name="Gbreve" unicode="&#x11e;" horiz-adv-x="534" 
d="M539 639l-65 -58c-21 43 -57 65 -103 65c-141 0 -222 -233 -222 -397c0 -111 40 -186 125 -186c39 0 74 12 95 28l39 222h-95l14 75h177l-59 -344c-47 -34 -107 -59 -185 -59c-132 0 -202 105 -202 262c0 225 131 477 323 477c74 0 129 -28 158 -85zM540 901
c-28 -95 -84 -133 -153 -133c-66 0 -116 38 -116 133h56c0 -52 28 -74 64 -74c44 0 74 20 93 74h56z" />
    <glyph glyph-name="acircumflex" unicode="&#xe2;" horiz-adv-x="409" 
d="M370 385c0 -24 -3 -47 -8 -76l-35 -204c-4 -24 -13 -86 -14 -105h-69c1 19 8 63 12 85h-2c-25 -62 -68 -98 -131 -98c-57 0 -102 38 -102 118c0 159 130 205 233 205h34c6 37 8 49 8 60c0 54 -26 78 -68 78c-37 0 -74 -21 -102 -51l-36 50c38 43 100 71 152 71
c88 0 128 -50 128 -133zM280 248h-38c-69 0 -145 -31 -145 -131c0 -44 24 -64 54 -64c71 0 111 94 123 165zM405 571h-70l-54 101l-88 -101h-77l130 144h80z" />
    <glyph glyph-name="Agrave" unicode="&#xc0;" horiz-adv-x="481" 
d="M431 0h-87l-7 168h-210l-74 -168h-88l318 708h113zM338 236l-12 392h-4l-169 -392h185zM209 908h84l103 -144h-67z" />
    <glyph glyph-name="Aacute" unicode="&#xc1;" horiz-adv-x="481" 
d="M431 0h-87l-7 168h-210l-74 -168h-88l318 708h113zM338 236l-12 392h-4l-169 -392h185zM491 908l-132 -144h-67l115 144h84z" />
    <glyph glyph-name="seven.onum" horiz-adv-x="420" 
d="M441 556l-13 -73c-128 -227 -249 -448 -346 -643l-85 18c95 184 252 470 338 618h-270l14 80h362z" />
    <glyph glyph-name="tbar.sc" horiz-adv-x="307" 
d="M357 556l-12 -72h-104l-18 -98h71l-8 -50h-71l-59 -336h-84l59 336h-70l8 50h70l18 98h-105l13 72h292z" />
    <glyph glyph-name="acute.cap" 
d="M318 908l-132 -144h-67l115 144h84z" />
    <glyph glyph-name="Emacron" unicode="&#x112;" horiz-adv-x="416" 
d="M449 708l-13 -76h-206l-40 -229h196l-13 -71h-195l-44 -255h222l-13 -77h-305l123 708h288zM441 807h-258l10 57h258z" />
    <glyph glyph-name="wcircumflex.sc" horiz-adv-x="639" 
d="M686 556l-212 -556h-101l-12 427l-163 -427h-102l-16 556h89v-452h2l169 452h86l14 -452h1l157 452h88zM537 616h-70l-54 101l-88 -101h-77l130 144h80z" />
    <glyph glyph-name="ebreve.sc" horiz-adv-x="356" 
d="M367 556l-13 -74h-155l-28 -161h146l-12 -68h-146l-31 -178h168l-13 -75h-249l96 556h237zM405 753c-28 -95 -84 -133 -153 -133c-66 0 -116 38 -116 133h56c0 -52 28 -74 64 -74c44 0 74 20 93 74h56z" />
    <glyph glyph-name="ncommaaccent.sc" horiz-adv-x="476" 
d="M246 -45l-95 -185h-65l86 185h74zM469 556l-97 -556h-96l-93 408h-2l-70 -408h-77l96 556h97l92 -409h3l70 409h77z" />
    <glyph glyph-name="logicalnot" unicode="&#xac;" horiz-adv-x="666" 
d="M596 426v-287h-81v206h-445v81h526z" />
    <glyph glyph-name="Ccedilla" unicode="&#xc7;" horiz-adv-x="479" 
d="M539 641l-64 -58c-23 41 -57 62 -104 62c-140 0 -222 -226 -222 -393c0 -110 38 -190 123 -190c59 0 100 37 125 67l46 -56c-44 -50 -95 -83 -165 -89l-43 -56c9 3 18 3 31 3c36 0 74 -20 65 -72c-12 -69 -80 -89 -130 -89c-27 0 -62 6 -87 19l24 41
c18 -10 43 -14 66 -14c20 0 57 10 63 41c4 25 -14 37 -41 37c-13 0 -29 -3 -42 -8l-16 17l63 82c-112 13 -173 119 -173 263c0 234 132 476 323 476c71 0 128 -28 158 -83z" />
    <glyph glyph-name="three.onum" horiz-adv-x="430" 
d="M412 469c-50 -47 -152 -135 -216 -188l1 -3c7 2 15 3 27 3c100 0 152 -86 152 -181c0 -138 -94 -260 -278 -260c-31 0 -65 2 -89 7l17 79c18 -5 48 -8 74 -8c86 0 187 41 187 176c0 63 -28 119 -120 119c-30 0 -59 -5 -85 -12l-5 70c79 62 186 154 241 204l1 4h-228
l13 77h323z" />
    <glyph glyph-name="Rcommaaccent" unicode="&#x156;" horiz-adv-x="487" 
d="M497 547c0 -115 -65 -196 -156 -218l94 -329h-90l-84 318h-84l-55 -318h-84l123 708h163c110 0 173 -53 173 -161zM414 536c0 70 -43 99 -101 99h-81l-43 -250h85c80 0 140 59 140 151zM254 -45l-95 -185h-65l86 185h74z" />
    <glyph glyph-name="Gcircumflex" unicode="&#x11c;" horiz-adv-x="534" 
d="M539 639l-65 -58c-21 43 -57 65 -103 65c-141 0 -222 -233 -222 -397c0 -111 40 -186 125 -186c39 0 74 12 95 28l39 222h-95l14 75h177l-59 -344c-47 -34 -107 -59 -185 -59c-132 0 -202 105 -202 262c0 225 131 477 323 477c74 0 129 -28 158 -85zM536 764h-70l-54 101
l-88 -101h-77l130 144h80z" />
    <glyph glyph-name="Uhungarumlaut" unicode="&#x170;" horiz-adv-x="551" 
d="M569 708l-81 -464c-25 -144 -88 -261 -244 -261c-126 0 -181 81 -181 185c0 22 2 47 7 76l81 464h86l-80 -455c-4 -24 -7 -49 -7 -72c0 -64 22 -119 99 -119c102 0 137 94 154 191l80 455h86zM456 908l-133 -144h-65l115 144h83zM593 908l-132 -144h-65l115 144h82z" />
    <glyph glyph-name="partialdiff" unicode="&#x2202;" horiz-adv-x="523" 
d="M481 360c0 -157 -38 -372 -238 -372c-129 0 -208 102 -208 225c0 121 78 216 203 216c61 0 115 -27 156 -70c0 13 1 27 1 41c0 104 -37 251 -167 251c-46 0 -81 -19 -116 -47c-16 18 -31 37 -47 55c49 39 96 62 159 62c199 0 257 -196 257 -361zM391 271
c-30 55 -82 90 -142 90c-87 0 -131 -72 -131 -152c0 -76 41 -155 127 -155c106 0 144 131 146 217z" />
    <glyph glyph-name="Delta" unicode="&#x2206;" horiz-adv-x="678" 
d="M667 0h-656l276 712h95zM540 83l-207 530l-199 -530h406z" />
    <glyph glyph-name="agrave" unicode="&#xe0;" horiz-adv-x="409" 
d="M370 385c0 -24 -3 -47 -8 -76l-35 -204c-4 -24 -13 -86 -14 -105h-69c1 19 8 63 12 85h-2c-25 -62 -68 -98 -131 -98c-57 0 -102 38 -102 118c0 159 130 205 233 205h34c6 37 8 49 8 60c0 54 -26 78 -68 78c-37 0 -74 -21 -102 -51l-36 50c38 43 100 71 152 71
c88 0 128 -50 128 -133zM280 248h-38c-69 0 -145 -31 -145 -131c0 -44 24 -64 54 -64c71 0 111 94 123 165zM135 715h84l103 -144h-67z" />
    <glyph glyph-name="one.onum" horiz-adv-x="370" 
d="M301 556l-95 -556h-84l80 460l-108 -65l-28 64l159 97h76z" />
    <glyph glyph-name="ntilde.sc" horiz-adv-x="476" 
d="M469 556l-97 -556h-96l-93 408h-2l-70 -408h-77l96 556h97l92 -409h3l70 409h77zM467 734c-15 -67 -51 -106 -95 -106c-22 0 -37 6 -61 24c-26 20 -35 22 -51 22c-20 0 -33 -16 -42 -46h-45c15 65 51 106 95 106c24 0 39 -7 62 -24c27 -19 36 -23 52 -23
c21 0 32 14 41 47h44z" />
    <glyph glyph-name="w.sc" horiz-adv-x="639" 
d="M686 556l-212 -556h-101l-12 427l-163 -427h-102l-16 556h89v-452h2l169 452h86l14 -452h1l157 452h88z" />
    <glyph glyph-name="acute.sc" 
d="M318 760l-132 -144h-67l115 144h84z" />
    <glyph glyph-name="Tcaron" unicode="&#x164;" horiz-adv-x="349" 
d="M434 708l-13 -74h-135l-111 -634h-85l111 634h-136l13 74h356zM433 907l-129 -144h-80l-80 144h69l53 -101l89 101h78z" />
    <glyph glyph-name="scaron" unicode="&#x161;" horiz-adv-x="347" 
d="M349 474l-46 -56c-17 23 -43 35 -80 35c-43 0 -82 -32 -82 -84c0 -44 22 -59 64 -82c54 -30 95 -67 95 -135c0 -115 -82 -169 -175 -169c-58 0 -110 27 -137 63l54 53c19 -24 46 -48 91 -48c48 0 87 32 87 88c0 47 -34 74 -74 94c-47 24 -83 62 -83 126
c0 99 76 159 170 159c55 0 93 -19 116 -44zM409 714l-129 -144h-80l-80 144h69l53 -101l89 101h78z" />
    <glyph glyph-name="CR" unicode="&#xd;" horiz-adv-x="0" 
 />
    <glyph glyph-name="Lcaron" unicode="&#x13d;" horiz-adv-x="370" 
d="M338 80l-14 -80h-286l123 708h86l-109 -628h200zM425 708l-95 -185h-65l86 185h74z" />
    <glyph glyph-name="scedilla" unicode="&#x15f;" horiz-adv-x="347" 
d="M349 474l-46 -56c-17 23 -43 35 -80 35c-43 0 -82 -32 -82 -84c0 -44 22 -59 64 -82c54 -30 95 -67 95 -135c0 -105 -68 -158 -150 -167l-44 -57c9 3 18 3 31 3c36 0 74 -20 65 -72c-12 -69 -80 -89 -130 -89c-27 0 -62 6 -87 19l24 41c18 -10 43 -14 66 -14
c20 0 57 10 63 41c4 25 -14 37 -41 37c-13 0 -29 -3 -42 -8l-16 17l63 82c-49 6 -91 30 -114 61l54 53c19 -24 46 -48 91 -48c48 0 87 32 87 88c0 47 -34 74 -74 94c-47 24 -83 62 -83 126c0 99 76 159 170 159c55 0 93 -19 116 -44z" />
    <glyph glyph-name="onequarter" unicode="&#xbc;" horiz-adv-x="734" 
d="M616 96l-16 -96h-67l17 96h-159l11 65l180 277h95l-50 -281h50l-11 -61h-50zM598 366h-1l-129 -209h95zM618 722l-408 -745l-48 19l409 745zM306 708l-77 -438h-73l63 355l-83 -54l-24 56l129 81h65z" />
    <glyph glyph-name="Imacron" unicode="&#x12a;" horiz-adv-x="240" 
d="M247 708l-123 -708h-86l123 708h86zM345 807h-258l10 57h258z" />
    <glyph glyph-name="Sacute" unicode="&#x15a;" horiz-adv-x="434" 
d="M463 661l-58 -61c-25 32 -57 47 -99 47c-56 0 -123 -44 -123 -136c0 -57 32 -89 81 -119c63 -39 124 -90 124 -184c0 -143 -94 -225 -215 -225c-72 0 -139 33 -173 79l58 62c27 -38 68 -62 115 -62c67 0 128 45 128 129c0 58 -29 96 -90 133c-59 36 -114 84 -114 180
c0 136 97 221 213 221c66 0 121 -23 153 -64zM449 908l-132 -144h-67l115 144h84z" />
    <glyph glyph-name="Zdotaccent" unicode="&#x17b;" horiz-adv-x="405" 
d="M454 708l-12 -73l-346 -557h252l-13 -78h-349l12 73l348 559h-236l13 76h331zM357 851c0 -35 -25 -63 -58 -63c-29 0 -46 23 -46 48c0 32 24 63 57 63c29 0 47 -20 47 -48z" />
    <glyph glyph-name="four.sc" horiz-adv-x="425" 
d="M310 124l-22 -124h-78l22 124h-200l13 72l232 359h109l-64 -359h68l-12 -72h-68zM294 462h-3l-163 -266h118z" />
    <glyph glyph-name="Abreve" unicode="&#x102;" horiz-adv-x="481" 
d="M431 0h-87l-7 168h-210l-74 -168h-88l318 708h113zM338 236l-12 392h-4l-169 -392h185zM495 901c-28 -95 -84 -133 -153 -133c-66 0 -116 38 -116 133h56c0 -52 28 -74 64 -74c44 0 74 20 93 74h56z" />
    <glyph glyph-name="Euro.sc" horiz-adv-x="425" 
d="M429 552l-29 -68c-12 7 -36 14 -64 14c-62 0 -111 -45 -141 -127h166l-23 -55h-162c-6 -18 -12 -49 -14 -74h149l-21 -55h-129c0 -80 36 -126 97 -126c31 0 59 8 79 18l-3 -69c-17 -10 -50 -22 -88 -22c-108 0 -167 82 -167 199h-57l23 55h37c0 20 8 57 13 74h-48l22 55
h41c49 132 128 197 233 197c35 0 69 -7 86 -16z" />
    <glyph glyph-name="dotaccent.cap" 
d="M237 851c0 -35 -25 -63 -58 -63c-29 0 -46 23 -46 48c0 32 24 63 57 63c29 0 47 -20 47 -48z" />
    <glyph glyph-name="infinity" unicode="&#x221e;" horiz-adv-x="778" 
d="M681 260c0 49 -29 89 -82 89c-54 0 -107 -54 -143 -90c39 -38 88 -84 146 -84c50 0 79 37 79 85zM361 259c-37 35 -93 89 -147 89c-49 0 -78 -42 -78 -88c0 -50 31 -85 82 -85c52 0 109 49 143 84zM754 263c0 -97 -60 -174 -161 -174c-80 0 -135 51 -185 107
c-52 -56 -101 -106 -183 -106c-101 0 -164 74 -164 172c0 95 60 171 160 171c83 0 137 -55 187 -114c49 58 103 115 186 115c99 0 160 -76 160 -171z" />
    <glyph glyph-name="aogonek.sc" horiz-adv-x="413" 
d="M320 -144l12 -42c-26 -22 -59 -36 -91 -36c-45 0 -77 23 -77 69c0 61 65 116 112 153l-5 124h-156l-53 -124h-86l248 556h109l27 -556h-30c-60 -56 -98 -87 -98 -129c0 -25 15 -36 36 -36c18 0 36 7 52 21zM272 189l-8 290h-3l-122 -290h133z" />
    <glyph glyph-name="uni0394" unicode="&#x394;" horiz-adv-x="678" 
d="M667 0h-656l276 712h95zM540 83l-207 530l-199 -530h406z" />
    <glyph glyph-name="Ohungarumlaut" unicode="&#x150;" horiz-adv-x="573" 
d="M561 461c0 -228 -120 -478 -305 -478c-127 0 -198 105 -198 259c0 227 114 482 305 482c131 0 198 -108 198 -263zM468 448c0 97 -16 199 -110 199c-134 0 -209 -245 -209 -410c0 -96 30 -175 113 -175c127 0 206 217 206 386zM470 908l-133 -144h-65l115 144h83z
M607 908l-132 -144h-65l115 144h82z" />
    <glyph glyph-name="adieresis" unicode="&#xe4;" horiz-adv-x="409" 
d="M370 385c0 -24 -3 -47 -8 -76l-35 -204c-4 -24 -13 -86 -14 -105h-69c1 19 8 63 12 85h-2c-25 -62 -68 -98 -131 -98c-57 0 -102 38 -102 118c0 159 130 205 233 205h34c6 37 8 49 8 60c0 54 -26 78 -68 78c-37 0 -74 -21 -102 -51l-36 50c38 43 100 71 152 71
c88 0 128 -50 128 -133zM280 248h-38c-69 0 -145 -31 -145 -131c0 -44 24 -64 54 -64c71 0 111 94 123 165zM237 657c0 -32 -23 -58 -53 -58c-27 0 -43 22 -43 45c0 29 22 57 53 57c26 0 43 -18 43 -44zM391 657c0 -32 -23 -58 -53 -58c-27 0 -43 22 -43 45
c0 29 22 57 53 57c26 0 43 -18 43 -44z" />
    <glyph glyph-name="Omega" unicode="&#x2126;" horiz-adv-x="752" 
d="M693 0h-264v185c112 21 171 112 171 221c0 131 -97 232 -229 232c-133 0 -231 -101 -231 -233c0 -111 58 -197 169 -220v-185h-263v77h190v62c-123 36 -190 146 -190 271c0 181 147 311 324 311c178 0 323 -127 323 -309c0 -127 -64 -237 -190 -273v-62h190v-77z" />
    <glyph glyph-name="Ebreve" unicode="&#x114;" horiz-adv-x="416" 
d="M449 708l-13 -76h-206l-40 -229h196l-13 -71h-195l-44 -255h222l-13 -77h-305l123 708h288zM466 901c-28 -95 -84 -133 -153 -133c-66 0 -116 38 -116 133h56c0 -52 28 -74 64 -74c44 0 74 20 93 74h56z" />
    <glyph glyph-name="five.onum" horiz-adv-x="430" 
d="M211 477l-46 -185c15 3 28 4 42 4c112 0 163 -88 163 -178c0 -185 -119 -278 -269 -278c-30 0 -62 2 -90 7l17 80c21 -5 48 -9 73 -9c145 0 180 106 180 189c0 73 -40 121 -121 121c-34 0 -66 -8 -89 -15l78 343h286l-14 -79h-210z" />
    <glyph glyph-name="Ecircumflex" unicode="&#xca;" horiz-adv-x="416" 
d="M449 708l-13 -76h-206l-40 -229h196l-13 -71h-195l-44 -255h222l-13 -77h-305l123 708h288zM456 764h-70l-54 101l-88 -101h-77l130 144h80z" />
    <glyph glyph-name="Idotaccent" unicode="&#x130;" horiz-adv-x="240" 
d="M247 708l-123 -708h-86l123 708h86zM277 851c0 -35 -25 -63 -58 -63c-29 0 -46 23 -46 48c0 32 24 63 57 63c29 0 47 -20 47 -48z" />
    <glyph glyph-name="florin.sc" horiz-adv-x="425" 
d="M440 550l-31 -66c-10 7 -22 12 -36 12c-37 0 -56 -30 -70 -71l-31 -89h82l-12 -62h-91l-89 -264c-24 -72 -61 -121 -133 -121c-20 0 -40 2 -53 8l23 71c6 -4 14 -6 22 -6c38 0 52 32 67 78l80 234h-74l12 62h81l28 83c28 82 62 150 154 150c31 0 56 -9 71 -19z" />
    <glyph glyph-name="atilde.sc" horiz-adv-x="413" 
d="M360 0h-84l-5 124h-156l-53 -124h-86l248 556h109zM272 189l-8 290h-3l-122 -290h133zM441 734c-15 -67 -51 -106 -95 -106c-22 0 -37 6 -61 24c-26 20 -35 22 -51 22c-20 0 -33 -16 -42 -46h-45c15 65 51 106 95 106c24 0 39 -7 62 -24c27 -19 36 -23 52 -23
c21 0 32 14 41 47h44z" />
    <glyph glyph-name="dollar.sc" horiz-adv-x="425" 
d="M397 507l-51 -55c-19 21 -44 33 -73 34l-31 -174c47 -29 99 -66 99 -141c0 -105 -69 -164 -156 -170l-9 -58h-39l11 58c-50 5 -96 28 -121 58l50 56c19 -25 52 -42 83 -43l33 179c-51 28 -95 65 -95 138c0 95 65 155 148 166l10 56h38l-10 -56c48 -3 89 -20 113 -48z
M233 485c-35 -9 -61 -46 -61 -92c0 -27 13 -50 35 -63zM269 158c0 35 -16 56 -40 73l-29 -159c40 2 69 41 69 86z" />
    <glyph glyph-name="divide" unicode="&#xf7;" horiz-adv-x="666" 
d="M596 344v-82h-526v82h526zM398 132c0 -35 -28 -65 -65 -65s-65 30 -65 65c0 34 28 65 65 65s65 -31 65 -65zM398 469c0 -35 -28 -65 -65 -65s-65 30 -65 65c0 34 28 65 65 65s65 -31 65 -65z" />
    <glyph glyph-name="Idieresis" unicode="&#xcf;" horiz-adv-x="240" 
d="M247 708l-123 -708h-86l123 708h86zM190 850c0 -32 -23 -58 -53 -58c-27 0 -43 22 -43 45c0 29 22 57 53 57c26 0 43 -18 43 -44zM344 850c0 -32 -23 -58 -53 -58c-27 0 -43 22 -43 45c0 29 22 57 53 57c26 0 43 -18 43 -44z" />
    <glyph glyph-name="Gcommaaccent" unicode="&#x122;" horiz-adv-x="534" 
d="M539 639l-65 -58c-21 43 -57 65 -103 65c-141 0 -222 -233 -222 -397c0 -111 40 -186 125 -186c39 0 74 12 95 28l39 222h-95l14 75h177l-59 -344c-47 -34 -107 -59 -185 -59c-132 0 -202 105 -202 262c0 225 131 477 323 477c74 0 129 -28 158 -85zM280 -45l-95 -185
h-65l86 185h74z" />
    <glyph glyph-name="Udieresis" unicode="&#xdc;" horiz-adv-x="551" 
d="M569 708l-81 -464c-25 -144 -88 -261 -244 -261c-126 0 -181 81 -181 185c0 22 2 47 7 76l81 464h86l-80 -455c-4 -24 -7 -49 -7 -72c0 -64 22 -119 99 -119c102 0 137 94 154 191l80 455h86zM350 850c0 -32 -23 -58 -53 -58c-27 0 -43 22 -43 45c0 29 22 57 53 57
c26 0 43 -18 43 -44zM504 850c0 -32 -23 -58 -53 -58c-27 0 -43 22 -43 45c0 29 22 57 53 57c26 0 43 -18 43 -44z" />
    <glyph glyph-name="aogonek" unicode="&#x105;" horiz-adv-x="409" 
d="M301 -144l12 -42c-26 -22 -59 -36 -91 -36c-49 0 -85 28 -76 83c11 57 65 105 111 139h-14c1 19 8 63 12 85h-2c-25 -62 -68 -100 -131 -100c-57 0 -102 40 -102 120c0 159 130 205 233 205h34c6 37 8 49 8 60c0 54 -26 78 -68 78c-37 0 -74 -21 -102 -51l-36 50
c38 43 100 71 152 71c88 0 128 -50 128 -133c0 -24 -3 -47 -8 -76l-35 -204c-4 -24 -13 -86 -14 -105h-1c-59 -51 -91 -84 -97 -121c-5 -26 11 -44 35 -44c18 0 36 7 52 21zM279 248h-38c-69 0 -145 -31 -145 -131c0 -44 24 -64 54 -64c71 0 111 94 123 165z" />
    <glyph glyph-name="aring" unicode="&#xe5;" horiz-adv-x="409" 
d="M370 385c0 -24 -3 -47 -8 -76l-35 -204c-4 -24 -13 -86 -14 -105h-69c1 19 8 63 12 85h-2c-25 -62 -68 -98 -131 -98c-57 0 -102 38 -102 118c0 159 130 205 233 205h34c6 37 8 49 8 60c0 54 -26 78 -68 78c-37 0 -74 -21 -102 -51l-36 50c38 43 100 71 152 71
c88 0 128 -50 128 -133zM280 248h-38c-69 0 -145 -31 -145 -131c0 -44 24 -64 54 -64c71 0 111 94 123 165zM363 674c0 -63 -46 -118 -106 -118c-54 0 -82 35 -82 84c0 66 43 121 102 121c57 0 86 -39 86 -87zM324 671c0 28 -15 54 -48 54c-40 0 -63 -41 -63 -82
c0 -28 15 -51 47 -51c38 0 64 40 64 79z" />
    <glyph glyph-name="ccedilla.sc" horiz-adv-x="403" 
d="M437 503l-58 -58c-18 30 -42 46 -79 46c-102 0 -162 -165 -162 -287c0 -82 27 -139 91 -139c42 0 72 26 91 48l42 -58c-34 -38 -76 -62 -132 -66l-47 -61c7 2 14 3 23 3c34 0 73 -16 73 -72c0 -69 -77 -89 -130 -89c-27 0 -62 6 -87 19l24 41c18 -10 43 -14 66 -14
c26 0 63 9 63 44c0 25 -17 34 -41 34c-13 0 -29 -3 -42 -8l-16 17l67 88c-86 14 -133 95 -133 206c0 185 105 371 256 371c62 0 106 -23 131 -65z" />
    <glyph glyph-name="Edotaccent" unicode="&#x116;" horiz-adv-x="416" 
d="M449 708l-13 -76h-206l-40 -229h196l-13 -71h-195l-44 -255h222l-13 -77h-305l123 708h288zM377 851c0 -35 -25 -63 -58 -63c-29 0 -46 23 -46 48c0 32 24 63 57 63c29 0 47 -20 47 -48z" />
    <glyph glyph-name="gbreve.sc" horiz-adv-x="450" 
d="M437 502l-58 -58c-17 32 -44 48 -79 48c-104 0 -164 -171 -164 -291c0 -81 28 -139 98 -139c30 0 53 7 67 19l27 159h-76l13 71h155l-48 -277c-36 -27 -80 -46 -145 -46c-114 0 -177 84 -177 209c0 179 104 371 256 371c64 0 108 -23 131 -66zM468 753
c-28 -95 -84 -133 -153 -133c-66 0 -116 38 -116 133h56c0 -52 28 -74 64 -74c44 0 74 20 93 74h56z" />
    <glyph glyph-name="Scircumflex" unicode="&#x15c;" horiz-adv-x="434" 
d="M463 661l-58 -61c-25 32 -57 47 -99 47c-56 0 -123 -44 -123 -136c0 -57 32 -89 81 -119c63 -39 124 -90 124 -184c0 -143 -94 -225 -215 -225c-72 0 -139 33 -173 79l58 62c27 -38 68 -62 115 -62c67 0 128 45 128 129c0 58 -29 96 -90 133c-59 36 -114 84 -114 180
c0 136 97 221 213 221c66 0 121 -23 153 -64zM472 764h-70l-54 101l-88 -101h-77l130 144h80z" />
    <glyph glyph-name="Ycircumflex" unicode="&#x176;" horiz-adv-x="425" 
d="M509 708l-252 -423l-49 -285h-85l49 285l-102 423h91l66 -335h2l185 335h95zM451 764h-70l-54 101l-88 -101h-77l130 144h80z" />
    <glyph glyph-name="uni021A" unicode="&#x21a;" horiz-adv-x="349" 
d="M434 708l-13 -74h-135l-111 -634h-85l111 634h-136l13 74h356zM167 -45l-95 -185h-65l86 185h74z" />
    <glyph glyph-name="Ncaron" unicode="&#x147;" horiz-adv-x="567" 
d="M574 708l-123 -708h-101l-134 557h-3l-96 -557h-79l123 708h103l130 -558h3l98 558h79zM537 907l-129 -144h-80l-80 144h69l53 -101l89 101h78z" />
    <glyph glyph-name="Ntilde" unicode="&#xd1;" horiz-adv-x="567" 
d="M574 708l-123 -708h-101l-134 557h-3l-96 -557h-79l123 708h103l130 -558h3l98 558h79zM534 882c-15 -67 -51 -106 -95 -106c-22 0 -37 6 -61 24c-26 20 -35 22 -51 22c-20 0 -33 -16 -42 -46h-45c15 65 51 106 95 106c24 0 39 -7 62 -24c27 -19 36 -23 52 -23
c21 0 32 14 41 47h44z" />
    <glyph glyph-name="Ccaron" unicode="&#x10c;" horiz-adv-x="479" 
d="M539 641l-64 -58c-23 41 -57 62 -104 62c-140 0 -222 -226 -222 -393c0 -110 38 -190 123 -190c59 0 100 37 125 67l46 -56c-48 -55 -106 -90 -187 -90c-128 0 -198 111 -198 265c0 234 132 476 323 476c71 0 128 -28 158 -83zM558 907l-129 -144h-80l-80 144h69l53 -101
l89 101h78z" />
    <glyph glyph-name="lcaron.sc" horiz-adv-x="335" 
d="M388 556l-95 -185h-65l86 185h74zM287 77l-14 -77h-239l96 556h85l-83 -479h155z" />
    <glyph glyph-name="racute.sc" horiz-adv-x="420" 
d="M410 424c0 -88 -48 -151 -118 -170l72 -254h-88l-60 242h-58l-43 -242h-81l96 556h138c90 0 142 -44 142 -132zM329 413c0 52 -32 72 -73 72h-57l-30 -181h59c57 0 101 42 101 109zM420 760l-132 -144h-67l115 144h84z" />
    <glyph glyph-name="dcroat.sc" horiz-adv-x="460" 
d="M437 342c0 -178 -86 -342 -266 -342h-137l45 260h-46l10 57h46l41 239h132c123 0 175 -88 175 -214zM353 336c0 91 -35 147 -101 147h-52l-28 -166h92l-10 -57h-92l-31 -186h51c103 0 171 126 171 262z" />
    <glyph glyph-name="four.onum" horiz-adv-x="460" 
d="M265 88l43 248h81l-43 -248h82l-14 -76h-79l-30 -172h-83l30 172h-258l14 81l314 479h96l-319 -484h166z" />
    <glyph glyph-name="tilde.cap" 
d="M331 882c-15 -67 -51 -106 -95 -106c-22 0 -37 6 -61 24c-26 20 -35 22 -51 22c-20 0 -33 -16 -42 -46h-45c15 65 51 106 95 106c24 0 39 -7 62 -24c27 -19 36 -23 52 -23c21 0 32 14 41 47h44z" />
    <glyph glyph-name="utilde.sc" horiz-adv-x="470" 
d="M466 556l-63 -358c-21 -117 -70 -210 -198 -210c-104 0 -151 64 -151 149c0 18 1 38 5 61l63 358h85l-61 -350c-3 -19 -5 -39 -5 -56c0 -46 15 -85 68 -85c73 0 97 68 110 141l62 350h85zM461 734c-15 -67 -51 -106 -95 -106c-22 0 -37 6 -61 24c-26 20 -35 22 -51 22
c-20 0 -33 -16 -42 -46h-45c15 65 51 106 95 106c24 0 39 -7 62 -24c27 -19 36 -23 52 -23c21 0 32 14 41 47h44z" />
    <glyph glyph-name="acircumflex.sc" horiz-adv-x="413" 
d="M360 0h-84l-5 124h-156l-53 -124h-86l248 556h109zM272 189l-8 290h-3l-122 -290h133zM437 616h-70l-54 101l-88 -101h-77l130 144h80z" />
    <glyph glyph-name="Gdotaccent" unicode="&#x120;" horiz-adv-x="534" 
d="M539 639l-65 -58c-21 43 -57 65 -103 65c-141 0 -222 -233 -222 -397c0 -111 40 -186 125 -186c39 0 74 12 95 28l39 222h-95l14 75h177l-59 -344c-47 -34 -107 -59 -185 -59c-132 0 -202 105 -202 262c0 225 131 477 323 477c74 0 129 -28 158 -85zM454 851
c0 -35 -25 -63 -58 -63c-29 0 -46 23 -46 48c0 32 24 63 57 63c29 0 47 -20 47 -48z" />
    <glyph glyph-name="Ldot" unicode="&#x13f;" horiz-adv-x="370" 
d="M338 80l-14 -80h-286l123 708h86l-109 -628h200zM361 438c0 -35 -25 -63 -58 -63c-29 0 -46 23 -46 48c0 32 24 63 57 63c29 0 47 -20 47 -48z" />
    <glyph glyph-name="Hbar" unicode="&#x126;" horiz-adv-x="577" 
d="M584 708l-123 -708h-85l58 329h-253l-57 -329h-86l123 708h86l-26 -147h251l26 147h86zM194 405h252l17 103h-251z" />
    <glyph glyph-name="edotaccent" unicode="&#x117;" horiz-adv-x="431" 
d="M401 355c0 -26 -1 -55 -13 -126h-261c-3 -20 -5 -40 -5 -58c0 -66 23 -112 76 -112c45 0 76 33 98 71l58 -37c-37 -64 -88 -110 -165 -110c-93 0 -150 67 -150 183c0 172 89 352 226 352c97 0 136 -67 136 -163zM324 353c0 56 -20 92 -65 92c-68 0 -109 -93 -119 -149
h178c4 22 6 40 6 57zM347 658c0 -35 -25 -63 -58 -63c-29 0 -46 23 -46 48c0 32 24 63 57 63c29 0 47 -20 47 -48z" />
    <glyph glyph-name="fi.sc" horiz-adv-x="564" 
d="M557 556l-97 -556h-84l96 556h85zM371 556l-13 -76h-158l-29 -165h147l-13 -71h-145l-42 -244h-84l96 556h241z" />
    <glyph glyph-name="ldot.sc" horiz-adv-x="335" 
d="M287 77l-14 -77h-239l96 556h85l-83 -479h155zM332 323c0 -35 -25 -63 -58 -63c-29 0 -46 23 -46 48c0 32 24 63 57 63c29 0 47 -20 47 -48z" />
    <glyph glyph-name="Cacute" unicode="&#x106;" horiz-adv-x="479" 
d="M539 641l-64 -58c-23 41 -57 62 -104 62c-140 0 -222 -226 -222 -393c0 -110 38 -190 123 -190c59 0 100 37 125 67l46 -56c-48 -55 -106 -90 -187 -90c-128 0 -198 111 -198 265c0 234 132 476 323 476c71 0 128 -28 158 -83zM514 908l-132 -144h-67l115 144h84z" />
    <glyph glyph-name="zero.sc" horiz-adv-x="425" 
d="M396 386c0 -135 -50 -398 -218 -398c-100 0 -131 84 -131 178c0 140 47 402 216 402c101 0 133 -88 133 -182zM312 392c0 56 -13 106 -56 106c-98 0 -126 -256 -126 -336c0 -55 13 -104 56 -104c97 0 126 254 126 334z" />
    <glyph glyph-name="uni2219" unicode="&#x2219;" horiz-adv-x="222" 
d="M173 269c0 -37 -26 -66 -61 -66c-30 0 -48 24 -48 50c0 33 25 66 60 66c30 0 49 -21 49 -50z" />
    <glyph glyph-name="b.sc" horiz-adv-x="424" 
d="M403 434c0 -81 -46 -127 -99 -143v-2c37 -6 76 -42 76 -107c0 -124 -91 -182 -183 -182h-163l96 556h142c64 0 131 -35 131 -122zM323 420c0 44 -32 65 -71 65h-53l-28 -165h57c46 0 95 32 95 100zM298 183c0 55 -40 73 -75 73h-63l-33 -185h66c61 0 105 41 105 112z" />
    <glyph glyph-name="Igrave" unicode="&#xcc;" horiz-adv-x="240" 
d="M247 708l-123 -708h-86l123 708h86zM64 908h84l103 -144h-67z" />
    <glyph glyph-name="sacute" unicode="&#x15b;" horiz-adv-x="347" 
d="M349 474l-46 -56c-17 23 -43 35 -80 35c-43 0 -82 -32 -82 -84c0 -44 22 -59 64 -82c54 -30 95 -67 95 -135c0 -115 -82 -169 -175 -169c-58 0 -110 27 -137 63l54 53c19 -24 46 -48 91 -48c48 0 87 32 87 88c0 47 -34 74 -74 94c-47 24 -83 62 -83 126
c0 99 76 159 170 159c55 0 93 -19 116 -44zM374 715l-132 -144h-67l115 144h84z" />
    <glyph glyph-name="caron.cap" 
d="M345 907l-129 -144h-80l-80 144h69l53 -101l89 101h78z" />
    <glyph glyph-name="ebreve" unicode="&#x115;" horiz-adv-x="431" 
d="M401 355c0 -26 -1 -55 -13 -126h-261c-3 -20 -5 -40 -5 -58c0 -66 23 -112 76 -112c45 0 76 33 98 71l58 -37c-37 -64 -88 -110 -165 -110c-93 0 -150 67 -150 183c0 172 89 352 226 352c97 0 136 -67 136 -163zM324 353c0 56 -20 92 -65 92c-68 0 -109 -93 -119 -149
h178c4 22 6 40 6 57zM436 708c-28 -95 -84 -133 -153 -133c-66 0 -116 38 -116 133h56c0 -52 28 -74 64 -74c44 0 74 20 93 74h56z" />
    <glyph glyph-name="Adieresis" unicode="&#xc4;" horiz-adv-x="481" 
d="M431 0h-87l-7 168h-210l-74 -168h-88l318 708h113zM338 236l-12 392h-4l-169 -392h185zM326 850c0 -32 -23 -58 -53 -58c-27 0 -43 22 -43 45c0 29 22 57 53 57c26 0 43 -18 43 -44zM480 850c0 -32 -23 -58 -53 -58c-27 0 -43 22 -43 45c0 29 22 57 53 57
c26 0 43 -18 43 -44z" />
    <glyph glyph-name="Lacute" unicode="&#x139;" horiz-adv-x="370" 
d="M338 80l-14 -80h-286l123 708h86l-109 -628h200zM374 908l-132 -144h-67l115 144h84z" />
    <glyph glyph-name="two.sc" horiz-adv-x="425" 
d="M385 436c0 -65 -26 -110 -117 -206l-143 -154h203l-13 -76h-300l15 78l192 206c63 69 79 107 79 144c0 32 -17 66 -59 66c-40 0 -68 -34 -80 -77l-79 14c26 85 84 137 168 137c93 0 134 -63 134 -132z" />
    <glyph glyph-name="Hcircumflex" unicode="&#x124;" horiz-adv-x="577" 
d="M584 708l-123 -708h-85l58 329h-253l-57 -329h-86l123 708h86l-53 -303h252l52 303h86zM534 764h-70l-54 101l-88 -101h-77l130 144h80z" />
    <glyph glyph-name="dotaccent.sc" 
d="M237 703c0 -35 -25 -63 -58 -63c-29 0 -46 23 -46 48c0 32 24 63 57 63c29 0 47 -20 47 -48z" />
    <glyph glyph-name="eth" unicode="&#xf0;" horiz-adv-x="444" 
d="M416 333c0 -171 -90 -350 -229 -350c-92 0 -148 73 -148 186c0 173 86 341 225 341c26 0 46 -10 59 -25l2 2c-11 49 -36 109 -63 147l-106 -55l-28 38l107 55c-18 27 -43 52 -66 71l77 35c24 -24 48 -49 65 -76l98 50l31 -37l-105 -53c39 -64 81 -197 81 -329zM332 330
c0 70 -22 117 -71 117c-87 0 -138 -168 -138 -278c0 -68 21 -114 70 -114c89 0 139 164 139 275z" />
    <glyph glyph-name="cdotaccent" unicode="&#x10b;" horiz-adv-x="338" 
d="M372 479l-46 -61c-13 15 -31 27 -64 27c-87 0 -139 -162 -139 -274c0 -69 18 -112 82 -112c26 0 47 10 70 28l29 -65c-31 -25 -71 -39 -109 -39c-108 0 -156 79 -156 183c0 166 81 352 227 352c59 0 88 -21 106 -39zM344 658c0 -35 -25 -63 -58 -63c-29 0 -46 23 -46 48
c0 32 24 63 57 63c29 0 47 -20 47 -48z" />
    <glyph glyph-name="yen.sc" horiz-adv-x="425" 
d="M440 556l-151 -241h79l-10 -56h-109l-12 -74h108l-10 -57h-108l-22 -128h-83l22 128h-109l10 57h109l13 74h-109l10 57h82l-66 240h83l53 -235l134 235h86z" />
    <glyph glyph-name="Otilde" unicode="&#xd5;" horiz-adv-x="573" 
d="M561 461c0 -228 -120 -478 -305 -478c-127 0 -198 105 -198 259c0 227 114 482 305 482c131 0 198 -108 198 -263zM468 448c0 97 -16 199 -110 199c-134 0 -209 -245 -209 -410c0 -96 30 -175 113 -175c127 0 206 217 206 386zM538 882c-15 -67 -51 -106 -95 -106
c-22 0 -37 6 -61 24c-26 20 -35 22 -51 22c-20 0 -33 -16 -42 -46h-45c15 65 51 106 95 106c24 0 39 -7 62 -24c27 -19 36 -23 52 -23c21 0 32 14 41 47h44z" />
    <glyph glyph-name="eogonek" unicode="&#x119;" horiz-adv-x="431" 
d="M219 -144l12 -42c-26 -22 -59 -36 -91 -36c-49 0 -85 28 -76 83c9 50 51 93 92 125c-73 14 -117 78 -117 180c0 172 89 352 226 352c97 0 136 -67 136 -163c0 -26 -1 -55 -13 -126h-261c-3 -20 -5 -40 -5 -58c0 -66 23 -112 76 -112c45 0 76 33 98 71l58 -37
c-34 -58 -78 -100 -143 -108c-48 -43 -74 -73 -79 -106c-5 -26 11 -44 35 -44c18 0 36 7 52 21zM324 353c0 56 -20 92 -65 92c-68 0 -109 -93 -119 -149h178c4 22 6 40 6 57z" />
    <glyph glyph-name="Icircumflex" unicode="&#xce;" horiz-adv-x="240" 
d="M247 708l-123 -708h-86l123 708h86zM353 764h-70l-54 101l-88 -101h-77l130 144h80z" />
    <glyph glyph-name="scedilla.sc" horiz-adv-x="369" 
d="M380 519l-54 -61c-19 24 -45 36 -76 36c-39 0 -87 -30 -87 -96c0 -40 23 -62 60 -85c47 -29 97 -69 97 -145c0 -106 -64 -167 -147 -178l-48 -62c7 2 14 3 23 3c34 0 73 -16 73 -72c0 -69 -77 -89 -130 -89c-27 0 -62 6 -87 19l24 41c18 -10 43 -14 66 -14
c26 0 63 9 63 44c0 25 -17 34 -41 34c-13 0 -29 -3 -42 -8l-16 17l66 86c-52 5 -97 27 -122 58l54 62c21 -27 53 -46 88 -46c48 0 92 32 92 91c0 41 -22 68 -67 95c-47 29 -90 67 -90 144c0 102 76 175 173 175c55 0 102 -18 128 -49z" />
    <glyph glyph-name="cent.sc" horiz-adv-x="425" 
d="M431 463l-44 -58c-12 17 -36 33 -70 35l-67 -384c36 1 64 20 87 46l24 -54c-30 -34 -74 -57 -122 -59l-11 -61h-43l11 61c-89 6 -130 77 -130 180c0 151 83 339 220 341l12 66h43l-12 -66c50 -2 84 -22 102 -47zM275 440c-92 -4 -139 -161 -139 -261
c0 -65 21 -114 73 -119z" />
    <glyph glyph-name="gcircumflex" unicode="&#x11d;" horiz-adv-x="472" 
d="M443 501l-87 -500c-24 -136 -81 -241 -222 -241c-66 0 -127 31 -159 75l55 57c25 -32 63 -58 112 -58c84 0 118 73 134 167l15 80h-2c-26 -55 -59 -98 -128 -98c-81 0 -128 72 -128 179c0 163 78 356 211 356c58 0 98 -38 104 -92h3l13 75h79zM327 327
c0 71 -22 120 -71 120c-90 0 -139 -169 -139 -279c0 -67 21 -113 70 -113c87 0 140 162 140 272zM436 571h-70l-54 101l-88 -101h-77l130 144h80z" />
    <glyph glyph-name="uogonek.sc" horiz-adv-x="470" 
d="M249 -144l12 -42c-26 -22 -59 -36 -91 -36c-45 0 -77 23 -77 69c0 55 52 105 97 142c-94 6 -136 67 -136 148c0 18 1 38 5 61l63 358h85l-61 -350c-3 -19 -5 -39 -5 -56c0 -46 15 -85 68 -85c73 0 97 68 110 141l62 350h85l-63 -358c-19 -102 -58 -186 -153 -205
c-55 -51 -89 -82 -89 -122c0 -25 15 -36 36 -36c18 0 36 7 52 21z" />
    <glyph glyph-name="emacron.sc" horiz-adv-x="356" 
d="M367 556l-13 -74h-155l-28 -161h146l-12 -68h-146l-31 -178h168l-13 -75h-249l96 556h237zM392 659h-258l10 57h258z" />
    <glyph glyph-name="rcaron.sc" horiz-adv-x="420" 
d="M410 424c0 -88 -48 -151 -118 -170l72 -254h-88l-60 242h-58l-43 -242h-81l96 556h138c90 0 142 -44 142 -132zM329 413c0 52 -32 72 -73 72h-57l-30 -181h59c57 0 101 42 101 109zM441 759l-129 -144h-80l-80 144h69l53 -101l89 101h78z" />
    <glyph glyph-name="registered" unicode="&#xae;" horiz-adv-x="480" 
d="M372 372h-52l-38 102h-25v-102h-48v258h80c41 0 77 -22 77 -78c0 -37 -16 -60 -40 -68zM318 551c0 26 -15 37 -34 37h-27v-76h26c21 0 35 12 35 39zM280 274c-101 0 -170 87 -170 225s69 225 170 225s170 -87 170 -225s-69 -225 -170 -225zM280 698
c-86 0 -139 -84 -139 -199s53 -199 139 -199s139 84 139 199s-53 199 -139 199z" />
    <glyph glyph-name="eth.sc" horiz-adv-x="460" 
d="M437 342c0 -178 -86 -342 -266 -342h-137l45 260h-46l10 57h46l41 239h132c123 0 175 -88 175 -214zM353 336c0 91 -35 147 -101 147h-52l-28 -166h92l-10 -57h-92l-31 -186h51c103 0 171 126 171 262z" />
    <glyph glyph-name="Ecaron" unicode="&#x11a;" horiz-adv-x="416" 
d="M449 708l-13 -76h-206l-40 -229h196l-13 -71h-195l-44 -255h222l-13 -77h-305l123 708h288zM486 907l-129 -144h-80l-80 144h69l53 -101l89 101h78z" />
    <glyph glyph-name="ampersand.sc" horiz-adv-x="456" 
d="M448 300l-108 -169l71 -131h-88l-33 65c-34 -45 -70 -77 -130 -77c-77 0 -125 48 -125 128c0 89 53 155 125 194c-19 36 -29 70 -29 102c0 95 59 159 138 159c73 0 109 -46 109 -108c0 -81 -58 -133 -128 -173l55 -102l66 112h77zM308 456c0 31 -18 52 -44 52
c-38 0 -60 -44 -60 -89c0 -26 6 -55 20 -81c45 27 84 61 84 118zM258 123l-71 134c-41 -18 -77 -71 -77 -129c0 -44 19 -72 61 -72c38 0 70 34 87 67z" />
    <glyph glyph-name="rcaron" unicode="&#x159;" horiz-adv-x="276" 
d="M322 513l-18 -84c-5 1 -10 2 -17 2c-64 0 -115 -89 -130 -177l-44 -254h-82l65 374c3 21 17 108 19 127h79c-2 -19 -13 -85 -17 -106h3c31 81 81 119 131 119c4 0 8 0 11 -1zM395 714l-129 -144h-80l-80 144h69l53 -101l89 101h78z" />
    <glyph glyph-name="eight.onum" horiz-adv-x="476" 
d="M472 568c0 -87 -47 -162 -125 -190v-2c54 -21 85 -72 85 -142c0 -139 -84 -247 -224 -247c-115 0 -172 72 -172 169c0 101 62 199 149 220v2c-47 25 -71 70 -71 124c0 114 66 219 199 219c117 0 159 -71 159 -153zM389 563c0 54 -28 93 -81 93c-69 0 -112 -73 -112 -152
c0 -52 26 -96 77 -96c70 0 116 81 116 155zM345 236c0 63 -31 105 -89 105c-75 0 -134 -82 -134 -174c0 -61 28 -111 93 -111c87 0 130 90 130 180z" />
    <glyph glyph-name="Jcircumflex" unicode="&#x134;" horiz-adv-x="389" 
d="M403 708l-90 -513c-24 -135 -71 -212 -184 -212c-86 0 -133 51 -149 113l73 31c9 -31 31 -65 77 -65c66 0 84 55 99 142l88 504h86zM513 764h-70l-54 101l-88 -101h-77l130 144h80z" />
    <glyph glyph-name="ncaron.sc" horiz-adv-x="476" 
d="M469 556l-97 -556h-96l-93 408h-2l-70 -408h-77l96 556h97l92 -409h3l70 409h77zM476 759l-129 -144h-80l-80 144h69l53 -101l89 101h78z" />
    <glyph glyph-name="x.sc" horiz-adv-x="402" 
d="M438 556l-172 -266l87 -290h-89l-58 225l-137 -225h-94l192 294l-79 262h88l52 -201l119 201h91z" />
    <glyph glyph-name="Iacute" unicode="&#xcd;" horiz-adv-x="240" 
d="M247 708l-123 -708h-86l123 708h86zM365 908l-132 -144h-67l115 144h84z" />
    <glyph glyph-name="Euro" unicode="&#x20ac;" horiz-adv-x="477" 
d="M497 635c-15 9 -44 17 -82 17c-85 0 -154 -68 -195 -184h219l-26 -60h-212c-9 -25 -18 -69 -21 -106h196l-24 -60h-174c0 -114 47 -183 131 -183c41 0 76 10 102 25v-73c-24 -13 -66 -28 -112 -28c-136 0 -207 108 -206 259h-68l24 60h47c2 30 12 83 20 106h-60l24 60h52
c63 171 164 257 293 257c43 0 83 -10 104 -20z" />
    <glyph glyph-name="threesuperior" unicode="&#xb3;" horiz-adv-x="314" 
d="M345 621c0 -48 -28 -102 -82 -115l-1 -2c37 -10 57 -46 57 -88c0 -83 -57 -150 -144 -150c-69 0 -109 39 -122 93l66 20c7 -27 25 -50 57 -50c40 0 71 31 71 85c0 36 -24 59 -60 59h-18l10 59h20c41 0 74 30 74 80c0 23 -15 48 -45 48c-27 0 -45 -17 -57 -40l-59 19
c26 58 72 84 126 84c64 0 107 -40 107 -102z" />
    <glyph glyph-name="breve.sc" 
d="M334 753c-28 -95 -84 -133 -153 -133c-66 0 -116 38 -116 133h56c0 -52 28 -74 64 -74c44 0 74 20 93 74h56z" />
    <glyph glyph-name="fl.sc" horiz-adv-x="667" 
d="M629 77l-14 -77h-239l96 556h85l-83 -479h155zM371 556l-13 -76h-158l-29 -165h147l-13 -71h-145l-42 -244h-84l96 556h241z" />
    <glyph glyph-name="dcaron.sc" horiz-adv-x="460" 
d="M437 342c0 -178 -86 -342 -266 -342h-137l96 556h132c123 0 175 -88 175 -214zM353 336c0 91 -35 147 -101 147h-52l-69 -409h51c103 0 171 126 171 262zM443 759l-129 -144h-80l-80 144h69l53 -101l89 101h78z" />
    <glyph glyph-name="agrave.sc" horiz-adv-x="413" 
d="M360 0h-84l-5 124h-156l-53 -124h-86l248 556h109zM272 189l-8 290h-3l-122 -290h133zM145 760h84l103 -144h-67z" />
    <glyph glyph-name="rcommaaccent.sc" horiz-adv-x="420" 
d="M233 -45l-95 -185h-65l86 185h74zM410 424c0 -88 -48 -151 -118 -170l72 -254h-88l-60 242h-58l-43 -242h-81l96 556h138c90 0 142 -44 142 -132zM329 413c0 52 -32 72 -73 72h-57l-30 -181h59c57 0 101 42 101 109z" />
    <glyph glyph-name="ydieresis" unicode="&#xff;" horiz-adv-x="390" 
d="M423 501l-258 -595c-39 -90 -79 -146 -159 -146c-18 0 -34 3 -47 8l16 73c8 -4 18 -6 31 -6c39 0 60 25 78 69l34 81l-58 516h85l30 -406h2l162 406h84zM241 657c0 -32 -23 -58 -53 -58c-27 0 -43 22 -43 45c0 29 22 57 53 57c26 0 43 -18 43 -44zM395 657
c0 -32 -23 -58 -53 -58c-27 0 -43 22 -43 45c0 29 22 57 53 57c26 0 43 -18 43 -44z" />
    <glyph glyph-name="Scommaaccent" unicode="&#x218;" horiz-adv-x="434" 
d="M463 661l-58 -61c-25 32 -57 47 -99 47c-56 0 -123 -44 -123 -136c0 -57 32 -89 81 -119c63 -39 124 -90 124 -184c0 -143 -94 -225 -215 -225c-72 0 -139 33 -173 79l58 62c27 -38 68 -62 115 -62c67 0 128 45 128 129c0 58 -29 96 -90 133c-59 36 -114 84 -114 180
c0 136 97 221 213 221c66 0 121 -23 153 -64zM193 -45l-95 -185h-65l86 185h74z" />
    <glyph glyph-name="ccaron" unicode="&#x10d;" horiz-adv-x="338" 
d="M372 479l-46 -61c-13 15 -31 27 -64 27c-87 0 -139 -162 -139 -274c0 -69 18 -112 82 -112c26 0 47 10 70 28l29 -65c-31 -25 -71 -39 -109 -39c-108 0 -156 79 -156 183c0 166 81 352 227 352c59 0 88 -21 106 -39zM447 714l-129 -144h-80l-80 144h69l53 -101l89 101h78
z" />
    <glyph glyph-name="Iogonek" unicode="&#x12e;" horiz-adv-x="240" 
d="M114 -144l12 -42c-26 -22 -59 -36 -91 -36c-49 0 -85 28 -76 83c11 57 65 105 111 139h-32l123 708h86l-123 -708c-59 -51 -91 -84 -97 -121c-5 -26 11 -44 35 -44c18 0 36 7 52 21z" />
    <glyph glyph-name="u.sc" horiz-adv-x="470" 
d="M466 556l-63 -358c-21 -117 -70 -210 -198 -210c-104 0 -151 64 -151 149c0 18 1 38 5 61l63 358h85l-61 -350c-3 -19 -5 -39 -5 -56c0 -46 15 -85 68 -85c73 0 97 68 110 141l62 350h85z" />
    <glyph glyph-name="amacron" unicode="&#x101;" horiz-adv-x="409" 
d="M370 385c0 -24 -3 -47 -8 -76l-35 -204c-4 -24 -13 -86 -14 -105h-69c1 19 8 63 12 85h-2c-25 -62 -68 -98 -131 -98c-57 0 -102 38 -102 118c0 159 130 205 233 205h34c6 37 8 49 8 60c0 54 -26 78 -68 78c-37 0 -74 -21 -102 -51l-36 50c38 43 100 71 152 71
c88 0 128 -50 128 -133zM280 248h-38c-69 0 -145 -31 -145 -131c0 -44 24 -64 54 -64c71 0 111 94 123 165zM387 614h-258l10 57h258z" />
    <glyph glyph-name="uacute.sc" horiz-adv-x="470" 
d="M466 556l-63 -358c-21 -117 -70 -210 -198 -210c-104 0 -151 64 -151 149c0 18 1 38 5 61l63 358h85l-61 -350c-3 -19 -5 -39 -5 -56c0 -46 15 -85 68 -85c73 0 97 68 110 141l62 350h85zM461 760l-132 -144h-67l115 144h84z" />
    <glyph glyph-name="dcroat" unicode="&#x111;" horiz-adv-x="472" 
d="M505 582h-43l-101 -582h-79l14 81h-1c-26 -55 -66 -98 -135 -98c-81 0 -121 72 -121 178c0 163 82 357 214 357c59 0 94 -38 100 -92h2l27 156h-125l10 52h124l21 122h81l-22 -122h44zM333 327c0 71 -22 120 -71 120c-90 0 -139 -169 -139 -279c0 -67 21 -113 70 -113
c87 0 140 163 140 272z" />
    <glyph glyph-name="zero.onum" horiz-adv-x="500" 
d="M300 568c105 0 163 -81 163 -208c0 -179 -95 -372 -246 -372c-104 0 -162 82 -162 205c0 178 91 375 245 375zM293 493c-96 0 -151 -181 -151 -300c0 -71 22 -129 83 -129c96 0 151 181 151 300c0 71 -22 129 -83 129z" />
    <glyph glyph-name="eacute.sc" horiz-adv-x="356" 
d="M367 556l-13 -74h-155l-28 -161h146l-12 -68h-146l-31 -178h168l-13 -75h-249l96 556h237zM414 760l-132 -144h-67l115 144h84z" />
    <glyph glyph-name="dotlessj" horiz-adv-x="227" 
d="M106 -62c-19 -105 -59 -178 -163 -178c-10 0 -26 2 -39 5l12 78c9 -3 21 -4 29 -4c53 0 69 49 79 105l98 557h83z" />
    <glyph glyph-name="atilde" unicode="&#xe3;" horiz-adv-x="409" 
d="M370 385c0 -24 -3 -47 -8 -76l-35 -204c-4 -24 -13 -86 -14 -105h-69c1 19 8 63 12 85h-2c-25 -62 -68 -98 -131 -98c-57 0 -102 38 -102 118c0 159 130 205 233 205h34c6 37 8 49 8 60c0 54 -26 78 -68 78c-37 0 -74 -21 -102 -51l-36 50c38 43 100 71 152 71
c88 0 128 -50 128 -133zM280 248h-38c-69 0 -145 -31 -145 -131c0 -44 24 -64 54 -64c71 0 111 94 123 165zM411 689c-15 -67 -51 -106 -95 -106c-22 0 -37 6 -61 24c-26 20 -35 22 -51 22c-20 0 -33 -16 -42 -46h-45c15 65 51 106 95 106c24 0 39 -7 62 -24
c27 -19 36 -23 52 -23c21 0 32 14 41 47h44z" />
    <glyph glyph-name="eight.sc" horiz-adv-x="425" 
d="M401 443c0 -68 -38 -127 -98 -148v-2c40 -16 66 -55 66 -110c0 -110 -69 -195 -182 -195c-94 0 -145 57 -145 137s49 153 116 169v2c-38 19 -56 54 -56 97c0 91 55 175 164 175c96 0 135 -57 135 -125zM319 437c0 39 -20 67 -58 67c-49 0 -80 -53 -80 -110
c0 -38 18 -70 56 -70c50 0 82 60 82 113zM284 185c0 46 -22 76 -63 76c-53 0 -96 -60 -96 -126c0 -45 20 -80 67 -80c62 0 92 66 92 130z" />
    <glyph glyph-name="dieresis.sc" 
d="M161 702c0 -32 -23 -58 -53 -58c-27 0 -43 22 -43 45c0 29 22 57 53 57c26 0 43 -18 43 -44zM315 702c0 -32 -23 -58 -53 -58c-27 0 -43 22 -43 45c0 29 22 57 53 57c26 0 43 -18 43 -44z" />
    <glyph glyph-name="edieresis.sc" horiz-adv-x="356" 
d="M367 556l-13 -74h-155l-28 -161h146l-12 -68h-146l-31 -178h168l-13 -75h-249l96 556h237zM239 702c0 -32 -23 -58 -53 -58c-27 0 -43 22 -43 45c0 29 22 57 53 57c26 0 43 -18 43 -44zM393 702c0 -32 -23 -58 -53 -58c-27 0 -43 22 -43 45c0 29 22 57 53 57
c26 0 43 -18 43 -44z" />
    <glyph glyph-name="caron.alt" 
d="M282 708l-95 -185h-65l86 185h74z" />
    <glyph glyph-name="Kcommaaccent" unicode="&#x136;" horiz-adv-x="492" 
d="M554 708l-288 -335l180 -373h-96l-164 357h-2l-62 -357h-84l123 708h84l-55 -316h2l262 316h100zM253 -45l-95 -185h-65l86 185h74z" />
    <glyph glyph-name="amacron.sc" horiz-adv-x="413" 
d="M360 0h-84l-5 124h-156l-53 -124h-86l248 556h109zM272 189l-8 290h-3l-122 -290h133zM421 659h-258l10 57h258z" />
    <glyph glyph-name="Ncommaaccent" unicode="&#x145;" horiz-adv-x="567" 
d="M574 708l-123 -708h-101l-134 557h-3l-96 -557h-79l123 708h103l130 -558h3l98 558h79zM271 -45l-95 -185h-65l86 185h74z" />
    <glyph glyph-name="ccedilla" unicode="&#xe7;" horiz-adv-x="338" 
d="M372 479l-46 -61c-13 15 -31 27 -64 27c-87 0 -139 -162 -139 -274c0 -69 18 -112 82 -112c26 0 47 10 70 28l29 -65c-25 -20 -54 -32 -84 -37l-44 -57c9 3 18 3 31 3c36 0 74 -20 65 -72c-12 -69 -80 -89 -130 -89c-27 0 -62 6 -87 19l24 41c18 -10 43 -14 66 -14
c20 0 57 10 63 41c4 25 -14 37 -41 37c-13 0 -29 -3 -42 -8l-16 17l63 82c-92 10 -133 84 -133 181c0 166 81 352 227 352c59 0 88 -21 106 -39z" />
    <glyph glyph-name="Itilde" unicode="&#x128;" horiz-adv-x="240" 
d="M247 708l-123 -708h-86l123 708h86zM368 882c-15 -67 -51 -106 -95 -106c-22 0 -37 6 -61 24c-26 20 -35 22 -51 22c-20 0 -33 -16 -42 -46h-45c15 65 51 106 95 106c24 0 39 -7 62 -24c27 -19 36 -23 52 -23c21 0 32 14 41 47h44z" />
    <glyph glyph-name="thorn" unicode="&#xfe;" horiz-adv-x="478" 
d="M445 344c0 -163 -82 -361 -211 -361c-68 0 -98 43 -102 94h-2l-56 -317h-79l171 996h81l-58 -330h2c25 54 69 92 127 92c83 0 127 -69 127 -174zM360 334c0 67 -21 113 -70 113c-87 0 -140 -164 -140 -274c0 -70 21 -118 71 -118c90 0 139 170 139 279z" />
    <glyph glyph-name="brokenbar" unicode="&#xa6;" horiz-adv-x="222" 
d="M70 675h82v-350h-82v350zM70 175h82v-350h-82v350z" />
    <glyph glyph-name="ccircumflex.sc" horiz-adv-x="403" 
d="M437 503l-58 -58c-18 30 -42 46 -79 46c-102 0 -162 -165 -162 -287c0 -82 27 -139 91 -139c42 0 72 26 91 48l42 -58c-37 -41 -84 -67 -148 -67c-106 0 -164 86 -164 209c0 185 105 371 256 371c62 0 106 -23 131 -65zM464 616h-70l-54 101l-88 -101h-77l130 144h80z
" />
    <glyph glyph-name="Eogonek" unicode="&#x118;" horiz-adv-x="416" 
d="M224 -144l12 -42c-26 -22 -59 -36 -91 -36c-49 0 -85 28 -76 83c11 57 65 105 111 139h-142l123 708h288l-13 -76h-206l-40 -229h196l-13 -71h-195l-44 -255h222l-13 -77h-109c-59 -51 -91 -84 -97 -121c-5 -26 11 -44 35 -44c18 0 36 7 52 21z" />
    <glyph glyph-name="eacute" unicode="&#xe9;" horiz-adv-x="431" 
d="M401 355c0 -26 -1 -55 -13 -126h-261c-3 -20 -5 -40 -5 -58c0 -66 23 -112 76 -112c45 0 76 33 98 71l58 -37c-37 -64 -88 -110 -165 -110c-93 0 -150 67 -150 183c0 172 89 352 226 352c97 0 136 -67 136 -163zM324 353c0 56 -20 92 -65 92c-68 0 -109 -93 -119 -149
h178c4 22 6 40 6 57zM437 715l-132 -144h-67l115 144h84z" />
    <glyph glyph-name="g.sc" horiz-adv-x="450" 
d="M437 502l-58 -58c-17 32 -44 48 -79 48c-104 0 -164 -171 -164 -291c0 -81 28 -139 98 -139c30 0 53 7 67 19l27 159h-76l13 71h155l-48 -277c-36 -27 -80 -46 -145 -46c-114 0 -177 84 -177 209c0 179 104 371 256 371c64 0 108 -23 131 -66z" />
    <glyph glyph-name="Eth" unicode="&#xd0;" horiz-adv-x="545" 
d="M96 334h-59l11 61h59l54 313h160c147 0 212 -112 212 -270c0 -241 -120 -438 -335 -438h-160zM181 334l-45 -259h75c139 0 235 163 235 358c0 125 -48 200 -139 200h-75l-41 -238h132l-11 -61h-131z" />
    <glyph glyph-name="Lcommaaccent" unicode="&#x13b;" horiz-adv-x="370" 
d="M338 80l-14 -80h-286l123 708h86l-109 -628h200zM216 -45l-95 -185h-65l86 185h74z" />
    <glyph glyph-name="ecaron.sc" horiz-adv-x="356" 
d="M367 556l-13 -74h-155l-28 -161h146l-12 -68h-146l-31 -178h168l-13 -75h-249l96 556h237zM425 759l-129 -144h-80l-80 144h69l53 -101l89 101h78z" />
    <glyph glyph-name="estimated" unicode="&#x212e;" horiz-adv-x="500" 
d="M157 259h404c-1 162 -105 276 -259 276c-157 0 -258 -121 -258 -276c0 -154 101 -276 258 -276c105 0 167 40 228 135l-35 21c-50 -84 -110 -120 -193 -120c-58 0 -106 20 -145 59v181zM448 295h-291v145c39 39 87 60 144 60c56 0 105 -20 147 -60v-145z" />
    <glyph glyph-name="eogonek.sc" horiz-adv-x="356" 
d="M250 -144l12 -42c-26 -22 -59 -36 -91 -36c-45 0 -77 23 -77 69c0 61 65 116 112 153h-172l96 556h237l-13 -74h-155l-28 -161h146l-12 -68h-146l-31 -178h168l-13 -75h-23c-60 -56 -98 -87 -98 -129c0 -25 15 -36 36 -36c18 0 36 7 52 21z" />
    <glyph glyph-name="lcommaaccent.sc" horiz-adv-x="325" 
d="M197 -45l-95 -185h-65l86 185h74zM287 77l-14 -77h-239l96 556h85l-83 -479h155z" />
    <glyph glyph-name="edieresis" unicode="&#xeb;" horiz-adv-x="431" 
d="M401 355c0 -26 -1 -55 -13 -126h-261c-3 -20 -5 -40 -5 -58c0 -66 23 -112 76 -112c45 0 76 33 98 71l58 -37c-37 -64 -88 -110 -165 -110c-93 0 -150 67 -150 183c0 172 89 352 226 352c97 0 136 -67 136 -163zM324 353c0 56 -20 92 -65 92c-68 0 -109 -93 -119 -149
h178c4 22 6 40 6 57zM261 657c0 -32 -23 -58 -53 -58c-27 0 -43 22 -43 45c0 29 22 57 53 57c26 0 43 -18 43 -44zM415 657c0 -32 -23 -58 -53 -58c-27 0 -43 22 -43 45c0 29 22 57 53 57c26 0 43 -18 43 -44z" />
    <glyph glyph-name="ae.sc" horiz-adv-x="548" 
d="M559 556l-13 -74h-148l-29 -161h140l-12 -68h-139l-31 -178h160l-13 -75h-239l21 122h-125l-65 -122h-89l295 556h287zM319 482h-6l-150 -291h105z" />
    <glyph glyph-name="ccaron.sc" horiz-adv-x="403" 
d="M437 503l-58 -58c-18 30 -42 46 -79 46c-102 0 -162 -165 -162 -287c0 -82 27 -139 91 -139c42 0 72 26 91 48l42 -58c-37 -41 -84 -67 -148 -67c-106 0 -164 86 -164 209c0 185 105 371 256 371c62 0 106 -23 131 -65zM486 759l-129 -144h-80l-80 144h69l53 -101l89 101
h78z" />
    <glyph glyph-name="ecircumflex" unicode="&#xea;" horiz-adv-x="431" 
d="M401 355c0 -26 -1 -55 -13 -126h-261c-3 -20 -5 -40 -5 -58c0 -66 23 -112 76 -112c45 0 76 33 98 71l58 -37c-37 -64 -88 -110 -165 -110c-93 0 -150 67 -150 183c0 172 89 352 226 352c97 0 136 -67 136 -163zM324 353c0 56 -20 92 -65 92c-68 0 -109 -93 -119 -149
h178c4 22 6 40 6 57zM430 571h-70l-54 101l-88 -101h-77l130 144h80z" />
    <glyph glyph-name="v.sc" horiz-adv-x="406" 
d="M455 556l-236 -556h-109l-37 556h90l19 -457h2l180 457h91z" />
    <glyph glyph-name="thorn.sc" horiz-adv-x="398" 
d="M385 325c0 -125 -71 -192 -175 -192h-70l-23 -133h-83l96 556h82l-15 -97h54c73 0 134 -41 134 -134zM304 314c0 45 -21 74 -66 74h-54l-32 -187h58c58 0 94 43 94 113z" />
    <glyph glyph-name="ring.cap" 
d="M286 867c0 -63 -46 -118 -106 -118c-54 0 -82 35 -82 84c0 66 43 121 102 121c57 0 86 -39 86 -87zM247 864c0 28 -15 54 -48 54c-40 0 -63 -41 -63 -82c0 -28 15 -51 47 -51c38 0 64 40 64 79z" />
    <glyph glyph-name="emacron" unicode="&#x113;" horiz-adv-x="431" 
d="M401 355c0 -26 -1 -55 -13 -126h-261c-3 -20 -5 -40 -5 -58c0 -66 23 -112 76 -112c45 0 76 33 98 71l58 -37c-37 -64 -88 -110 -165 -110c-93 0 -150 67 -150 183c0 172 89 352 226 352c97 0 136 -67 136 -163zM324 353c0 56 -20 92 -65 92c-68 0 -109 -93 -119 -149
h178c4 22 6 40 6 57zM416 614h-258l10 57h258z" />
    <glyph glyph-name="e.sc" horiz-adv-x="356" 
d="M367 556l-13 -74h-155l-28 -161h146l-12 -68h-146l-31 -178h168l-13 -75h-249l96 556h237z" />
    <glyph glyph-name="abreve.sc" horiz-adv-x="413" 
d="M360 0h-84l-5 124h-156l-53 -124h-86l248 556h109zM272 189l-8 290h-3l-122 -290h133zM435 753c-28 -95 -84 -133 -153 -133c-66 0 -116 38 -116 133h56c0 -52 28 -74 64 -74c44 0 74 20 93 74h56z" />
    <glyph glyph-name="adieresis.sc" horiz-adv-x="413" 
d="M360 0h-84l-5 124h-156l-53 -124h-86l248 556h109zM272 189l-8 290h-3l-122 -290h133zM268 702c0 -32 -23 -58 -53 -58c-27 0 -43 22 -43 45c0 29 22 57 53 57c26 0 43 -18 43 -44zM422 702c0 -32 -23 -58 -53 -58c-27 0 -43 22 -43 45c0 29 22 57 53 57
c26 0 43 -18 43 -44z" />
    <glyph glyph-name="ccircumflex" unicode="&#x109;" horiz-adv-x="338" 
d="M372 479l-46 -61c-13 15 -31 27 -64 27c-87 0 -139 -162 -139 -274c0 -69 18 -112 82 -112c26 0 47 10 70 28l29 -65c-31 -25 -71 -39 -109 -39c-108 0 -156 79 -156 183c0 166 81 352 227 352c59 0 88 -21 106 -39zM425 571h-70l-54 101l-88 -101h-77l130 144h80z" />
    <glyph glyph-name="five.sc" horiz-adv-x="425" 
d="M389 556l-13 -73h-169l-30 -143c17 8 36 12 52 12c80 0 124 -61 124 -137c0 -135 -82 -227 -190 -227c-77 0 -121 46 -138 107l73 27c10 -35 33 -62 70 -62c63 0 103 67 103 141c0 52 -27 87 -76 87c-31 0 -77 -11 -106 -25l60 293h240z" />
    <glyph glyph-name="ecircumflex.sc" horiz-adv-x="356" 
d="M367 556l-13 -74h-155l-28 -161h146l-12 -68h-146l-31 -178h168l-13 -75h-249l96 556h237zM405 616h-70l-54 101l-88 -101h-77l130 144h80z" />
    <glyph glyph-name="circumflex.cap" 
d="M320 764h-70l-54 101l-88 -101h-77l130 144h80z" />
    <glyph glyph-name="commaaccent" 
d="M116 -45l-95 -185h-65l86 185h74z" />
    <glyph glyph-name="ycircumflex" unicode="&#x177;" horiz-adv-x="390" 
d="M423 501l-258 -595c-39 -90 -79 -146 -159 -146c-18 0 -34 3 -47 8l16 73c8 -4 18 -6 31 -6c39 0 60 25 78 69l34 81l-58 516h85l30 -406h2l162 406h84zM401 571h-70l-54 101l-88 -101h-77l130 144h80z" />
    <glyph glyph-name="Nacute" unicode="&#x143;" horiz-adv-x="567" 
d="M574 708l-123 -708h-101l-134 557h-3l-96 -557h-79l123 708h103l130 -558h3l98 558h79zM509 908l-132 -144h-67l115 144h84z" />
    <glyph glyph-name="rcommaaccent" unicode="&#x157;" horiz-adv-x="276" 
d="M322 513l-18 -84c-5 1 -10 2 -17 2c-64 0 -115 -89 -130 -177l-44 -254h-82l65 374c3 21 17 108 19 127h79c-2 -19 -13 -85 -17 -106h3c31 81 81 119 131 119c4 0 8 0 11 -1zM108 -45l-95 -185h-65l86 185h74z" />
    <glyph glyph-name="cacute.sc" horiz-adv-x="403" 
d="M437 503l-58 -58c-18 30 -42 46 -79 46c-102 0 -162 -165 -162 -287c0 -82 27 -139 91 -139c42 0 72 26 91 48l42 -58c-37 -41 -84 -67 -148 -67c-106 0 -164 86 -164 209c0 185 105 371 256 371c62 0 106 -23 131 -65zM475 760l-132 -144h-67l115 144h84z" />
    <glyph glyph-name="egrave" unicode="&#xe8;" horiz-adv-x="431" 
d="M401 355c0 -26 -1 -55 -13 -126h-261c-3 -20 -5 -40 -5 -58c0 -66 23 -112 76 -112c45 0 76 33 98 71l58 -37c-37 -64 -88 -110 -165 -110c-93 0 -150 67 -150 183c0 172 89 352 226 352c97 0 136 -67 136 -163zM324 353c0 56 -20 92 -65 92c-68 0 -109 -93 -119 -149
h178c4 22 6 40 6 57zM136 715h84l103 -144h-67z" />
    <glyph glyph-name="breve.cap" 
d="M334 901c-28 -95 -84 -133 -153 -133c-66 0 -116 38 -116 133h56c0 -52 28 -74 64 -74c44 0 74 20 93 74h56z" />
    <glyph glyph-name="tcommaaccent" unicode="&#x163;" horiz-adv-x="258" 
d="M285 501l-12 -66h-84l-50 -294c-2 -13 -4 -28 -4 -38c0 -33 14 -43 40 -43c12 0 28 4 38 8l-8 -65c-17 -6 -38 -11 -57 -11c-65 0 -95 36 -95 92c0 11 1 24 4 41l54 310h-69l11 66h67l23 134h79l-22 -134h85zM148 -45l-95 -185h-65l86 185h74z" />
    <glyph glyph-name="dcaron" unicode="&#x10f;" horiz-adv-x="538" 
d="M493 756l-132 -756h-79l14 81h-1c-26 -55 -66 -98 -135 -98c-81 0 -121 72 -121 178c0 163 82 357 214 357c59 0 94 -38 100 -92h2l57 330h81zM333 327c0 71 -22 120 -71 120c-90 0 -139 -169 -139 -279c0 -67 21 -113 70 -113c87 0 140 163 140 272zM651 708l-95 -185
h-65l86 185h74z" />
    <glyph glyph-name="gbreve" unicode="&#x11f;" horiz-adv-x="472" 
d="M443 501l-87 -500c-24 -136 -81 -241 -222 -241c-66 0 -127 31 -159 75l55 57c25 -32 63 -58 112 -58c84 0 118 73 134 167l15 80h-2c-26 -55 -59 -98 -128 -98c-81 0 -128 72 -128 179c0 163 78 356 211 356c58 0 98 -38 104 -92h3l13 75h79zM327 327
c0 71 -22 120 -71 120c-90 0 -139 -169 -139 -279c0 -67 21 -113 70 -113c87 0 140 162 140 272zM448 708c-28 -95 -84 -133 -153 -133c-66 0 -116 38 -116 133h56c0 -52 28 -74 64 -74c44 0 74 20 93 74h56z" />
    <glyph glyph-name="edotaccent.sc" horiz-adv-x="356" 
d="M367 556l-13 -74h-155l-28 -161h146l-12 -68h-146l-31 -178h168l-13 -75h-249l96 556h237zM317 703c0 -35 -25 -63 -58 -63c-29 0 -46 23 -46 48c0 32 24 63 57 63c29 0 47 -20 47 -48z" />
    <glyph glyph-name="six.sc" horiz-adv-x="425" 
d="M40 137c0 71 29 133 74 197l149 222h94l-161 -227l1 -1c17 13 34 17 55 17c64 0 118 -43 118 -135c0 -105 -61 -222 -185 -222c-96 0 -145 60 -145 149zM124 143c0 -50 23 -85 65 -85c62 0 97 79 97 147c0 46 -19 81 -61 81c-61 0 -101 -68 -101 -143z" />
    <glyph glyph-name="egrave.sc" horiz-adv-x="356" 
d="M367 556l-13 -74h-155l-28 -161h146l-12 -68h-146l-31 -178h168l-13 -75h-249l96 556h237zM109 760h84l103 -144h-67z" />
    <glyph glyph-name="c.sc" horiz-adv-x="403" 
d="M437 503l-58 -58c-18 30 -42 46 -79 46c-102 0 -162 -165 -162 -287c0 -82 27 -139 91 -139c42 0 72 26 91 48l42 -58c-37 -41 -84 -67 -148 -67c-106 0 -164 86 -164 209c0 185 105 371 256 371c62 0 106 -23 131 -65z" />
    <glyph glyph-name="circumflex.sc" 
d="M320 616h-70l-54 101l-88 -101h-77l130 144h80z" />
    <glyph glyph-name="degree" unicode="&#xb0;" horiz-adv-x="314" 
d="M192 403c-64 0 -101 57 -101 124c0 93 57 197 148 197c64 0 100 -57 100 -124c0 -92 -59 -197 -147 -197zM198 452c50 0 89 77 89 145c0 46 -21 78 -54 78c-53 0 -88 -80 -88 -146c0 -46 20 -77 53 -77z" />
    <glyph glyph-name="t.sc" horiz-adv-x="307" 
d="M357 556l-12 -72h-104l-85 -484h-84l85 484h-105l13 72h292z" />
    <glyph glyph-name="dieresis.cap" 
d="M161 850c0 -32 -23 -58 -53 -58c-27 0 -43 22 -43 45c0 29 22 57 53 57c26 0 43 -18 43 -44zM315 850c0 -32 -23 -58 -53 -58c-27 0 -43 22 -43 45c0 29 22 57 53 57c26 0 43 -18 43 -44z" />
    <glyph glyph-name="sacute.sc" horiz-adv-x="369" 
d="M380 519l-54 -61c-19 24 -45 36 -76 36c-39 0 -87 -30 -87 -96c0 -40 23 -62 60 -85c47 -29 97 -69 97 -145c0 -117 -79 -180 -175 -180c-60 0 -115 24 -143 59l54 62c21 -27 53 -46 88 -46c48 0 92 32 92 91c0 41 -22 68 -67 95c-47 29 -90 67 -90 144
c0 102 76 175 173 175c55 0 102 -18 128 -49zM413 760l-132 -144h-67l115 144h84z" />
    <glyph glyph-name="caron.sc" 
d="M345 759l-129 -144h-80l-80 144h69l53 -101l89 101h78z" />
    <glyph glyph-name="cacute" unicode="&#x107;" horiz-adv-x="338" 
d="M372 479l-46 -61c-13 15 -31 27 -64 27c-87 0 -139 -162 -139 -274c0 -69 18 -112 82 -112c26 0 47 10 70 28l29 -65c-31 -25 -71 -39 -109 -39c-108 0 -156 79 -156 183c0 166 81 352 227 352c59 0 88 -21 106 -39zM413 715l-132 -144h-67l115 144h84z" />
    <glyph glyph-name="copyright" unicode="&#xa9;" horiz-adv-x="640" 
d="M320 -20c-168 0 -284 145 -284 375s116 375 284 375s284 -145 284 -375s-116 -375 -284 -375zM320 686c-143 0 -232 -140 -232 -331s89 -331 232 -331s232 140 232 331s-89 331 -232 331zM393 241l44 -51c-22 -36 -57 -61 -105 -61c-96 0 -155 92 -155 228
c0 137 58 228 153 228c47 0 85 -21 106 -56l-43 -52c-13 26 -35 38 -63 38c-52 0 -78 -68 -78 -158c0 -88 26 -156 78 -156c29 0 49 15 63 40z" />
    <glyph glyph-name="d.sc" horiz-adv-x="460" 
d="M437 342c0 -178 -86 -342 -266 -342h-137l96 556h132c123 0 175 -88 175 -214zM353 336c0 91 -35 147 -101 147h-52l-69 -409h51c103 0 171 126 171 262z" />
    <glyph glyph-name="cdotaccent.sc" horiz-adv-x="403" 
d="M437 503l-58 -58c-18 30 -42 46 -79 46c-102 0 -162 -165 -162 -287c0 -82 27 -139 91 -139c42 0 72 26 91 48l42 -58c-37 -41 -84 -67 -148 -67c-106 0 -164 86 -164 209c0 185 105 371 256 371c62 0 106 -23 131 -65zM380 703c0 -35 -25 -63 -58 -63
c-29 0 -46 23 -46 48c0 32 24 63 57 63c29 0 47 -20 47 -48z" />
    <glyph glyph-name="f.sc" horiz-adv-x="343" 
d="M371 556l-13 -76h-158l-29 -165h147l-13 -71h-145l-42 -244h-84l96 556h241z" />
    <glyph glyph-name="gcommaaccent" unicode="&#x123;" horiz-adv-x="472" 
d="M443 501l-87 -500c-24 -136 -81 -241 -222 -241c-66 0 -127 31 -159 75l55 57c25 -32 63 -58 112 -58c84 0 118 73 134 167l15 80h-2c-26 -55 -59 -98 -128 -98c-81 0 -128 72 -128 179c0 163 78 356 211 356c58 0 98 -38 104 -92h3l13 75h79zM327 327
c0 71 -22 120 -71 120c-90 0 -139 -169 -139 -279c0 -67 21 -113 70 -113c87 0 140 162 140 272zM251 571l95 185h65l-86 -185h-74z" />
    <glyph glyph-name="commaaccent.alt" 
d="M127 571l95 185h65l-86 -185h-74z" />
    <glyph glyph-name="tcaron.sc" horiz-adv-x="307" 
d="M357 556l-12 -72h-104l-85 -484h-84l85 484h-105l13 72h292zM392 759l-129 -144h-80l-80 144h69l53 -101l89 101h78z" />
    <glyph glyph-name="gdotaccent.sc" horiz-adv-x="450" 
d="M437 502l-58 -58c-17 32 -44 48 -79 48c-104 0 -164 -171 -164 -291c0 -81 28 -139 98 -139c30 0 53 7 67 19l27 159h-76l13 71h155l-48 -277c-36 -27 -80 -46 -145 -46c-114 0 -177 84 -177 209c0 179 104 371 256 371c64 0 108 -23 131 -66zM380 703
c0 -35 -25 -63 -58 -63c-29 0 -46 23 -46 48c0 32 24 63 57 63c29 0 47 -20 47 -48z" />
    <glyph glyph-name="gcommaaccent.sc" horiz-adv-x="450" 
d="M259 -45l-95 -185h-65l86 185h74zM437 502l-58 -58c-17 32 -44 48 -79 48c-104 0 -164 -171 -164 -291c0 -81 28 -139 98 -139c30 0 53 7 67 19l27 159h-76l13 71h155l-48 -277c-36 -27 -80 -46 -145 -46c-114 0 -177 84 -177 209c0 179 104 371 256 371
c64 0 108 -23 131 -66z" />
    <glyph glyph-name="gcircumflex.sc" horiz-adv-x="450" 
d="M437 502l-58 -58c-17 32 -44 48 -79 48c-104 0 -164 -171 -164 -291c0 -81 28 -139 98 -139c30 0 53 7 67 19l27 159h-76l13 71h155l-48 -277c-36 -27 -80 -46 -145 -46c-114 0 -177 84 -177 209c0 179 104 371 256 371c64 0 108 -23 131 -66zM456 616h-70l-54 101
l-88 -101h-77l130 144h80z" />
    <glyph glyph-name="space" unicode=" " horiz-adv-x="187" 
 />
    <glyph glyph-name=".null" horiz-adv-x="187" 
 />
    <glyph glyph-name=".null" horiz-adv-x="187" 
 />
    </font>
</defs>
</svg>
